Libertine_Bold.sfdir
StartChar: exclam
Encoding: 33 33 0
Width: 288
VWidth: 999
Flags: W
HStem: -10 132<87.6132 178.375> 638 20G<129 156.667>
VStem: 67 132<10.5438 101.387 407.276 641.982> 114 44<206.074 380.961>
LayerCount: 2
Back
SplineSet
133 658 m 7xd0
 170 658 205 634 205 583 c 7xd0
 205 548 197 510 191 477 c 4
 174.687 379.119 162 279 161 230 c 4
 160.611 210.978 156.087 188 133 188 c 7
 106.923 188 104 208 103 242 c 4xc8
 101.745 289.698 87.8057 409.57 75 480 c 4
 68 515 61 544 61 583 c 7
 61 639 102 658 133 658 c 7xd0
EndSplineSet
Refer: 256 46 N 1 0 0 1 11 0 2
Fore
SplineSet
67 59 m 3xe0
 67 91 104 122 136 122 c 3
 172 122 199 85 199 53 c 3
 199 25 167 -10 130 -10 c 3
 98 -10 67 25 67 59 c 3xe0
144 658 m 3
 169.333 658 203 646.333 203 598 c 3
 203 571.6 198.048 522.398 191.822 485.333 c 0
 179 409 159.875 265.96 158 210 c 1
 150.75 202.5 122.625 199.875 114 207 c 1xd0
 111.598 267.046 91.4131 392.154 78.2725 466.333 c 0
 71.2168 506.161 66 546.401 66 589 c 3
 66 649 114 658 144 658 c 3
EndSplineSet
EndChar
StartChar: numbersign
Encoding: 35 35 2
Width: 514
Flags: W
HStem: 187 66<37.5 127.5 192.5 280.5 341.5 451.5> 360 66<63.5 154.5 218.5 305.5 368.5 476.5> 579 20G<187.5 248.5 338.5 395.5>
DStem2: 99.5 14 154.5 14 0.158649 0.987335<8.72568 175.251 250.727 350.344 425.661 592.345> 251.5 14 304.5 14 0.155356 0.987859<8.23384 175.405 250.08 350.188 425.174 592.19>
LayerCount: 2
Fore
SplineSet
358.5 360 m 1
 341.5 253 l 1
 459.5 253 l 1
 451.5 187 l 1
 332.5 187 l 1
 322.5 127 314.5 72 304.5 14 c 1
 251.5 14 l 1
 280.5 187 l 1
 184.5 187 l 1
 173.5 127 165.5 72 154.5 14 c 1
 99.5 14 l 1
 127.5 187 l 1
 28.5 187 l 1
 37.5 253 l 1
 137.5 253 l 1
 143.5 290 149.5 323 154.5 360 c 1
 54.5 360 l 1
 63.5 426 l 1
 163.5 426 l 1
 173.5 484 182.5 541 192.5 599 c 1
 248.5 599 l 1
 218.5 426 l 1
 315.5 426 l 1
 325.5 484 333.5 541 343.5 599 c 1
 395.5 599 l 1
 368.5 426 l 1
 485.5 426 l 1
 476.5 360 l 1
 358.5 360 l 1
288.5 253 m 1
 305.5 360 l 1
 211.5 360 l 1
 205.5 323 198.5 290 192.5 253 c 1
 288.5 253 l 1
EndSplineSet
Validated: 3073
EndChar
StartChar: dollar
Encoding: 36 36 3
Width: 514
VWidth: 999
Flags: HMW
HStem: -8.93704 40.0448<267.328 318.701> 571.552 38.2758<210.186 256.33 299.058 326.376>
VStem: 66 116<434.9 521.737> 350 117<91.8754 195>
DStem2: 219.555 -98.2666 260.5 -93.25 0.0548206 0.998496<3.21001 89.8972 131.799 317.025 491.345 669.301 710.014 792.677>
LayerCount: 2
Back
SplineSet
219.555 -98.2666 m 5x33
 262.805 689.483 l 5
 272 693 291 694.5 303.75 694.5 c 5
 260.5 -93.25 l 5
 253.199 -97.4727 229.555 -98.2666 219.555 -98.2666 c 5x33
423 585 m 1
 429 531 433 493 433 444 c 1
 423 436 400 435 387 439 c 1
 370 500 345 572 266 572 c 3
 219 572 182 541 182 489 c 3xb350
 182 436 253 383 290 364 c 0
 326 345 383 317 419 277 c 0
 446 247 467 219 467 171 c 3
 467 114 437 70 404 41 c 0
 366 7 316 -9 259 -9 c 3
 131 -9 129 9 76 9 c 1
 66 43 58 92 58 162 c 1
 73 166 88 171 104 165 c 1xb3a0
 123 81 187 30 249 30 c 3
 306 30 350 61 350 107 c 3
 350 159 304 198 261 228 c 0
 221 256 140 288 97 345 c 0
 76 373 66 414 66 450 c 3xb360
 66 495 91 538 126 566 c 0
 165 597 225 610 267 610 c 3
 353 610 372 592 423 585 c 1
-263 -86 m 1
 -263 669 l 1
 -220 669 l 1
 -220 -86 l 1
 -263 -86 l 1
-373 11 m 0
 -390 11 -387 -1 -409 -1 c 1
 -409 38 -417 96 -426 156 c 1
 -379 159 l 1x7b
 -361 89 -326 27 -243 27 c 0
 -204 27 -139 45 -139 136 c 0
 -139 202 -185 248 -254 273 c 0
 -323 298 -425 342 -425 463 c 0
 -425 563 -315 611 -242 611 c 0
 -181 611 -130 598 -100 602 c 1
 -97 554 -87 501 -78 449 c 1
 -124 445 l 1
 -131 464 l 2
 -153 541 -172 573 -242 573 c 0
 -300 573 -335 538 -335 468 c 0x77
 -335 418 -272 370 -231 359 c 0
 -170 343 -41 280 -41 167 c 1
 -41 79 -87 -13 -243 -13 c 0
 -312 -13 -351 11 -373 11 c 0
583 472 m 0xbd
 583 414 621 387 666 361 c 0
 668 360 670 360 672 364 c 1
 692 567 l 2
 692 569 691 572 689 572 c 0
 615 568 583 521 583 472 c 0xbd
693 247 m 2xbe
 672 37 l 2
 672 36 672 33 674 33 c 0
 732 34 783 63 786 133 c 0
 788 188 753 219 698 250 c 0
 696 251 693 249 693 247 c 2xbe
624 -91 m 1
 632 -6 l 2
 632 -4 631 -1 629 -1 c 0
 578 1 519 20 501 27 c 1
 492 40 481 125 478 156 c 1
 480 160 504 167 508 165 c 1
 536 70 569 48 633 35 c 0
 635 34 638 36 638 38 c 2
 660 261 l 2
 660 264 658 267 656 268 c 0
 572 313 510 356 510 443 c 0
 510 544 588 601 692 601 c 0
 694 601 696 602 697 604 c 2
 704 677 l 1
 708 680 734 684 740 683 c 1
 731 604 l 2
 731 603 733 600 735 600 c 0xbd
 761 598 785 594 801 592 c 0
 821 589 843 586 855 585 c 1
 849 557 842 508 837 464 c 1
 834 459 810 457 808 462 c 1
 805 540 782 561 731 569 c 0
 729 569 727 567 727 565 c 2xdd
 704 349 l 2
 704 344 706 343 708 342 c 0
 787 302 867 262 867 170 c 0
 867 82 804 9 672 0 c 0
 670 0 667 -3 667 -5 c 2
 659 -87 l 1
 653 -90 630 -93 624 -91 c 1
47 610 m 17
 477 610 l 1033
-10 600 m 1
 524 600 l 1
 524 0 l 1
 -10 0 l 1
 -10 600 l 1
EndSplineSet
Fore
SplineSet
423 585 m 1
 429 531 433 493 433 444 c 1
 423 436 400 435 387 439 c 1
 372.438 491.251 352.006 551.574 296.794 567.802 c 1
 285.729 366.263 l 1
 290 364 l 2
 326 345 383 317 419 277 c 0
 446 247 467 219 467 171 c 3
 467 114 436.87 70.1467 404 41 c 0
 367.223 8.38839 319.575 -7.81264 265.129 -8.93704 c 1
 260.5 -93.25 l 1
 253.199 -97.4727 229.555 -98.2666 219.555 -98.2666 c 1
 224.483 -8.50463 l 1
 130.103 -5.6089 123.747 9 76 9 c 1
 66 43 58 92 58 162 c 1
 73 166 88 171 104 165 c 1
 120.724 91.0615 172.314 42.6909 226.716 32.1642 c 1
 238.25 242.255 l 1
 195.347 267.22 132.917 297.389 97 345 c 0
 76 373 66 414 66 450 c 3
 66 495 91 538 126 566 c 0
 162.418 594.947 217.146 608.199 258.431 609.828 c 1
 262.805 689.483 l 1
 272 693 291 694.5 303.75 694.5 c 1
 299.058 609.046 l 1
 358.858 605.238 379.043 591.033 423 585 c 1
277.482 216.056 m 1
 267.328 31.1078 l 1
 315.163 37.014 350 66.0688 350 107 c 3
 350 152.369 314.949 187.79 277.482 216.056 c 1
246.491 392.339 m 1
 256.33 571.552 l 1
 214.023 567.578 182 537.377 182 489 c 3
 182 453.323 214.173 417.645 246.491 392.339 c 1
EndSplineSet
EndChar
StartChar: percent
Encoding: 37 37 4
Width: 637
VWidth: 999
Flags: W
HStem: -19 39<464.6 519.99> 214 36<494.292 553.315> 297 39<144.59 200.99> 474 45<284.316 457.718> 530 36<175.292 245.992>
VStem: 51 92<336.372 492.517> 243 42<385.167 505.827> 370 93<20.4706 176.517> 562 42<69.1669 208.803>
DStem2: 96 -4 150 -16 0.588938 0.808178<22.1045 620.449 651.051 709.262>
LayerCount: 2
Back
SplineSet
357.494 492.437 m 4
 360.602 492.437 361.489 492.881 362.821 492.881 c 4
 390.786 491.548 465.804 496.875 506.641 541.265 c 5
 524.399 518.628 l 5
 479.121 468.911 424.078 466.691 364.597 461.809 c 6
 357.494 461.365 l 6
 320.207 461.365 264.721 487.998 248.74 499.985 c 5
 263.39 521.733 l 5
 263.39 521.733 309.11 492.437 357.494 492.437 c 4
460.921 37.0049 m 4
 474.238 31.6777 487.999 35.2285 503.979 45.8828 c 4
 523.511 57.8672 534.609 80.5059 543.931 106.252 c 4
 553.252 130.666 558.135 156.411 555.913 179.05 c 4
 553.696 199.469 545.703 213.674 528.394 220.775 c 4
 527.949 221.22 l 4
 510.64 227.878 493.77 219.443 481.34 208.347 c 4
 464.028 193.254 454.263 175.942 445.385 153.748 c 4
 434.288 126.67 429.849 100.925 433.844 76.9551 c 4
 437.395 56.5352 445.829 43.2188 460.921 37.0049 c 4
579.438 200.801 m 4
 589.204 172.836 582.993 134.66 570.117 98.2617 c 4
 557.246 64.082 535.493 34.3408 510.64 20.1367 c 4
 481.784 3.71289 454.263 6.37598 433.844 16.1416 c 4
 412.537 26.7949 402.327 40.1123 392.118 68.9648 c 4
 383.24 93.8223 382.796 129.777 397.001 163.514 c 4
 410.762 198.137 432.068 224.326 461.809 240.751 c 4
 485.779 253.18 511.968 256.287 540.376 245.189 c 4
 566.567 234.536 570.117 228.766 579.438 200.801 c 4
546.592 542.153 m 5
 166.621 12.1465 l 5
 126.227 12.1465 l 5
 507.085 542.153 l 5
 546.592 542.153 l 5
168.396 323.759 m 4
 181.713 317.988 195.474 321.982 211.454 332.192 c 4
 230.985 344.621 242.083 366.816 251.848 393.006 c 4
 260.726 416.977 265.608 443.166 263.39 465.805 c 4
 261.17 486.223 253.18 500.43 235.868 507.529 c 4
 235.424 507.529 l 4
 218.112 514.189 201.244 505.757 188.815 495.103 c 4
 171.504 479.564 161.738 462.697 152.86 440.059 c 4
 141.763 412.98 137.324 387.68 141.318 363.266 c 4
 144.87 343.29 153.305 329.529 168.396 323.759 c 4
286.916 487.111 m 4
 296.682 459.146 290.467 420.971 277.594 384.572 c 4
 264.721 350.393 243.414 321.096 218.112 306.447 c 4
 189.259 290.023 161.738 293.13 141.763 302.451 c 4
 120.013 313.105 109.803 326.865 99.5928 355.275 c 4
 90.7158 380.133 90.7158 416.088 104.476 450.268 c 4
 118.236 484.892 139.544 510.64 169.284 527.061 c 4
 193.255 539.937 219.443 543.042 247.853 531.943 c 4
 274.043 520.845 277.594 515.078 286.916 487.111 c 4
EndSplineSet
Fore
SplineSet
51 407 m 3
 51 487.006 104 566 193 566 c 3
 241 566 285 547 285 475 c 3
 285 375.995 231.025 297 152 297 c 3
 119.748 297 93 305 75 326 c 0
 60.1602 343.313 51 370 51 407 c 3
143 369 m 3
 143 350 151 336 164 336 c 3
 184.734 336 204.38 352.661 218 376 c 0
 234.597 404.438 243 442.792 243 473 c 3
 243 525 218 530 204 530 c 3
 184.067 530 165.655 507.653 156 478 c 0
 144.826 443.683 143 387.016 143 369 c 3
247 554 m 1
 303.333 522.667 332.123 519 364 519 c 3
 406 519 473 525 514 569 c 1
 561 548 l 1
 150 -16 l 1
 96 -4 l 1
 462 497 l 1
 423 481 384 474 354 474 c 3
 331 474 300.333 480 280.168 493.167 c 1
 260.001 504.501 226 554 247 554 c 1
370 91 m 3
 370 171.006 423 250 512 250 c 3
 560 250 604 231 604 159 c 3
 604 59.9949 550.025 -19 471 -19 c 3
 438.749 -19 409.722 -10.5 393 11 c 0
 379 29 370 54 370 91 c 3
463 53 m 3
 463 39.6582 465.962 20 483 20 c 3
 503.735 20 523.38 36.661 537 60 c 0
 553.596 88.4383 562 126.792 562 157 c 3
 562 209 537 214 523 214 c 3
 503.068 214 484.655 191.653 475 162 c 0
 463.826 127.682 463 83.5781 463 53 c 3
EndSplineSet
EndChar
StartChar: ampersand
Encoding: 38 38 252
Width: 729
Flags: W
HStem: -10 61<550.179 644.516> -10 52<209.49 335.329> 402 34<506.77 548.29 654.152 707.23> 616 42<278.38 363.586>
VStem: 39 128<86.4025 223.199> 151 107<466.345 572.733> 383 102<471.925 598.093>
DStem2: 307 419 214.512 349.493 0.5547 -0.83205<-120.765 6.53045 51.3098 267.021>
LayerCount: 2
Back
SplineSet
290 611 m 4xec
 259 611 233 585 233 536 c 4
 233 492 261 450 308 412 c 4
 309 410 313 410 315 412 c 4
 337 436 357 467 357 523 c 4
 357 570 333 611 290 611 c 4xec
209 327 m 4
 207 329 205 329 203 327 c 4
 185 304 178 279 178 251 c 4xf4
 178 182 243 113 332 113 c 4
 377 113 408 131 420 142 c 4
 422 143 422 144 420 146 c 4
 352 200 272 266 209 327 c 4
306 647 m 4
 397 647 461 592 461 520 c 4
 461 462 415 431 340 389 c 4
 339 388 339 386 340 385 c 4
 389 342 456 292 508 255 c 4
 509 254 512 254 514 256 c 4
 538 293 556 337 561 353 c 4
 566 370 566 384 546 392 c 4
 535 396 522 399 502 402 c 4
 497 403 499 435 503 438 c 5
 520 438 562 435 603 435 c 4
 669 435 698 438 711 438 c 5
 714 434 713 404 707 401 c 5
 693 399 679 394 668 391 c 4
 649 385 636 376 627 360 c 5
 584 298 565 260 547 234 c 4
 546 233 547 229 548 228 c 4
 604 190 678 138 695 116 c 5
 695 88 638 5 623 -8 c 5
 619 -10 609 -10 605 -8 c 5
 597 5 577 22 570 28 c 4
 528 62 499 86 458 116 c 4
 457 117 455 118 453 116 c 4
 388 51 326 20 253 20 c 4
 139 20 52 90 52 201 c 4xf4
 52 256 74 288 179 353 c 4
 181 355 181 358 179 359 c 4
 147 394 126 433 126 489 c 4
 126 577 204 647 306 647 c 4
EndSplineSet
Fore
SplineSet
258 536 m 3x36
 258 505.333 281 457 307 419 c 1
 312 413 l 1
 353.699 446.004 383 499.994 383 537 c 3
 383 580.005 358.333 616 324 616 c 3
 282.5 616 258 581.759 258 536 c 3x36
601.416 324 m 0
 579.5 287 530 212 485.336 156.336 c 1
 513.336 111.336 551 51 601 51 c 3
 633.333 51 660.333 72.333 680.997 97.332 c 1
 690.997 97.332 698.667 76.333 699 61 c 1
 661 10 611 -10 566 -10 c 3xb6
 510.016 -10 465.595 -0.965538 415.823 66.0506 c 1
 373.349 23.7633 311.396 -10 232 -10 c 3
 117.469 -10 39 27.8438 39 144 c 3x7a
 39 212.942 80.547 284.666 214.512 349.493 c 1
 170.594 411.252 151 444.852 151 491 c 3
 151 520.496 160 565 192 600 c 0
 222.712 633.591 276.667 658 342 658 c 3
 434 658 485 597 485 547 c 3
 485 466.333 421 410.333 335 376 c 1
 339 371 l 1
 355 343 453.114 207 453.114 207 c 2
 457.695 200.644 464.229 201.048 468 205.5 c 0
 503.222 247.084 523.5 282 544.345 326.345 c 0
 557.868 355.115 568 397.5 510 402 c 1
 504 408 504 430 510 436 c 1
 537 435 574 434 611 434 c 3
 633 434 682 435 704 436 c 1
 710 430 710 408 704 402 c 1
 652.5 396 627.559 368.136 601.416 324 c 0
236.181 317.053 m 1
 174.607 265.587 167 218.278 167 170 c 3
 167 87.9025 214.988 42 256 42 c 3x7a
 304.784 42 340.821 52.8531 385.375 100.939 c 1
 338.25 163.784 262.444 276.434 236.181 317.053 c 1
EndSplineSet
Validated: 3617
Substitution2: "LinLibertine-'salt' Stilistische Alternativformen 1" ampersand.alt
Substitution2: "LinLibertine-'c2sc' Versale nach Kapitaelchen 1" ampersand.alt
Substitution2: "LinLibertine-'smcp' Gemeine nach Kapitaelchen 1" ampersand.alt
AlternateSubs2: "LinLibertine-'aalt' Alle Alternativen zeigen 1" ampersand.alt
EndChar
StartChar: quotesingle
Encoding: 39 39 253
Width: 215
Flags: W
HStem: 411 234
VStem: 51 110<492.66 631.224>
LayerCount: 2
Fore
SplineSet
98 411 m 1
 83 415 l 1
 83 415 51 585 51 591 c 3
 51 614 73 645 116 645 c 3
 158 645 161 626 161 608 c 3
 161 593 124 417 124 417 c 1
 98 411 l 1
EndSplineSet
Validated: 3073
EndChar
StartChar: parenleft
Encoding: 40 40 5
Width: 315
Flags: W
HStem: -213 21G<154.5 286.75>
VStem: 36 115<108.014 396.52>
LayerCount: 2
Back
SplineSet
101.562 -0.488281 m 4
 64.4531 81.0547 43.9453 164.551 43.9453 251.953 c 4
 43.9453 342.773 62.9883 424.805 102.051 503.418 c 4
 124.023 548.828 168.945 632.324 256.348 707.031 c 5
 273.926 689.453 l 5
 203.613 610.352 173.828 533.203 160.156 491.699 c 4
 134.277 416.504 121.582 337.891 121.582 251.953 c 4
 121.582 166.504 133.789 85.9375 160.156 10.7422 c 4
 174.316 -31.7383 203.613 -108.398 273.926 -187.012 c 5
 256.348 -203.613 l 5
 188.477 -145.02 138.184 -79.5898 101.562 -0.488281 c 4
EndSplineSet
Fore
SplineSet
36 253 m 0
 36 435 139 607 270 720 c 1
 298 686 l 1
 268 651 151 517 151 253 c 0
 151 -11 266 -145 298 -181 c 1
 268 -213 l 1
 41 -17 36 208 36 253 c 0
EndSplineSet
Validated: 3073
Substitution2: "LinLibertine-'case' Versalformen 1" parenleft.sc
Substitution2: "LinLibertine-'c2sc' Versale nach Kapitaelchen 1" parenleft.sc
Substitution2: "LinLibertine-'sinf' Wissenschaftliche Indices 1" parenleft.inferior
Substitution2: "LinLibertine-'sups' Hochgestellte 1" parenleft.superior
AlternateSubs2: "LinLibertine-'aalt' Alle Alternativen zeigen 1" parenleft.sc
EndChar
StartChar: asterisk
Encoding: 42 42 7
Width: 371
VWidth: 999
Flags: HW
LayerCount: 2
Back
SplineSet
181.126953125 547 m 5
 168.126953125 550 154.126953125 551 139.126953125 551 c 4
 90.126953125 551 58.126953125 558 58.126953125 588 c 4
 58.126953125 602 67.126953125 618 91.126953125 618 c 4
 125.126953125 618 143.126953125 585 187.126953125 567 c 5
 183.126953125 606 164.126953125 633 164.126953125 659 c 4
 164.126953125 680 176.126953125 698 194.126953125 698 c 4
 212.126953125 698 227.126953125 687 227.126953125 663 c 4
 227.126953125 636 210.126953125 596 208.126953125 566 c 5
 254.126953125 586 270.126953125 618 303.126953125 618 c 4
 330.126953125 618 337.126953125 598 337.126953125 588 c 4
 337.126953125 558 302.126953125 551 268.126953125 551 c 4
 249.126953125 551 231.126953125 550 213.126953125 547 c 5
 247.126953125 510 296.126953125 500 296.126953125 460 c 4
 296.126953125 442 281.126953125 431 267.126953125 431 c 4
 228.126953125 431 221.126953125 496 196.126953125 535 c 5
 171.126953125 490 164.126953125 431 126.126953125 431 c 4
 109.126953125 431 97.126953125 444 97.126953125 459 c 4
 97.126953125 502 148.126953125 510 181.126953125 547 c 5
EndSplineSet
Fore
SplineSet
183.126953125 532 m 1
 201.346679688 503.580078125 205.416992188 463.5 223.126953125 442 c 0
 230.840820312 432.635742188 240.920898438 428.407226562 251.126953125 428.407226562 c 3
 270.40625 428.407226562 287.126953125 441.12109375 287.126953125 461 c 0
 287.126953125 475.499023438 282.923828125 485.633789062 276.126953125 493.541015625 c 0
 259.015625 513.446289062 225.4609375 519.234375 201.126953125 545 c 1
 219.126953125 548 236.126953125 548 255.126953125 548 c 0
 274.206054688 548 296.987304688 549.4375 310.126953125 557 c 0
 319.529296875 562.412109375 326.760742188 573.984375 326.760742188 586 c 3
 326.760742188 603.053710938 317.828125 622.180664062 290.126953125 622.180664062 c 3
 255.901367188 622.180664062 243.76171875 588.112304688 196.126953125 568 c 1
 198.126953125 598 221.126953125 636 221.126953125 663 c 0
 221.126953125 687 204.126953125 700 183.126953125 700 c 0
 162.126953125 700 145.126953125 687 145.126953125 663 c 0
 145.126953125 636 168.126953125 598 170.126953125 568 c 1
 122.497070312 588.110351562 110.357421875 622.1796875 76.126953125 622.1796875 c 3
 48.4267578125 622.1796875 39.4970703125 603.049804688 39.4970703125 586 c 3
 39.4970703125 573.98046875 46.7265625 562.41015625 56.126953125 557 c 0
 69.2666015625 549.440429688 92.046875 548 111.126953125 548 c 0
 130.126953125 548 147.126953125 548 165.126953125 545 c 1
 140.796875 519.23046875 107.237304688 513.450195312 90.126953125 493.540039062 c 0
 83.3271484375 485.629882812 79.126953125 475.5 79.126953125 461 c 0
 79.126953125 441.120117188 95.8466796875 428.41015625 115.126953125 428.41015625 c 3
 125.336914062 428.41015625 135.416992188 432.639648438 143.126953125 442 c 0
 160.836914062 463.5 164.907226562 503.580078125 183.126953125 532 c 1
EndSplineSet
EndChar
StartChar: plus
Encoding: 43 43 8
Width: 537
Flags: W
HStem: 216 68<63.3813 241 308 496.619> 442 20G<273 292>
VStem: 241 67<32.3972 216 284 457.603>
LayerCount: 2
Back
SplineSet
250 214 m 5
 75 214 l 6
 66 214 60 224 60 242 c 4
 60 267 73 286 85 286 c 6
 239 286 l 5
 239 435 l 6
 239 448 263 462 283 462 c 4
 301 462 310 458 310 448 c 6
 310 276 l 5
 485 276 l 6
 494 276 500 266 500 248 c 4
 500 223 487 204 475 204 c 6
 321 204 l 5
 321 55 l 6
 321 42 297 28 277 28 c 4
 259 28 250 32 250 42 c 6
 250 214 l 5
-58.1055 268.555 m 25
 575.684 268.555 l 1049
0 572.012 m 1
 537.598 572.012 l 1
 537.598 0 l 1
 0 0 l 1
 0 572.012 l 1
EndSplineSet
Fore
SplineSet
241 216 m 1
 75 216 l 2
 66 216 60 224 60 242 c 0
 60 267 73 284 85 284 c 2
 241 284 l 1
 241 435 l 2
 241 448 263 462 283 462 c 0
 301 462 308 458 308 448 c 2
 308 284 l 1
 485 284 l 2
 494 284 500 276 500 258 c 0
 500 233 487 216 475 216 c 2
 308 216 l 1
 308 55 l 2
 308 42 286 28 266 28 c 0
 248 28 241 32 241 42 c 2
 241 216 l 1
EndSplineSet
Substitution2: "LinLibertine-'sinf' Wissenschaftliche Indices 1" plus.inferior
Substitution2: "LinLibertine-'sups' Hochgestellte 1" plus.superior
AlternateSubs2: "LinLibertine-'aalt' Alle Alternativen zeigen 1" plus.superior plus.inferior uni2098
EndChar
StartChar: comma
Encoding: 44 44 254
Width: 244
Flags: W
HStem: -167 31<29.2153 58.7959> 6 121<72.0058 121.794>
VStem: 125 74<-63.7781 45>
LayerCount: 2
Back
SplineSet
49 58 m 7
 49 97 83 129 123 129 c 7
 163 129 195 99 195 60 c 7
 195 22 161 -10 121 -10 c 7
 81 -10 49 20 49 58 c 7
11 -157 m 0
 10 -156 7 -150 8 -148 c 0
 59 -100 93 -56 90 2 c 1
 90 27 69 60 50 85 c 1
 61 102 117 150 136 158 c 0
 141 160 155 161 160 158 c 0
 174 146 190 109 192 71 c 0
 196 -32 102 -138 45 -166 c 0
 40 -169 18 -162 11 -157 c 0
130 95 m 3
 170 95 196 56 196 -4 c 3
 196 -74 138 -122 78 -133 c 1
 71 -126 69 -119 69 -109 c 1
 121 -96 157 -50 157 -29 c 3
 157 -6 140 0 121 2 c 0
 103 5 77 14.5 77 46 c 3
 77 74 99 95 130 95 c 3
EndSplineSet
Fore
SplineSet
112 127 m 7
 165.5 127 199 86 199 4 c 7
 199 -31.0308 173.26 -79.7401 145 -108 c 4
 116.5 -136.5 72.8862 -160.691 36 -167 c 5
 24.9482 -159.516 23.752 -148.811 29 -136 c 5
 74 -124 125 -53.5047 125 -27 c 7
 125 -5 102.333 2.66667 89 6 c 4
 69.67 10.8325 49 38.98 49 64 c 7
 49 86.5 86 127 112 127 c 7
EndSplineSet
Validated: 3105
EndChar
StartChar: hyphen
Encoding: 45 45 255
Width: 358
Flags: W
HStem: 215 79<54.2307 303.146>
VStem: 38 282<231.01 279.106>
LayerCount: 2
Back
SplineSet
271 223 m 6
 55 223 l 6
 46 223 40 232 40 242 c 7
 40 260 53 283 65 283 c 6
 284 283 l 6
 294 283 298 273 298 263 c 7
 298 251 284 223 271 223 c 6
EndSplineSet
Fore
SplineSet
273 215 m 6
 75 215 l 6
 51 215 38 225 38 236 c 4
 38 253 63 294 84 294 c 6
 284 294 l 6
 312 294 320 284 320 273 c 4
 320 260 296 215 273 215 c 6
EndSplineSet
Validated: 3073
Substitution2: "LinLibertine-'case' Versalformen 1" hyphen.cap
Substitution2: "LinLibertine-'c2sc' Versale nach Kapitaelchen 1" hyphen.sc
Substitution2: "LinLibertine-'smcp' Gemeine nach Kapitaelchen 1" hyphen.sc
AlternateSubs2: "LinLibertine-'aalt' Alle Alternativen zeigen 1" hyphen.sc
EndChar
StartChar: period
Encoding: 46 46 256
Width: 244
Flags: W
HStem: -10 142<74.875 169.72>
VStem: 51 142<14.003 108.125>
LayerCount: 2
Back
SplineSet
123 149 m 4
 141 149 163 141 175 129 c 5
 196 111 200 86 200 66 c 4
 200 51 194 25 179 11 c 5
 163 -6 141 -13 118 -13 c 4
 101 -13 82 -6 67 9 c 4
 51 24 44 45 44 68 c 4
 44 89 53 110 68 125 c 4
 84 141 105 149 123 149 c 4
EndSplineSet
Fore
SplineSet
51 64 m 7
 51 99 90 132 125 132 c 7
 164 132 193 93 193 58 c 7
 193 28 159 -10 119 -10 c 7
 84 -10 51 27 51 64 c 7
EndSplineSet
EndChar
StartChar: slash
Encoding: 47 47 9
Width: 316
Flags: W
VStem: 2 300
DStem2: 2 -21 65 -21 0.319461 0.947599<20.126 741.875>
LayerCount: 2
Back
SplineSet
267.97 661.299 m 1
 50.0186 17.6553 l 1
 14.5068 17.6553 l 1
 232.458 661.299 l 1
 267.97 661.299 l 1
EndSplineSet
Fore
SplineSet
302 682 m 1
 65 -21 l 1
 2 -21 l 5
 239 682 l 5
 302 682 l 1
EndSplineSet
Validated: 3073
Ligature2: "LinLibertine-'frac' Brueche 1" uni2215
AlternateSubs2: "LinLibertine-'aalt' Alle Alternativen zeigen 1" uni2215
EndChar
StartChar: zero
Encoding: 48 48 257
Width: 514
Flags: W
HStem: -10 42<215.473 293.556> 568 42<218.617 294.935>
VStem: 30 143<159.444 439.338> 342 142<157.858 454.855>
LayerCount: 2
Back
SplineSet
255 635 m 2
 256 635 l 2
 423 635 476 457 476 312 c 0
 476 166 423 -12 255 -12 c 0
 87 -12 33 167 33 311 c 0
 33 459 90 635 255 635 c 2
254 594 m 2
 253 594 l 2
 186 594 170 449 170 315 c 0
 170 180 191 29 257 29 c 0
 323 29 340 175 340 314 c 0
 340 455 319 594 254 594 c 2
46.875 610.125 m 25
 477.168 610.125 l 1049
0 600.012 m 1
 539.965 600.012 l 1
 539.965 0 l 1
 0 0 l 1
 0 600.012 l 1
EndSplineSet
Fore
SplineSet
255 -10 m 3
 109 -10 30 134 30 298 c 3
 30 498 131 610 260 610 c 3
 360.689 610 484 542.678 484 307 c 3
 484 69 354 -10 255 -10 c 3
260 568 m 3
 220 568 173 530 173 287 c 3
 173 202 173.6 32 256 32 c 3
 296.4 32 342 86.75 342 327 c 3
 342 503.76 298.8 568 260 568 c 3
EndSplineSet
Validated: 3073
Substitution2: "LinLibertine-'zero' gestrichene Null 1" zero.slash
Substitution2: "LinLibertine-'onum' Minuskelziffern 1" zero.taboldstyle
Substitution2: "LinLibertine-'pnum' Proportionalziffern 1" zero.fitted
Substitution2: "LinLibertine-'sinf' Wissenschaftliche Indices 1" zero.inferior
Substitution2: "LinLibertine-'sups' Hochgestellte 1" zero.superior
AlternateSubs2: "LinLibertine-'aalt' Alle Alternativen zeigen 1" zero.oldstyle zero.fitted zero.slash zero.slashfitted perthousandzero
EndChar
StartChar: one
Encoding: 49 49 10
Width: 514
Flags: W
HStem: -2 34<128.617 207.874 396.126 475.383> 467 21G<128.562 162.25> 590 20G<349 358.5>
VStem: 237 130<54.7283 488.997>
LayerCount: 2
Back
SplineSet
377 122 m 6
 377 39 388 36 449 32 c 5
 455 26 455 4 449 -2 c 5
 406 -1 365 0 312 0 c 31
 259 0 217 -1 175 -2 c 5
 169 4 169 26 175 32 c 5
 236 37 247 39 247 122 c 6
 247 314 l 6
 247 371 236 379 182 384 c 5
 180 390 178 410 180 416 c 5
 249 425 330 433 358 444 c 5
 372 444 381 438 381 427 c 5
 381 427 377 371 377 321 c 6
 377 122 l 6
465 0 m 5
 158 0 l 5
 158 34 l 5
 237 39 246 54 246 125 c 6
 246 488 l 6
 246 540 242 547 201 550 c 6
 150 554 l 5
 150 583 l 5
 216 593 290 611 378 635 c 5
 378 125 l 6
 378 56 385 39 465 34 c 5
 465 0 l 5
47 610 m 29
 477 610 l 1053
0 600 m 5
 569 600 l 5
 569 0 l 5
 0 0 l 5
 0 600 l 5
EndSplineSet
Fore
SplineSet
367 122 m 2
 367 39 415 35 470 32 c 1
 480 26 480 4 470 -2 c 1
 388 -1 343 0 303 0 c 0
 263 0 134 -2 134 -2 c 1
 124 4 124 26 134 32 c 1
 189 35 237 39 237 122 c 2
 237 435 l 2
 237 485 231 489 218 489 c 0
 204 489 189.5 485.5 135 467 c 1
 122.125 474 117.625 484.875 120 499 c 1
 207 536 247 556 308 588 c 0
 330.577 599.844 344 610 354 610 c 0
 363 610 371 606 371 593 c 1
 371 593 367 536 367 483 c 2
 367 122 l 2
EndSplineSet
Substitution2: "LinLibertine-'onum' Minuskelziffern 1" one.taboldstyle
Substitution2: "LinLibertine-'pnum' Proportionalziffern 1" one.fitted
Substitution2: "LinLibertine-'sinf' Wissenschaftliche Indices 1" one.inferior
Substitution2: "LinLibertine-'sups' Hochgestellte 1" one.superior
AlternateSubs2: "LinLibertine-'aalt' Alle Alternativen zeigen 1" one.oldstyle one.superior one.fitted
EndChar
StartChar: two
Encoding: 50 50 11
Width: 514
Flags: W
HStem: 0 90<175 397.025> 568 42<185.17 289.404>
VStem: 50 106<431.543 525.538> 325 128<372.235 530.085> 427 33<131.398 170.17>
LayerCount: 2
Back
SplineSet
81 468 m 7xf8
 81 528 150 610 261 610 c 7
 342 610 430 566 430 458 c 7xf8
 430 382 387.471 338.195 330 283 c 6
 229 186 l 6
 203.423 161.436 155 113 155 65 c 5
 333 65 l 6
 369 65 386 90 403 161 c 5
 413 163 426 161 432 156 c 5xf4
 431 126 421 51 408 -2 c 5
 408 -2 362 0 330 0 c 6
 155 0 l 6
 123 0 72 -2 72 -2 c 5
 72 57 80.1162 102.978 186 206 c 6
 260 278 l 6
 321.9 338.227 341 390 341 454 c 7
 341 550 291 575 255 575 c 7
 182 575 156 539 156 514 c 7
 156 505.82 158.962 499.981 162 494 c 4
 166 486.125 168 479.553 168 469 c 7
 168 446.909 138 429 121 429 c 7
 100 429 81 447 81 468 c 7xf8
766 556 m 3
 717 556 683 530 650 471 c 1
 606 472 l 1
 585 551 l 1
 588 555 l 1
 613 577 702 610 774 610 c 3
 893 610 997 561 997 453 c 3
 997 377 948 338 891 283 c 2
 791 186 l 2
 770 166 734 116 734 100 c 1
 816 100 l 2
 916 100 944 105 1002 109 c 1
 999 96 996 56 996 43 c 3
 996 30 999 9 1002 -4 c 1
 927 -1 903 0 828 0 c 3
 752 0 676 -2 579 -4 c 25
 578 0 l 17
 578 59 608 105 706 205 c 2
 780 278 l 2
 839 338 842 390 842 454 c 3
 842 516 802 556 766 556 c 3
47 610 m 25
 477 610 l 1049
0 600 m 1
 569 600 l 1
 569 0 l 1
 0 0 l 1
 0 600 l 1
EndSplineSet
Fore
SplineSet
50 465 m 3xf0
 50 481.119 53.4795 497.27 64.5 515.5 c 0
 95.8691 567.392 170.581 610 262 610 c 3
 321.263 610 374.391 598.374 410 564.377 c 0
 438.683 536.993 453 502.285 453 459 c 3xf0
 453 364.397 396.786 323.162 281 212.82 c 0
 224 158.5 189.5 120.5 175 90 c 1
 328 95 l 2
 398.828 97.459 405 106 427 174 c 1
 441.348 176.522 452.261 173.391 460 164 c 1xe8
 453 107 441 38 429 0 c 1
 47 0 l 1
 39 32 l 1
 40.6474 46.8268 108 131 229 246.93 c 0
 290.025 305.397 325 350.203 325 446 c 3
 325 506.68 296.509 568 238 568 c 3
 189.834 568 156 523 156 500 c 0
 156 489 159 481 162 474 c 0
 165 465 167 458 167 453 c 3
 167 422 130 400 101 400 c 3
 65 400 50 430.996 50 465 c 3xf0
EndSplineSet
Substitution2: "LinLibertine-'onum' Minuskelziffern 1" two.taboldstyle
Substitution2: "LinLibertine-'pnum' Proportionalziffern 1" two.fitted
Substitution2: "LinLibertine-'sinf' Wissenschaftliche Indices 1" two.inferior
Substitution2: "LinLibertine-'sups' Hochgestellte 1" two.superior
AlternateSubs2: "LinLibertine-'aalt' Alle Alternativen zeigen 1" two.oldstyle two.superior two.fitted
EndChar
StartChar: three
Encoding: 51 51 12
Width: 514
Flags: W
HStem: -10 42<179.66 290.732> 299 40<157.581 212.299> 448 21G<85.7478 120.131> 568 42<183.547 297.226>
VStem: 61 100<460.441 536.25> 310.862 118.138<429.848 555.444> 338 129<128.207 260.312>
LayerCount: 2
Back
SplineSet
46.875 610.125 m 29
 477.168 610.125 l 1053
0 600.012 m 5
 568.965 600.012 l 5
 568.965 0 l 5
 0 0 l 5
 0 600.012 l 5
EndSplineSet
Fore
SplineSet
248 568 m 3xfc
 221.231 568 172.423 564.922 161 504 c 0
 155 472 140.263 448 100 448 c 3
 71.4956 448 61 472 61 486 c 3
 61 504.265 66.5 520 83 537.75 c 0
 112.201 569.164 179.997 610 267 610 c 3
 405 610 429 543 429 499 c 3xfc
 429 460 410.799 429.426 386.6 402 c 0
 371.6 385 351.6 371 336 363 c 1
 420 357 467 294 467 222 c 3
 467 165 446 119 416 83 c 0
 366 23 286 -10 217 -10 c 3
 168 -10 115 3 79 21 c 0
 57 32 46 47 46 68 c 3
 46 85 63.9839 111 95 111 c 3
 132 111 149 89 160 74 c 0
 173 57 194 32 233 32 c 3
 270 32 338 57 338 172 c 3xfa
 338 292 265 307 213 307 c 3
 198 307 186 305 165 299 c 1
 159 306 157 318 157 328 c 0
 157 332 157 335 158 339 c 1
 250.471 359.916 310.862 420.975 310.862 497.064 c 0
 310.862 543.664 290.204 568 248 568 c 3xfc
EndSplineSet
Substitution2: "LinLibertine-'onum' Minuskelziffern 1" three.taboldstyle
Substitution2: "LinLibertine-'pnum' Proportionalziffern 1" three.fitted
Substitution2: "LinLibertine-'sinf' Wissenschaftliche Indices 1" three.inferior
Substitution2: "LinLibertine-'sups' Hochgestellte 1" three.superior
AlternateSubs2: "LinLibertine-'aalt' Alle Alternativen zeigen 1" three.oldstyle three.superior three.fitted
EndChar
StartChar: four
Encoding: 52 52 13
Width: 514
Flags: W
HStem: -2 34<162.617 236.64 409.36 483.383> 162 47<77.76 261 385 495.734> 590 20G<256.75 385>
VStem: 261 124<50.5764 162 209 500.976>
LayerCount: 2
Back
SplineSet
430 219 m 6
 441 219 445 213 445 203 c 4
 445 191 430 172 416 172 c 6
 347 172 l 1
 347 80 l 2
 347 33 368 35 417 31 c 1
 423 25 423 4 417 -2 c 1
 385 -1 347.397 0 308 0 c 0
 261.974 0 222 -1 190 -2 c 1
 184 4 184 25 190 31 c 1
 233 34 271 34 271 80 c 2
 271 172 l 1
 67 172 l 2
 37 172 31 199 28 214 c 1
 119.5 357 236 521.5 299 599 c 0
 302.678 603.524 308 610 315 610 c 2
 347 610 l 1
 349 608 l 1
 347.333 600.167 347 561 347 511 c 2
 347 219 l 1
 430 219 l 6
271 507.017 m 1
 202.028 412.799 131.348 301.158 80 219 c 1
 271 219 l 1
 271 507.017 l 1
46.875 610.125 m 25
 477.168 610.125 l 1049
0 600.012 m 1
 568.965 600.012 l 1
 568.965 0 l 1
 0 0 l 1
 0 600.012 l 1
EndSplineSet
Fore
SplineSet
483 209 m 6
 494 209 498 203 498 193 c 4
 498 181 483 162 469 162 c 6
 385 162 l 5
 385 122 l 6
 385 39 423 35 478 32 c 5
 488 26 488 4 478 -2 c 5
 396 -1 364 0 324 0 c 4
 284 0 168 -2 168 -2 c 5
 158 4 158 26 168 32 c 5
 223 35 261 39 261 122 c 6
 261 162 l 5
 84 162 l 6
 60 162 56 164 51 169 c 6
 36 187 l 5
 30 198 22 206 22 210 c 4
 22 213 26.6436 219.472 29 223 c 4
 111.5 346.5 218.5 519 295 610 c 5
 385 610 l 5
 385 209 l 5
 483 209 l 6
261 500.976 m 5
 208 429 127 292.5 77 209 c 5
 261 209 l 5
 261 500.976 l 5
EndSplineSet
Validated: 3105
Substitution2: "LinLibertine-'onum' Minuskelziffern 1" four.taboldstyle
Substitution2: "LinLibertine-'pnum' Proportionalziffern 1" four.fitted
Substitution2: "LinLibertine-'sinf' Wissenschaftliche Indices 1" four.inferior
Substitution2: "LinLibertine-'sups' Hochgestellte 1" four.superior
AlternateSubs2: "LinLibertine-'aalt' Alle Alternativen zeigen 1" four.oldstyle four.superior four.fitted
EndChar
StartChar: five
Encoding: 53 53 14
Width: 514
Flags: W
HStem: -10 44<195.942 282.402> 338 56<151.952 286.102> 508 92<169.148 424.888> 514 99<166.618 254.085 258.796 313.01 316.675 430>
VStem: 323 136<118.328 295.998>
LayerCount: 2
Back
SplineSet
46.875 610.125 m 25
 477.168 610.125 l 1049
0 600.012 m 1
 539.965 600.012 l 5
 539.965 0 l 5
 0 0 l 1
 0 600.012 l 1
EndSplineSet
Fore
SplineSet
323 188 m 0xe8
 323 288 287 338 240 338 c 3
 190 338 172 331 99 304 c 1
 86.2021 312 l 1
 126 610 l 1
 183 606 215 600 256 600 c 0xe8
 316 600 353 606 426 613 c 1xd8
 449 600 l 1xe8
 430 514 l 1xd8
 369 510 351 508 315 508 c 0
 273 508 202 510 170 513 c 1
 164 481 158 433 151 381 c 1
 175 387 238 394 269 394 c 3
 387 394 459 319 459 219 c 0
 459 99 372 -10 239 -10 c 3
 191.16 -10 130.686 -2.47461 92 18 c 0
 66.8027 31.3359 52 53.6445 52 71 c 3
 52 93 67 118 103 118 c 3
 140 118 165 99 178 79 c 0
 194 54 213 34 233 34 c 3
 288.036 34 323 90 323 188 c 0xe8
EndSplineSet
Validated: 3073
Substitution2: "LinLibertine-'onum' Minuskelziffern 1" five.taboldstyle
Substitution2: "LinLibertine-'pnum' Proportionalziffern 1" five.fitted
Substitution2: "LinLibertine-'sinf' Wissenschaftliche Indices 1" five.inferior
Substitution2: "LinLibertine-'sups' Hochgestellte 1" five.superior
AlternateSubs2: "LinLibertine-'aalt' Alle Alternativen zeigen 1" five.oldstyle five.superior five.fitted
EndChar
StartChar: six
Encoding: 54 54 15
Width: 514
Flags: W
HStem: -10 39<224.347 310.848> 315 50<204.23 295.75> 569 41<339.203 447.96>
VStem: 44 126<115.719 300.126> 343 134<109.662 262.764>
LayerCount: 2
Back
SplineSet
368 591 m 1
 307 562 287 546 255 509 c 0
 217.025 465.092 184.035 402.544 176.5 330.5 c 1
 212.5 349.5 255 362 279 365 c 1
 442.5 361.5 477 253 477 204 c 3
 477 115.494 419.039 -10 263 -10 c 3
 162 -10 44 32 44 246 c 3
 44 342 65.6689 447.215 142 513 c 0
 218 578.5 237 586 343 614 c 1
 356 609 371.078 603.244 368 591 c 1
171 289 m 1
 170 278 170 253 170 242 c 3
 170 68 225 29 275 29 c 3
 311 29 343 78 343 186 c 3
 343 245.502 303.02 315 245 315 c 3
 227 315 209.5 312.5 171 289 c 1
46.875 610.125 m 21
 477.168 610.125 l 1037
0 600.012 m 5
 539.965 600.012 l 5
 539.965 0 l 5
 0 0 l 5
 0 600.012 l 5
EndSplineSet
Fore
SplineSet
450 569 m 5
 393 566 324 557 265 509 c 4
 217.895 470.678 184.035 402.544 176.5 330.5 c 5
 212.5 349.5 255 362 279 365 c 5
 442.5 361.5 477 253 477 204 c 7
 477 115.494 419.039 -10 263 -10 c 7
 162 -10 44 32 44 246 c 7
 44 342 75.6694 447.215 152 513 c 4
 228 578.5 303 605.5 444 610 c 5
 451.79 600.419 453.078 581.244 450 569 c 5
171 289 m 5
 170 278 170 253 170 242 c 7
 170 68 225 29 275 29 c 7
 311 29 343 78 343 186 c 7
 343 245.502 303.02 315 245 315 c 7
 227 315 209.5 312.5 171 289 c 5
EndSplineSet
Validated: 3105
Substitution2: "LinLibertine-'onum' Minuskelziffern 1" six.taboldstyle
Substitution2: "LinLibertine-'pnum' Proportionalziffern 1" six.fitted
Substitution2: "LinLibertine-'sinf' Wissenschaftliche Indices 1" six.inferior
Substitution2: "LinLibertine-'sups' Hochgestellte 1" six.superior
AlternateSubs2: "LinLibertine-'aalt' Alle Alternativen zeigen 1" six.oldstyle six.superior six.fitted
EndChar
StartChar: seven
Encoding: 55 55 16
Width: 514
Flags: W
HStem: -12 21G<121 229> 498 102<126.882 378.94>
VStem: 60 35<413.4 453.601>
LayerCount: 2
Back
SplineSet
476 600 m 5x68
 485 588 l 5
 390 387 289 205 198 0 c 1
 95 -12 l 1x98
 87 1 l 1
 205 176 305 329 391 492 c 5
 178 492 l 6
 110 492 102 485 74 426 c 5
 39 426 l 5
 53 504 59 557 66 600 c 5
 476 600 l 5x68
46.875 610.125 m 25
 477.168 610.125 l 1049
0 600.012 m 1
 539.965 600.012 l 1
 539.965 0 l 1
 0 0 l 1
 0 600.012 l 1
EndSplineSet
Fore
SplineSet
184 498 m 2
 151 498 117 491 95 411 c 1
 60 414 l 1
 68 466 79 563 80 611 c 0
 80 614 81 614 84 614 c 0
 102 610 104 600 138 600 c 2
 473 600 l 1
 479 591 l 1
 350 319 296 169 229 -2 c 1
 127 -12 l 1
 121 0 l 1
 199.024 143.827 312.848 361.886 378.94 498 c 1
 184 498 l 2
EndSplineSet
Validated: 3073
Substitution2: "LinLibertine-'onum' Minuskelziffern 1" seven.taboldstyle
Substitution2: "LinLibertine-'pnum' Proportionalziffern 1" seven.fitted
Substitution2: "LinLibertine-'sinf' Wissenschaftliche Indices 1" seven.inferior
Substitution2: "LinLibertine-'sups' Hochgestellte 1" seven.superior
AlternateSubs2: "LinLibertine-'aalt' Alle Alternativen zeigen 1" seven.oldstyle seven.superior seven.fitted
EndChar
StartChar: eight
Encoding: 56 56 2151
Width: 514
VWidth: 487
Flags: W
HStem: -10 40<192.398 317.663> 575 35<206.429 309.4>
VStem: 34 123<70.0284 222.702> 65 123<425.243 533.823> 335 116<409.612 548.013> 356 124<89.7237 222.183>
DStem2: 246 397 161 330 0.878763 -0.477259<-68.2254 -19.0146 19.2594 63.4092 105.588 176.824>
LayerCount: 2
Back
SplineSet
46.875 610.125 m 29
 477.168 610.125 l 1053
-10 600.012 m 5
 523.965 600.012 l 5
 523.965 0 l 5
 -10 0 l 5
 -10 600.012 l 5
EndSplineSet
Fore
SplineSet
252 30 m 3xe4
 295 30 356 47 356 143 c 3
 356 191 349 229 277 267 c 2
 223 296 l 1
 154 248 157 177 157 147 c 3
 157 58 199 30 252 30 c 3xe4
451 477 m 3xd8
 451 413 398 364 339 347 c 1
 395 314 l 2
 453.146 279.735 480 222 480 163 c 3
 480 86 406 -10 250 -10 c 3
 123 -10 34 43 34 147 c 3xe4
 34 224 87 272 182 319 c 1
 161 330 l 2
 87.7989 368.343 65 403 65 460 c 3
 65 538 124.968 610 267 610 c 3
 398 610 451 550 451 477 c 3xd8
260 575 m 3
 196 575 188 536 188 489 c 3
 188 458 196.361 422.812 246 397 c 2
 296 371 l 1
 328 391 335 436 335 479 c 3xd8
 335 520 330 575 260 575 c 3
EndSplineSet
Validated: 3105
Substitution2: "LinLibertine-'onum' Minuskelziffern 1" eight.taboldstyle
Substitution2: "LinLibertine-'pnum' Proportionalziffern 1" eight.fitted
Substitution2: "LinLibertine-'sinf' Wissenschaftliche Indices 1" eight.inferior
Substitution2: "LinLibertine-'sups' Hochgestellte 1" eight.superior
AlternateSubs2: "LinLibertine-'aalt' Alle Alternativen zeigen 1" eight.oldstyle eight.superior eight.fitted
EndChar
StartChar: nine
Encoding: 57 57 17
Width: 514
VWidth: 487
Flags: W
HStem: -10 41<74.04 182.797> 235 50<226.25 317.77> 571 39<211.152 297.653>
VStem: 45 134<337.236 490.338> 352 126<299.874 484.281>
LayerCount: 2
Back
SplineSet
46.875 610.125 m 25
 477.168 610.125 l 1049
0 600.012 m 1
 539.965 600.012 l 1
 539.965 0 l 1
 0 0 l 1
 0 600.012 l 1
EndSplineSet
Fore
Refer: 15 54 N -1 0 0 -1 522 600 2
Validated: 32769
Substitution2: "LinLibertine-'onum' Minuskelziffern 1" nine.taboldstyle
Substitution2: "LinLibertine-'pnum' Proportionalziffern 1" nine.fitted
Substitution2: "LinLibertine-'sinf' Wissenschaftliche Indices 1" nine.inferior
Substitution2: "LinLibertine-'sups' Hochgestellte 1" nine.superior
AlternateSubs2: "LinLibertine-'aalt' Alle Alternativen zeigen 1" nine.oldstyle nine.superior nine.fitted
EndChar
StartChar: colon
Encoding: 58 58 18
Width: 256
VWidth: 999
Flags: W
HStem: 0 142<85.875 180.72> 295 142<85.875 180.72>
VStem: 62 142<24.003 118.125 319.003 413.125>
LayerCount: 2
Back
SplineSet
70 72 m 7
 70 101 94 125 123 125 c 7
 152 125 176 101 176 72 c 7
 176 43 152 19 123 19 c 7
 94 19 70 43 70 72 c 7
70 355 m 7
 70 384 94 408 123 408 c 7
 152 408 176 384 176 355 c 7
 176 326 152 302 123 302 c 7
 94 302 70 326 70 355 c 7
125 411 m 2
 126 411 l 2
 166 411 197 380 197 335 c 0
 197 293 166 263 125 263 c 0
 84 263 54 293 54 335 c 0
 54 380 84 411 125 411 c 2
124 -12 m 2
 123 -12 l 2
 84 -12 54 19 54 63 c 0
 54 106 84 136 124 136 c 0
 166 136 197 106 197 63 c 0
 197 19 166 -12 124 -12 c 2
EndSplineSet
Fore
Refer: 256 46 N 1 0 0 1 11 305 2
Refer: 256 46 N 1 0 0 1 11 10 2
EndChar
StartChar: less
Encoding: 60 60 19
Width: 512
Flags: W
DStem2: 42 262 153 240 0.939793 0.341743<96.7987 435.295> 153 240 42 218 0.939793 -0.341743<0 338.496>
LayerCount: 2
Fore
SplineSet
153 240 m 1
 471 124 l 1
 471 62 l 1
 42 218 l 1
 42 262 l 1
 471 418 l 1
 471 356 l 1
 153 240 l 1
EndSplineSet
Validated: 3073
EndChar
StartChar: equal
Encoding: 61 61 20
Width: 551
Flags: W
HStem: 142 56<59 493> 266 57<59 493>
LayerCount: 2
Back
SplineSet
-58.1055 256.836 m 29
 565.43 256.836 l 1053
0 572.012 m 1
 527.344 572.012 l 1
 527.344 0 l 1
 0 0 l 1
 0 572.012 l 1
EndSplineSet
Fore
SplineSet
493 323 m 1
 493 266 l 1
 59 266 l 1
 59 323 l 1
 493 323 l 1
493 198 m 1
 493 142 l 1
 59 142 l 1
 59 198 l 1
 493 198 l 1
EndSplineSet
Validated: 3073
Substitution2: "LinLibertine-'sinf' Wissenschaftliche Indices 1" equal.inferior
Substitution2: "LinLibertine-'sups' Hochgestellte 1" equal.superior
AlternateSubs2: "LinLibertine-'aalt' Alle Alternativen zeigen 1" equal.superior
EndChar
StartChar: greater
Encoding: 62 62 21
Width: 512
Flags: W
DStem2: 42 416 42 354 0.939088 -0.343676<21.3079 358.865> 42 122 42 60 0.940496 0.339806<0 337.555>
LayerCount: 2
Fore
SplineSet
359 238 m 1
 42 354 l 1
 42 416 l 1
 471 259 l 1
 471 215 l 1
 42 60 l 1
 42 122 l 1
 359 238 l 1
EndSplineSet
Validated: 3073
EndChar
StartChar: question
Encoding: 63 63 22
Width: 470
Flags: W
HStem: -10 132<188.613 279.375> 465 21G<102.5 129> 616 42<173.545 284.804>
VStem: 63 101<493.194 573.911> 168 132<10.5438 101.387> 208 44<205.61 302.623> 311 119<443.876 589.762>
LayerCount: 2
Back
SplineSet
131 59 m 3xf4
 131 91 168 122 200 122 c 3
 236 122 263 85 263 53 c 3
 263 25 231 -10 194 -10 c 3
 162 -10 131 25 131 59 c 3xf4
211 622 m 3
 154 622 131 597 131 571 c 3
 131 561 135 554 139 547 c 0
 144 537 147 529 147 516 c 3xf4
 147 489 112 471 86 471 c 3
 59 471 34 487 34 515 c 3
 34 589 133 658 221 658 c 3
 329 658 400 601 400 518 c 3
 400 444 338 394 290 350 c 0
 234 298 218 280 224 195 c 1
 216 186 187 183 179 192 c 1xec
 167 269 170 311 232 377 c 0
 269 417 288 449 288 503 c 3
 288 574 265 622 211 622 c 3
EndSplineSet
Fore
SplineSet
168 59 m 3xfa
 168 91 205 122 237 122 c 3
 273 122 300 85 300 53 c 3
 300 25 268 -10 231 -10 c 3
 199 -10 168 25 168 59 c 3xfa
238 616 m 7
 185.333 616 164 597 164 571 c 7
 164 561 166 554 170 547 c 4
 175 537 177 524 177 511 c 7
 177 484 142 465 116 465 c 7
 89 465 63 485 63 513 c 7
 63 587 158.333 658 251 658 c 7
 359 658 430 601 430 518 c 7
 430 444 369.509 391.296 320 349 c 4
 269.667 306 248 280 252 210 c 5
 244 201 216 198 208 207 c 5xf6
 200 268 200.5 305 262 377 c 4
 297.39 418.432 311 449 311 503 c 7
 311 562.675 291.352 616 238 616 c 7
EndSplineSet
EndChar
StartChar: at
Encoding: 64 64 23
Width: 925
Flags: HW
HStem: -160 39<363.021 598.782> 14 52<572.991 684.135> 16 59<353.291 466.87> 381 34<472.532 564.232> 584 37<376.725 579.841>
VStem: 56.6288 99<89.7415 345.27> 266.629 117<87.3284 246.981> 774.629 90<185.148 398.734>
LayerCount: 2
Back
SplineSet
628.319335938 46.875 m 4
 628.319335938 35.5205078125 638.358398438 33.203125 641.015625 33.203125 c 4xdf
 723.046875 33.203125 782.318359375 57.9912109375 810.9375 114.74609375 c 4
 839.74609375 171.875 841.698242188 254.8828125 841.698242188 289.061523438 c 4
 841.698242188 379.8828125 821.6796875 452.1484375 779.198242188 505.37109375 c 4
 703.026367188 601.07421875 608.7890625 648.92578125 493.5546875 648.92578125 c 4
 392.96875 648.92578125 304.1015625 610.3515625 225 532.71484375 c 4
 147.8515625 456.54296875 110.25390625 360.83984375 110.25390625 242.67578125 c 4
 110.25390625 132.811523438 142.96875 36.62109375 209.375 -50.78125 c 4
 279.6875 -143.5546875 376.85546875 -187.98828125 503.80859375 -187.98828125 c 4
 603.935546875 -187.98828125 679.350585938 -162.290039062 743.06640625 -112.3046875 c 5
 756.25 -131.34765625 l 5
 685.443359375 -184.452148438 614.721679688 -226.561523438 481.8359375 -226.561523438 c 4
 352.440429688 -226.561523438 246.97265625 -183.10546875 160.546875 -97.16796875 c 4
 72.16796875 -7.8125 28.22265625 99.12109375 28.22265625 228.02734375 c 4
 28.22265625 355.95703125 72.16796875 462.890625 160.546875 551.26953125 c 4
 250.390625 640.625 360.741210938 684.5703125 494.04296875 684.5703125 c 4
 641.015625 684.5703125 755.2734375 629.8828125 839.2578125 520.01953125 c 4
 891.015625 452.63671875 915.91796875 375.48828125 915.91796875 285.15625 c 4
 915.91796875 199.70703125 891.015625 131.8359375 841.2109375 78.61328125 c 4
 787.987304688 21.97265625 706.93359375 -5.37109375 596.58203125 -5.37109375 c 4xdf
 562.59765625 -5.37109375 554.1015625 20.779296875 554.1015625 40.0390625 c 4
 554.1015625 58.59375 558.983398438 83.49609375 568.75 114.74609375 c 5
 499.735351562 14.51171875 443.75 -2.9296875 412.5 -2.9296875 c 4xbf
 295.350585938 -2.9296875 274.8046875 92.5439453125 274.8046875 139.16015625 c 4
 274.8046875 307.974609375 418.333984375 442.87109375 542.87109375 442.87109375 c 4
 582.2265625 442.87109375 621.991210938 421.688476562 633.690429688 391.6015625 c 5
 643.944335938 438.4765625 l 5
 716.2109375 438.4765625 l 5
 643.944335938 125 l 6
 636.62109375 93.26171875 628.319335938 56.640625 628.319335938 46.875 c 4
617.5 334.731445312 m 4
 617.5 378.240234375 587.73828125 412.109375 546.2890625 412.109375 c 4
 525.780273438 412.109375 476.46484375 410.64453125 433.983398438 363.76953125 c 4
 376.83984375 302.228515625 355.366210938 222.790039062 355.366210938 150.263671875 c 4
 355.366210938 125.557617188 358.6796875 103.982421875 366.112304688 89.35546875 c 4
 387.108398438 48.828125 407.12890625 39.0625 447.655273438 39.0625 c 4xbf
 479.608398438 39.0625 551.870117188 103.669921875 582.421875 183.10546875 c 4
 596.689453125 220.818359375 617.5 306.333984375 617.5 334.731445312 c 4
EndSplineSet
Fore
SplineSet
609.62890625 80 m 3xbf
 609.62890625 67 616.62890625 66 627.62890625 66 c 3
 664.62890625 66 774.62890625 120.987304688 774.62890625 278 c 3
 774.62890625 509.01953125 628.657226562 589 473.62890625 589 c 3
 318.62890625 589 155.62890625 469 155.62890625 238 c 3
 155.62890625 77.9970703125 256.979878283 -121 480.62890625 -121 c 3
 557.62890625 -121 638.62890625 -97 700.62890625 -47 c 1
 713.706054688 -50.935546875 721.216796875 -59.42578125 721.62890625 -75 c 1
 657.62890625 -124 584.62890625 -160 461.62890625 -160 c 3
 213.997980858 -160 56.62890625 -16.001953125 56.62890625 221 c 3
 56.62890625 428 239.62890625 626 487.62890625 626 c 7
 737.630859375 626 864.62890625 491 864.62890625 297 c 3
 864.62890625 143 731.62890625 14 597.62890625 14 c 3xdf
 548.353515625 14 502.62890625 31 509.62890625 76 c 1
 474.62890625 31 427.62890625 16 393.62890625 16 c 3
 312.953125 16 266.62890625 72.994140625 266.62890625 158 c 3
 266.62890625 286.015625 408.62890625 415 523.62890625 415 c 3
 571.62890625 415 596.674804688 403 618.62890625 403 c 3
 637.864257812 403 645.018554688 410 659.62890625 410 c 3
 678.62890625 410 680.443359375 393.916992188 676.032226562 375 c 2
 622.62890625 146 l 2
 616.62890625 120 609.62890625 91 609.62890625 80 c 3xbf
564.62890625 365 m 1
 557.62890625 374 545.955078125 381 526.62890625 381 c 3
 512.62890625 381 480.62890625 381 445.62890625 343 c 0
 400.62890625 295 383.62890625 227 383.62890625 164 c 3
 383.62890625 117 392.62890625 75 439.62890625 75 c 3xbf
 471.448242188 75 500.487304688 106.735351562 526.62890625 193 c 0
 538.874023438 233.409179688 565.62890625 326 564.62890625 365 c 1
EndSplineSet
EndChar
StartChar: A
Encoding: 65 65 24
Width: 740
VWidth: 999
Flags: W
HStem: -2 34<3.77002 69.5762 167.992 237.23 421.77 500.035 664.842 733.23> 235 48<250.587 425> 638 20G<426.5 441.203>
DStem2: 106.983 102 165 79 0.390001 0.920814<-25.5008 179.412 231.412 451.365> 323.835 614 336.175 520 0.390001 0.920814<-540.408 -382.79 -329.399 -81.7439> 434 658 343.096 520 0.338836 -0.940845<99.0351 349.768 401.027 600.306>
AnchorPoint: "unten_punkt" 308 -110 basechar 0
AnchorPoint: "unten_anhang" 116 5 basechar 0
AnchorPoint: "top_akzent" 354 850 basechar 0
LayerCount: 2
Fore
SplineSet
165 79 m 2
 149 38 196.361 34.5957 234 32 c 1
 240 26 240 4 234 -2 c 1
 197 -1 142 0 101 0 c 3
 62 0 44 -1 7 -2 c 1
 1 4 1 26 7 32 c 1
 50.5 35 81 40 106.983 102 c 2
 323.835 614 l 1
 359 614 419 649 434 658 c 9
 640 86 l 6
 658 35 691.17 35.5303 730 32 c 5
 736 26 736 4 730 -2 c 5
 693 -1 637 0 596 0 c 7
 557 0 462 -1 425 -2 c 1
 419 4 419 26 425 32 c 1
 472.585 35.3984 513 31 499 72 c 2
 443 235 l 1
 253 235 l 2
 229 235 223 231 218 218 c 2
 165 79 l 2
273 283 m 2
 425 283 l 1
 343.096 520 l 1
 336.175 520 l 1
 247.826 296.333 l 1
 244 286 251 283 273 283 c 2
EndSplineSet
Validated: 3105
Substitution2: "LinLibertine-'c2sc' Versale nach Kapitaelchen 1" a.sc
Position2: "'cpsp' Versalabstaende 1" dx=2 dy=0 dh=5 dv=0
EndChar
StartChar: B
Encoding: 66 66 25
Width: 654
Flags: W
HStem: -2 42<245.223 398.568> -2 34<13.6167 82.4056> 334 42<242 372.404> 605 42<245.143 375.483> 613 34<13.6167 82.4056>
VStem: 102 140<47 334 376 598> 414 140<424.816 568.13> 461 147<100.315 274.622>
AnchorPoint: "unten_punkt" 268 -110 basechar 0
AnchorPoint: "unten_anhang" 250 0 basechar 0
AnchorPoint: "mittelpunkt" 146 185 basechar 0
AnchorPoint: "top_akzent" 267 850 basechar 0
AnchorPoint: "top_rechts" 509 732 basechar 0
LayerCount: 2
Fore
SplineSet
173 645 m 7x6d
 204.667 645 265 647 315 647 c 7
 516.83 647 554 560 554 491 c 7xb6
 554 440 512 385 458 361 c 5
 458 359 l 5
 564 331 608 274 608 186 c 7
 608 84 542 -2 337 -2 c 7xb5
 277 -2 213 0 173 0 c 7
 133 0 19 -2 19 -2 c 5
 9 4 9 26 19 32 c 5
 74 35 102 39 102 122 c 6
 102 523 l 6
 102 606 74 610 19 613 c 5
 9 619 9 641 19 647 c 5
 19 647 133 645 173 645 c 7x6d
242 334 m 5
 242 84 l 6
 242 55 248 40 308 40 c 7
 440 40 461 127 461 187 c 7xa5
 461 273 416 334 313 334 c 6
 242 334 l 5
242 562 m 6
 242 376 l 5
 298 376 l 6
 369 376 414 409 414 489 c 7xb6
 414 587 358 605 312 605 c 7
 247 605 242 591 242 562 c 6
EndSplineSet
Validated: 3105
Substitution2: "LinLibertine-'c2sc' Versale nach Kapitaelchen 1" b.sc
Position2: "'cpsp' Versalabstaende 1" dx=2 dy=0 dh=5 dv=0
EndChar
StartChar: C
Encoding: 67 67 26
Width: 696
VWidth: 999
Flags: W
HStem: -10 58<327.342 489.214> 617 41<307.431 481.663>
VStem: 37 151<214.907 431.761> 586 43<455.199 507.556>
AnchorPoint: "unten_punkt" 363 -110 basechar 0
AnchorPoint: "unten_anhang" 356 -7 basechar 0
AnchorPoint: "mittelpunkt" 346 315 basechar 0
AnchorPoint: "top_akzent" 340 850 basechar 0
AnchorPoint: "top_rechts" 609 732 basechar 0
LayerCount: 2
Fore
SplineSet
382 -10 m 3
 285 -10 222 6 158 52 c 0
 77.7783 109.659 37 218.133 37 312 c 3
 37 519.005 202 658 398 658 c 3
 511 658 556 618 607 613 c 1
 616 558 624 510 629 458 c 1
 617.667 452.019 598 449 586 453 c 1
 560 539 515 617 387 617 c 3
 257.5 617 188 498.001 188 334 c 3
 188 177.987 290 48 406 48 c 3
 466 48 537 68 608 146 c 1
 619 146 634.5 132 639.5 121 c 1
 566.5 32 462.946 -10 382 -10 c 3
EndSplineSet
Substitution2: "LinLibertine-'c2sc' Versale nach Kapitaelchen 1" c.sc
Position2: "'cpsp' Versalabstaende 1" dx=2 dy=0 dh=5 dv=0
EndChar
StartChar: D
Encoding: 68 68 27
Width: 734
Flags: W
HStem: -2 42<269.225 426.596> -2 34<25.6167 94.4056> 604 42<268.527 415.668> 613 34<25.6167 94.4056>
VStem: 114 140<54.7283 590.272> 535 151<175.935 431.978>
AnchorPoint: "unten_punkt" 279 -110 basechar 0
AnchorPoint: "unten_anhang" 279 4 basechar 0
AnchorPoint: "mittelpunkt" 346 315 basechar 0
AnchorPoint: "top_akzent" 306 850 basechar 0
AnchorPoint: "top_rechts" 619 732 basechar 0
LayerCount: 2
Fore
SplineSet
185 0 m 7xac
 145 0 31 -2 31 -2 c 5
 21 4 21 26 31 32 c 5
 86 35 114 39 114 122 c 6
 114 523 l 6
 114 606 86 610 31 613 c 5
 21 619 21 641 31 647 c 5x5c
 31 647 145 645 185 645 c 7
 225 645 267 646 320 646 c 7
 566.002 646 686 494 686 309 c 7
 686 207.416 653 124 605 82 c 4
 534.348 20.1787 434.472 -2 347 -2 c 7
 307 -2 225 0 185 0 c 7xac
254 119 m 6
 254 52 279.971 40 350 40 c 7
 426.026 40 535 101.989 535 284 c 7
 535 435 513 604 316 604 c 7xac
 280 604 254 584 254 529 c 6
 254 119 l 6
EndSplineSet
Validated: 3105
Substitution2: "LinLibertine-'c2sc' Versale nach Kapitaelchen 1" d.sc
Position2: "'cpsp' Versalabstaende 1" dx=2 dy=0 dh=5 dv=0
EndChar
StartChar: E
Encoding: 69 69 28
Width: 609
VWidth: 999
Flags: MW
HStem: -2 34<11.77 85.9433> 0 42<249.172 454.205> 319 46<242 399.554> 603 42<249.747 438.219> 613 34<12.2578 85.9433>
VStem: 102 140<48.1312 319 365 596.345> 414 43<252.086 303.875 376.375 431.914> 525 45<116.761 167.944>
AnchorPoint: "unten_punkt" 284 -110 basechar 0
AnchorPoint: "unten_anhang" 284 4 basechar 0
AnchorPoint: "top_akzent" 278 850 basechar 0
AnchorPoint: "top_rechts" 524 732 basechar 0
LayerCount: 2
Back
SplineSet
228 76 m 6xf7
 228 48 242 32 283 32 c 6
 297 32 l 6
 302 32 305 29 305 23 c 6
 305 0 l 5
 303 -2 l 5
 303 -2 203 0 167 0 c 4
 128 0 31 -2 31 -2 c 5
 29 0 l 5
 29 23 l 6
 29 29 33 32 37 32 c 6
 51 32 l 6
 91 32 106 44 106 76 c 6
 106 569 l 6
 106 601.001 91 613 51 613 c 6
 37 613 l 6
 33 613 29 616 29 621 c 6
 29 644 l 5
 32 646 l 5
 497 646 l 5xef
 501 588 508 535 518 484 c 5
 478 475 l 5
 464 526 439 600 372 600 c 6
 242 600 l 6
 233 600 228 592 228 571 c 6
 228 365 l 5
 341 365 l 6
 366 365 370 396 376 436 c 4
 376 440 382 447 392 447 c 14
 413 447 l 5
 419 437 l 5
 417 421 412 380.373 412 344 c 28
 412 307.627 417 268 419 251 c 5
 413 242 l 5
 392 242 l 22
 382 242 376 248 376 252 c 4
 370 293 366 323 341 323 c 6
 228 323 l 5
 228 76 l 6xf7
EndSplineSet
Fore
SplineSet
323 365 m 2x37
 390 365 411 374 414 429 c 1
 420 435 451 435 457 429 c 1
 456 399 455 376.549 455 343 c 27
 455 308.671 456 290 457 255 c 1
 451 249 420 249 414 255 c 1
 411 300 392 319 323 319 c 2
 242 319 l 1
 242 90 l 2
 242 63 261 42 283 42 c 2
 384 42 l 2x77
 460 42 505 98 525 170 c 1
 538.099 173.181 559.599 170.95 570 165 c 1
 562 114 557 48 543 -2 c 1xa7
 543 -2 453 0 405 0 c 2
 170 0 l 10x67
 170 0 64 -1 15 -2 c 1
 9 4 9 26 15 32 c 1
 85 35 102 39 102 122 c 2
 102 522 l 2
 102 605 85 610 15 613 c 1
 9 619 9 641 15 647 c 1xaf
 65 646 169 645 169 645 c 22
 464 645 l 6
 488 645 496 646 513 649 c 5
 516 649 517 648 517 646 c 4
 519 638 524 542 529 501 c 5
 519.245 496.332 498.419 494.244 486 496 c 5
 464 565 443 603 368 603 c 6
 283 603 l 6
 259 603 242 578 242 554 c 2
 242 365 l 1
 323 365 l 2x37
EndSplineSet
Validated: 3105
Substitution2: "LinLibertine-'c2sc' Versale nach Kapitaelchen 1" e.sc
Position2: "'cpsp' Versalabstaende 1" dx=2 dy=0 dh=5 dv=0
EndChar
StartChar: F
Encoding: 70 70 29
Width: 545
Flags: W
HStem: -2 34<13.6167 82.4056 266.36 340.383> 299 46<242 399.554> 603 42<249.747 443.163> 613 34<12.2578 85.9433>
VStem: 102 140<50.5764 299 345 596.345> 414 43<232.086 283.875 356.375 411.914> 496 35<493.32 535.012>
AnchorPoint: "unten_punkt" 206 -110 basechar 0
AnchorPoint: "unten_anhang" 150 -1 basechar 0
AnchorPoint: "top_akzent" 281 850 basechar 0
AnchorPoint: "top_rechts" 504 732 basechar 0
LayerCount: 2
Back
SplineSet
223 76 m 6xf7
 223 48 237 32 278 32 c 6
 292 32 l 6
 297 32 300 29 300 23 c 6
 300 0 l 5
 298 -2 l 5
 298 -2 198 0 162 0 c 4
 123 0 26 -2 26 -2 c 5
 24 0 l 5
 24 23 l 6
 24 29 28 32 32 32 c 6
 46 32 l 6
 86 32 101 44 101 76 c 6
 101 569 l 6
 101 601.001 86 613 46 613 c 6
 32 613 l 6
 28 613 24 616 24 621 c 6
 24 644 l 5
 27 646 l 5
 492 646 l 5xef
 496 588 503 535 513 484 c 5
 473 475 l 5
 459 526 434 600 367 600 c 6
 237 600 l 6
 228 600 223 592 223 571 c 6
 223 365 l 5
 336 365 l 6
 361 365 365 396 371 436 c 4
 371 440 377 447 387 447 c 14
 408 447 l 5
 414 437 l 5
 412 421 407 380.373 407 344 c 28
 407 307.627 412 268 414 251 c 5
 408 242 l 5
 387 242 l 22
 377 242 371 248 371 252 c 4
 365 293 361 323 336 323 c 6
 223 323 l 5
 223 76 l 6xf7
EndSplineSet
Fore
SplineSet
242 122 m 2xee
 242 39 280 35 335 32 c 1
 345 26 345 4 335 -2 c 1
 295 -1 213 0 173 0 c 3
 133 0 59 -1 19 -2 c 1
 9 4 9 26 19 32 c 1
 74 35 102 39 102 122 c 2
 102 522 l 2
 102 605 85 610 15 613 c 1
 9 619 9 641 15 647 c 1xde
 65 646 169 645 169 645 c 18
 466 645 l 2
 490 645 498 646 515 649 c 1
 518 649 518.684 647.975 519 646 c 0
 520.333 637.667 528.333 539.667 531 496 c 1
 521.245 491.332 508.419 489.244 496 491 c 1
 474 560 448 603 373 603 c 2
 283 603 l 2
 259 603 242 578 242 554 c 2
 242 345 l 1
 323 345 l 2
 390 345 411 354 414 409 c 1
 420 415 451 415 457 409 c 1
 455.5 380 455 345.5 455 323 c 3
 455 300 455 270 457 235 c 1
 451 229 420 229 414 235 c 1
 411 280 392 299 323 299 c 2
 242 299 l 1
 242 122 l 2xee
EndSplineSet
Validated: 3105
Substitution2: "LinLibertine-'c2sc' Versale nach Kapitaelchen 1" f.sc
Position2: "'cpsp' Versalabstaende 1" dx=2 dy=0 dh=5 dv=0
EndChar
StartChar: G
Encoding: 71 71 30
Width: 732
VWidth: 999
Flags: HW
HStem: -10 42<314.779 487.63> 271 37<432.77 504.783 660.223 700.23> 616 42<296.522 484.632>
VStem: 33 151<184.324 433.177> 514 140<78.4212 261.096> 602 44<456.261 503.722>
AnchorPoint: "komb_OR" 620 606 basechar 0
AnchorPoint: "unten_punkt" 367 -110 basechar 0
AnchorPoint: "unten_anhang" 367 2 basechar 0
AnchorPoint: "mittelpunkt" 308 335 basechar 0
AnchorPoint: "top_akzent" 365 850 basechar 0
AnchorPoint: "top_rechts" 631 732 basechar 0
LayerCount: 2
Back
SplineSet
694 332 m 7
 694 233.937 663.228 148.539 608.048 89 c 4
 550.689 27.1094 466.956 -10 364 -10 c 7
 195 -10 37.0001 100.087 37 309 c 5
 37 401.397 67.2236 484.238 119.08 546 c 4
 177.226 615.252 263.569 658 364 658 c 7
 559 658 694 531 694 332 c 7
351 616 m 7
 261.949 616 188 536 188 332 c 7
 188 144 274 32 384 32 c 7
 485 32 543 141.925 543 308 c 7
 543 511 458.042 616 351 616 c 7
EndSplineSet
Fore
SplineSet
395 658 m 3xf8
 519.5 658 572.5 623 625 623 c 5
 637 552 643 501 646 459 c 5
 634 453 618 451 602 453 c 1xf4
 577 539 510.5 616 381 616 c 3
 328 616 273 595 234 542 c 0
 197 491 184 410 184 324 c 3
 184 192 236 32 405 32 c 3
 456 32 482 42 514 74 c 1
 514 223 l 2
 514 263 488 267 436 271 c 1
 430 277 430 302 436 308 c 1
 481 307 547 306 584 306 c 3
 622 306 669 307 697 308 c 1
 703 302 703 277 697 271 c 1
 669 268 654 258 654 223 c 2
 654 106 l 2
 654 95 659 87 669 78 c 1
 605 24 495 -10 383 -10 c 3
 278 -10 201 11 138 65 c 0
 69 123 33 212 33 302 c 3
 33 410 73 505 140 565 c 0
 209 627 297 658 395 658 c 3xf8
EndSplineSet
Substitution2: "LinLibertine-'c2sc' Versale nach Kapitaelchen 1" g.sc
Position2: "'cpsp' Versalabstaende 1" dx=2 dy=0 dh=5 dv=0
EndChar
StartChar: H
Encoding: 72 72 2178
Width: 817
Flags: W
HStem: -2 34<25.6167 94.4056 273.594 342.383 475.617 544.406 723.594 792.383> 319 48<254 564> 613 34<25.6167 94.4056 273.594 342.383 475.617 544.406 723.594 792.383>
VStem: 114 140<47 319 367 598> 564 140<47 319 367 598>
AnchorPoint: "unten_punkt" 360 -110 basechar 0
AnchorPoint: "unten_anhang" 150 0 basechar 0
AnchorPoint: "mittelpunkt" 356 485 basechar 0
AnchorPoint: "top_akzent" 361 850 basechar 0
AnchorPoint: "top_rechts" 729 732 basechar 0
LayerCount: 2
Back
SplineSet
114 523 m 2xf0
 114 606 86 610 31 613 c 1
 21 619 21 641 31 647 c 1
 71 646 145 645 185 645 c 0
 225 645 297 646 337 647 c 1
 347 641 347 619 337 613 c 1
 282 610 254 606 254 523 c 2
 254 122 l 2
 254 39 282 35 337 32 c 1
 347 26 347 4 337 -2 c 1
 297 -1 225 0 185 0 c 0
 145 0 71 -1 31 -2 c 1
 21 4 21 26 31 32 c 1
 86 35 114 39 114 122 c 2
 114 523 l 2xf0
564 523 m 2xe4
 564 606 536 610 481 613 c 1
 471 619 471 641 481 647 c 1
 521 646 595 645 635 645 c 0
 675 645 747 646 787 647 c 1
 797 641 797 619 787 613 c 1
 732 610 704 606 704 523 c 2
 704 122 l 2
 704 39 732 35 787 32 c 1
 797 26 797 4 787 -2 c 1
 747 -1 675 0 635 0 c 0
 595 0 521 -1 481 -2 c 1
 471 4 471 26 481 32 c 1
 536 35 564 39 564 122 c 2
 564 523 l 2xe4
222 367 m 17xea
 572 367 l 1
 572 319 l 1
 222 319 l 9
 222 367 l 17xea
EndSplineSet
Fore
SplineSet
564 523 m 6
 564 606 536 610 481 613 c 5
 471 619 471 641 481 647 c 5
 521 646 595 645 635 645 c 4
 675 645 747 646 787 647 c 5
 797 641 797 619 787 613 c 5
 732 610 704 606 704 523 c 6
 704 122 l 6
 704 39 732 35 787 32 c 5
 797 26 797 4 787 -2 c 5
 747 -1 675 0 635 0 c 4
 595 0 521 -1 481 -2 c 5
 471 4 471 26 481 32 c 5
 536 35 564 39 564 122 c 6
 564 319 l 5
 254 319 l 5
 254 122 l 6
 254 39 282 35 337 32 c 5
 347 26 347 4 337 -2 c 5
 297 -1 225 0 185 0 c 4
 145 0 71 -1 31 -2 c 5
 21 4 21 26 31 32 c 5
 86 35 114 39 114 122 c 6
 114 523 l 6
 114 606 86 610 31 613 c 5
 21 619 21 641 31 647 c 5
 71 646 145 645 185 645 c 4
 225 645 297 646 337 647 c 5
 347 641 347 619 337 613 c 5
 282 610 254 606 254 523 c 6
 254 367 l 5
 564 367 l 5
 564 523 l 6
EndSplineSet
Validated: 3105
Substitution2: "LinLibertine-'c2sc' Versale nach Kapitaelchen 1" h.sc
Position2: "'cpsp' Versalabstaende 1" dx=2 dy=0 dh=5 dv=0
EndChar
StartChar: I
Encoding: 73 73 258
Width: 367
Flags: W
HStem: -2 34<25.6167 94.4056 273.594 342.383> 613 34<25.6167 94.4056 273.594 342.383>
VStem: 114 140<47 598>
AnchorPoint: "unten_punkt" 147 -110 basechar 0
AnchorPoint: "unten_anhang" 147 1 basechar 0
AnchorPoint: "mittelpunkt" 148 325 basechar 0
AnchorPoint: "top_akzent" 150 850 basechar 0
LayerCount: 2
Fore
SplineSet
114 523 m 2
 114 606 86 610 31 613 c 1
 21 619 21 641 31 647 c 1
 71 646 145 645 185 645 c 0
 225 645 297 646 337 647 c 1
 347 641 347 619 337 613 c 1
 282 610 254 606 254 523 c 2
 254 122 l 6
 254 39 282 35 337 32 c 5
 347 26 347 4 337 -2 c 5
 297 -1 225 0 185 0 c 4
 145 0 71 -1 31 -2 c 5
 21 4 21 26 31 32 c 5
 86 35 114 39 114 122 c 6
 114 523 l 2
EndSplineSet
Substitution2: "LinLibertine-'c2sc' Versale nach Kapitaelchen 1" i.sc
Position2: "'cpsp' Versalabstaende 1" dx=2 dy=0 dh=6 dv=0
EndChar
StartChar: J
Encoding: 74 74 259
Width: 392
VWidth: 999
Flags: HW
HStem: -187 72<16.7306 141.93> 613 34<60.5069 143.544 315.657 380.967>
VStem: 160.737 140<-23.4922 599.635>
AnchorPoint: "mittelpunkt" 205.737 315 basechar 0
AnchorPoint: "top_akzent" 201.737 850 basechar 0
LayerCount: 2
Fore
SplineSet
300.737304688 522 m 2
 300.737304688 103 l 6
 300.737304688 -40 242.737304688 -92 198.737304688 -129 c 4
 157.737304688 -164 107.737304688 -187 36.7373046875 -187 c 7
 -3.275390625 -187 -81.2626953125 -157 -81.2626953125 -101 c 7
 -81.2626953125 -66 -33.2626953125 -34 -11.2626953125 -34 c 7
 36.7373046875 -34 42.7373046875 -68 58.7373046875 -88 c 4
 70.7373046875 -104 81.6572265625 -115 106.737304688 -115 c 7
 149.737304688 -115 160.737304688 -99 160.737304688 81 c 6
 160.737304688 522 l 2
 160.737304688 605 143.737304688 610 63.7373046875 613 c 1
 57.7373046875 619 57.7373046875 641 63.7373046875 647 c 1
 113.737304688 646 164.737304688 645 229.737304688 645 c 27
 287.737304688 645 328.737304688 646 377.737304688 647 c 1
 383.737304688 641 383.737304688 619 377.737304688 613 c 1
 317.737304688 610 300.737304688 605 300.737304688 522 c 2
EndSplineSet
Substitution2: "LinLibertine-'c2sc' Versale nach Kapitaelchen 1" j.sc
Position2: "'cpsp' Versalabstaende 1" dx=2 dy=0 dh=5 dv=0
EndChar
StartChar: K
Encoding: 75 75 260
Width: 721
VWidth: 999
Flags: W
HStem: -2 34<19.6167 88.4056 267.594 336.383 654.311 709.23> 613 34<19.6167 88.4056 267.594 336.383 432.77 475.217 603.423 677.23>
VStem: 108 140<47 325.582 355.468 598>
AnchorPoint: "unten_punkt" 336 -110 basechar 0
AnchorPoint: "unten_anhang" 142 -1 basechar 0
AnchorPoint: "top_akzent" 330 850 basechar 0
AnchorPoint: "top_rechts" 643 732 basechar 0
LayerCount: 2
Back
SplineSet
235 351 m 1
 269.5 361.5 307.333 383.333 365 441 c 0
 400.355 476.355 409.514 489.51 440.057 525 c 0
 485.716 578.055 494.925 607.388 436 613 c 1
 430 619 430 641 436 647 c 1
 473.5 646 519 645 559 645 c 3
 593.5 645 649 646 674 647 c 1
 680 641 680 619 674 613 c 1
 584.5 604.5 533.64 562.962 480.06 504 c 2
 401 417 l 2
 386.704 401.268 385 397 385 390 c 3
 385 384.901 391.595 378.273 419 343 c 2
 628 74 l 2
 652.355 42.6533 676 36 706 32 c 1
 712 26 712 4 706 -2 c 1
 667 -1 627 0 588 0 c 3
 558 0 505 -1 485 -2 c 1
 481 -2 480.372 1.02344 480 4 c 0
 478 20 462.467 46.8896 444 74 c 2
 303 281 l 2
 283.092 308.814 267.5 322 235 329 c 1
 235 351 l 1
EndSplineSet
Refer: 258 73 N 1 0 0 1 -6 0 2
Fore
SplineSet
108 523 m 2
 108 606 80 610 25 613 c 1
 15 619 15 641 25 647 c 1
 65 646 139 645 179 645 c 0
 219 645 291 646 331 647 c 1
 341 641 341 619 331 613 c 1
 276 610 248 606 248 523 c 2
 248 355.468 l 1
 279.173 367.456 314.474 390.474 365 441 c 0
 400.355 476.355 409.514 489.51 440.057 525 c 0
 485.716 578.055 494.925 607.388 436 613 c 1
 430 619 430 641 436 647 c 1
 473.5 646 519 645 559 645 c 0
 593.5 645 649 646 674 647 c 1
 680 641 680 619 674 613 c 1
 584.5 604.5 533.64 562.962 480.06 504 c 2
 401 417 l 2
 386.704 401.268 385 397 385 390 c 0
 385 384.901 391.595 378.273 419 343 c 2
 628 74 l 2
 652.355 42.6533 676 36 706 32 c 1
 712 26 712 4 706 -2 c 1
 667 -1 627 0 588 0 c 0
 558 0 505 -1 485 -2 c 0
 481 -2 480.372 1.02344 480 4 c 0
 478 20 462.467 46.8896 444 74 c 2
 303 281 l 2
 285.946 304.826 272.06 317.918 248 325.582 c 1
 248 122 l 2
 248 39 276 35 331 32 c 1
 341 26 341 4 331 -2 c 1
 291 -1 219 0 179 0 c 0
 139 0 65 -1 25 -2 c 1
 15 4 15 26 25 32 c 1
 80 35 108 39 108 122 c 2
 108 523 l 2
EndSplineSet
Substitution2: "LinLibertine-'c2sc' Versale nach Kapitaelchen 1" k.sc
AlternateSubs2: "LinLibertine-'aalt' Alle Alternativen zeigen 1" k.sc
Position2: "'cpsp' Versalabstaende 1" dx=2 dy=0 dh=5 dv=0
EndChar
StartChar: L
Encoding: 76 76 261
Width: 577
Flags: MW
HStem: -2 34<25.6167 94.4056> 0 42<261.972 438.224> 613 34<25.6167 94.4056 273.594 342.383>
VStem: 114 140<47 598> 511 43<116.761 167.354>
AnchorPoint: "unten_punkt" 260 -110 basechar 0
AnchorPoint: "unten_anhang" 260 1 basechar 0
AnchorPoint: "mittelpunkt" 286 315 basechar 0
AnchorPoint: "top_akzent" 149 850 basechar 0
AnchorPoint: "top_rechts" 469 732 basechar 0
LayerCount: 2
Fore
SplineSet
349 42 m 22x70
 454 42 491 98 511 170 c 5
 523.402 171.776 544.229 169.686 554 165 c 5
 548 113 538 48 528 -2 c 5
 528 -2 437 0 408 0 c 6
 184.75 0 l 2
 146 0 31 -2 31 -2 c 1
 21 4 21 26 31 32 c 1
 86 35 114 39 114 122 c 2
 114 523 l 2
 114 606 86 610 31 613 c 1
 21 619 21 641 31 647 c 1
 31 647 145 645 185 645 c 0
 225 645 255 646 337 647 c 1
 347 641 347 619 337 613 c 1
 282 610 254 606 254 523 c 2
 254 121 l 2
 254 61 268 42 289 42 c 10
 349 42 l 22x70
EndSplineSet
Validated: 3105
Substitution2: "LinLibertine-'c2sc' Versale nach Kapitaelchen 1" l.sc
Position2: "'cpsp' Versalabstaende 1" dx=2 dy=0 dh=5 dv=0
EndChar
StartChar: M
Encoding: 77 77 262
Width: 899
VWidth: 999
Flags: W
HStem: -2 34<9.1958 59.3776 158.925 210.804 598.196 658.528 812.056 875.804> 613 34<53.77 121.851 775.537 840.23>
DStem2: 84.9346 121 144.027 123 0.0967101 0.995313<-65.1188 7.7055> 262 645 174.37 498 0.370465 -0.928847<104.077 478.721> 446 201 410 5 0.391398 0.920221<0 380.408> 768.3 542 637 534 0.0704962 -0.997512<-1.27604 492.32>
AnchorPoint: "unten_punkt" 393 -110 basechar 0
AnchorPoint: "unten_anhang" 107 2 basechar 0
AnchorPoint: "mittelpunkt" 426 445 basechar 0
AnchorPoint: "top_akzent" 431 850 basechar 0
LayerCount: 2
Fore
SplineSet
662.745 116 m 6
 637 534 l 5
 635 534 l 5
 410 5 l 6
 406.146 -4.06196 397 -8 391 -8 c 7
 385 -8 373.82 -2.07161 371 5 c 6
 174.37 498 l 5
 170.186 498 l 5
 144.027 123 l 6
 138.633 66.7471 144 37 210 32 c 5
 216 26 216 4 210 -2 c 5
 180 -1 120 0 96 0 c 7
 72 0 40 -1 10 -2 c 5
 4 4 4 26 10 32 c 5
 67 37 79.042 61.0938 84.9346 121 c 6
 124.967 533 l 6
 132 608 126 609 57 613 c 5
 51 619 51 641 57 647 c 13
 262 645 l 5
 441 201 l 5
 446 201 l 5
 636 645 l 5
 837 647 l 21
 843 641 843 619 837 613 c 5
 769 609 764 596 768.3 542 c 6
 798.053 121 l 6
 803.843 38.2021 807 35 875 32 c 5
 881 26 881 4 875 -2 c 5
 841.759 -1 796 0 766 0 c 7
 736 0 646 -1 599 -2 c 5
 593 4 593 26 599 32 c 5
 664 35 667.793 35 662.745 116 c 6
EndSplineSet
Validated: 3105
Substitution2: "LinLibertine-'c2sc' Versale nach Kapitaelchen 1" m.sc
Position2: "'cpsp' Versalabstaende 1" dx=2 dy=0 dh=5 dv=0
EndChar
StartChar: N
Encoding: 78 78 263
Width: 740
VWidth: 999
Flags: W
HStem: -12 21G<549.617 585.417> -2 34<20.77 89.8593 180.791 251.23> 613 34<28.77 77.2322 485.77 556.209 647.141 716.23>
VStem: 111 50<48.6827 449.993> 576 50<221.993 596.317>
DStem2: 284.125 540 192.785 430 0.647124 -0.762385<-5.74275 425.344>
AnchorPoint: "unten_punkt" 348 -110 basechar 0
AnchorPoint: "unten_anhang" 125 -4 basechar 0
AnchorPoint: "mittelpunkt" 356 320 basechar 0
AnchorPoint: "top_akzent" 346 850 basechar 0
LayerCount: 2
Back
SplineSet
102 523 m 2
 102 606 74 610 19 613 c 1
 9 619 9 641 19 647 c 1
 59 646 133 645 173 645 c 0
 213 645 285 646 325 647 c 1
 335 641 335 619 325 613 c 1
 270 610 242 606 242 523 c 2
 242 122 l 2
 242 39 270 35 325 32 c 1
 335 26 335 4 325 -2 c 1
 285 -1 213 0 173 0 c 0
 133 0 59 -1 19 -2 c 1
 9 4 9 26 19 32 c 1
 74 35 102 39 102 122 c 2
 102 523 l 2
502 523 m 2
 502 606 474 610 419 613 c 1
 409 619 409 641 419 647 c 1
 459 646 533 645 573 645 c 0
 613 645 685 646 725 647 c 1
 735 641 735 619 725 613 c 1
 670 610 642 606 642 523 c 2
 642 122 l 2
 642 39 670 35 725 32 c 1
 735 26 735 4 725 -2 c 1
 685 -1 613 0 573 0 c 0
 533 0 459 -1 419 -2 c 1
 409 4 409 26 419 32 c 1
 474 35 502 39 502 122 c 2
 502 523 l 2
210 367 m 17
 510 367 l 1
 510 319 l 1
 210 319 l 9
 210 367 l 17
EndSplineSet
Fore
SplineSet
631 0 m 17x78
 612.75 -8.75 603 -12 567.835 -12 c 1xb8
 567.835 -12 547.434 7.13477 527.755 32 c 2
 192.785 430 l 2
 182.245 442.523 173.5 450 169 450 c 3
 163 450 161 440 161 430 c 2
 161 133 l 2
 161 42 178 39 248 32 c 1
 254 26 254 4 248 -2 c 1
 198 -1 179.687 0 136 0 c 27
 92.3135 0 73 -1 24 -2 c 1
 18 4 18 26 24 32 c 1
 94 39 111 44 111 133 c 2
 111 550 l 17
 105 576 75 610 32 613 c 1
 26 619 26 641 32 647 c 9
 195 645 l 1
 284.125 540 l 2
 549.38 227.5 l 2
 563.014 211.437 576 205.5 576 231 c 2
 576 512 l 2
 576 603 559 606 489 613 c 1
 483 619 483 641 489 647 c 1
 539 646 559.753 645 605 645 c 27
 647.127 645 664 646 713 647 c 1
 719 641 719 619 713 613 c 1
 643 606 626 601 626 512 c 2
 626 102 l 2
 626 71 631 0 631 0 c 17x78
EndSplineSet
Validated: 3105
Substitution2: "LinLibertine-'c2sc' Versale nach Kapitaelchen 1" n.sc
Position2: "'cpsp' Versalabstaende 1" dx=2 dy=0 dh=5 dv=0
EndChar
StartChar: O
Encoding: 79 79 264
Width: 730
Flags: W
HStem: -10 42<308.051 450.939> 616 42<281.837 425.946>
VStem: 37 151<185.902 436.475> 543 151<200.545 457.609>
AnchorPoint: "unten_punkt" 350 -110 basechar 0
AnchorPoint: "unten_anhang" 350 0 basechar 0
AnchorPoint: "mittelpunkt" 346 322 basechar 0
AnchorPoint: "top_akzent" 335 850 basechar 0
AnchorPoint: "komb_OR" 620 606 basechar 0
LayerCount: 2
Back
SplineSet
37 319 m 3
 37 417.063 67.7725 499.461 122.952 559 c 0
 180.311 620.891 264.044 658 367 658 c 3
 537 658 694 537 694 339 c 3
 694 246.603 664.776 163.762 612.92 102 c 0
 554.774 32.748 468.432 -10 368 -10 c 3
 185 -10 37 120 37 319 c 3
380 32 m 3
 469.051 32 543 115 543 319 c 3
 543 507 457 616 347 616 c 3
 246 616 188 506.075 188 340 c 3
 188 137 272.958 32 380 32 c 3
EndSplineSet
Fore
SplineSet
694 332 m 7
 694 233.937 663.228 148.539 608.048 89 c 4
 550.689 27.1094 466.956 -10 364 -10 c 7
 195 -10 37.0001 100.087 37 309 c 5
 37 401.397 67.2236 484.238 119.08 546 c 4
 177.226 615.252 263.569 658 364 658 c 7
 559 658 694 531 694 332 c 7
351 616 m 7
 261.949 616 188 536 188 332 c 7
 188 144 274 32 384 32 c 7
 485 32 543 141.925 543 308 c 7
 543 511 458.042 616 351 616 c 7
EndSplineSet
Substitution2: "LinLibertine-'c2sc' Versale nach Kapitaelchen 1" o.sc
Position2: "'cpsp' Versalabstaende 1" dx=2 dy=0 dh=5 dv=0
EndChar
StartChar: P
Encoding: 80 80 265
Width: 614
Flags: W
HStem: -2 34<25.6167 94.4056 273.594 342.383> 277 42<293.121 398.435> 613 41<148.188 389.09> 613 34<25.6167 94.4056>
VStem: 114 140<47 598> 439 151<383.919 562.042>
AnchorPoint: "unten_punkt" 240 -110 basechar 0
AnchorPoint: "unten_anhang" 150 -3 basechar 0
AnchorPoint: "mittelpunkt" 286 464 basechar 0
AnchorPoint: "top_akzent" 277 850 basechar 0
AnchorPoint: "top_rechts" 509 732 basechar 0
LayerCount: 2
Fore
SplineSet
346 654 m 7xec
 421.014 654 476.021 642.834 513 621 c 4
 575.106 584.329 590 524.115 590 484 c 7
 590 430.936 572.668 365.951 523 325 c 4
 482.812 291.865 421.108 277 333 277 c 7
 309 277 312 278 298 280 c 5
 284 289 278 303 278 322 c 5
 292 320 313 319 328 319 c 7
 410 319 439 363 439 467 c 7
 439 589 372 613 314 613 c 7xec
 261 613 254 592 254 524 c 6
 254 122 l 6
 254 39 282 35 337 32 c 5
 347 26 347 4 337 -2 c 5
 297 -1 225 0 185 0 c 4
 145 0 71 -1 31 -2 c 5
 21 4 21 26 31 32 c 5
 86 35 114 39 114 122 c 6
 114 523 l 6
 114 606 86 610 31 613 c 5
 21 619 21 641 31 647 c 5xdc
 71 647 306 654 346 654 c 7xec
EndSplineSet
Validated: 3105
Substitution2: "LinLibertine-'c2sc' Versale nach Kapitaelchen 1" p.sc
Position2: "'cpsp' Versalabstaende 1" dx=2 dy=0 dh=5 dv=0
EndChar
StartChar: Q
Encoding: 81 81 266
Width: 730
VWidth: 999
Flags: HMW
HStem: -229 77<497.196 612.159> -124 64<243.5 323.863> -10 42<307.921 450.939> 616 42<281.337 423.901>
VStem: 37 151<190.183 438.821> 543 151<199.76 448.97>
AnchorPoint: "mittelpunkt" 336 324 basechar 0
AnchorPoint: "top_akzent" 348 850 basechar 0
AnchorPoint: "komb_OR" 620 606 basechar 0
AnchorPoint: "top_rechts" 619 732 basechar 0
LayerCount: 2
Back
SplineSet
60.0586 657.715 m 29
 584.473 657.715 l 1053
331.055 -11.7188 m 1
 313.477 -28.3203 l 1
 352.539 -33.2031 398.438 -50.7812 432.617 -75.1953 c 0
 459.473 -94.2383 481.934 -108.398 503.906 -118.652 c 0
 531.738 -131.836 559.082 -137.695 585.938 -137.695 c 0
 605.469 -137.695 642.09 -121.582 658.691 -100.098 c 1
 675.781 -107.91 l 1
 664.551 -124.023 652.832 -138.672 639.648 -151.367 c 0
 608.398 -183.105 568.848 -195.312 526.367 -195.312 c 0
 469.238 -195.312 406.25 -153.809 383.301 -136.719 c 0
 351.074 -112.305 321.289 -94.7266 292.48 -82.5195 c 0
 275.879 -75.1953 264.16 -71.7773 251.953 -71.7773 c 0
 236.816 -71.7773 195.312 -83.4961 175.293 -129.395 c 1
 165.527 -124.023 154.785 -118.652 144.531 -113.281 c 1
 169.434 -71.2891 212.891 -48.8281 232.91 -40.0391 c 0
 239.258 -37.1094 244.629 -35.1562 250 -33.6914 c 1
 282.227 -4.39453 l 1
 297.852 -7.8125 314.453 -10.2539 331.055 -11.7188 c 1
EndSplineSet
Fore
SplineSet
442 -2 m 5
 391 -13 276 -72 198 -183 c 5
 159 -153 l 5
 208 -82 325 13 433 28 c 5
 442 -2 l 5
159 -153 m 5
 191 -98 283 -60 328 -60 c 4
 438 -60 509 -152 597 -152 c 4xfc
 626 -152 662 -142 684 -115 c 5
 701 -137 l 5
 662 -193 620 -229 557 -229 c 4
 427 -229 364 -124 271 -124 c 4
 256 -124 218 -137 198 -183 c 5
 159 -153 l 5
EndSplineSet
Refer: 264 79 N 1 0 0 1 0 0 3
Substitution2: "LinLibertine-'c2sc' Versale nach Kapitaelchen 1" q.sc
Position2: "'cpsp' Versalabstaende 1" dx=2 dy=0 dh=5 dv=0
EndChar
StartChar: R
Encoding: 82 82 267
Width: 716
Flags: W
HStem: -10 42<647.495 706.501> -2 34<25.6167 94.4056 273.594 342.383 653.026 708.117> 282.992 42.008<254 346.413> 613 41<152.006 405.09> 613 34<25.6167 94.4056>
VStem: 114 140<47 282.992 325 596.869> 455 151<399.768 562.042>
AnchorPoint: "unten_punkt" 308 -110 basechar 0
AnchorPoint: "unten_anhang" 178 -1 basechar 0
AnchorPoint: "top_akzent" 319 850 basechar 0
AnchorPoint: "top_rechts" 559 732 basechar 0
LayerCount: 2
Back
SplineSet
294 122 m 6xbc
 294 39 311 34 381 31 c 5
 387 25 387 4 381 -2 c 5
 331 -1 302 0 252 0 c 31
 201 0 171 -1 122 -2 c 5
 116 4 116 25 122 31 c 5x7c
 192 34 209 39 209 122 c 6
 209 523 l 6
 209 606 192 611 122 614 c 5
 116 620 116 641 122 647 c 5
 172 646 201 645 251 645 c 23
 289 645 351 652 376 652 c 7
 439 652 501 649 549 604 c 4
 585 570 602 529 602 479 c 7
 602 374 512 322 469 308 c 5
 595 98 l 6
 621.029 54.6172 646 21 691 21 c 5
 695 13 695.494 3.91602 692 -3 c 5
 682 -8 665 -10 650 -10 c 7
 590 -10 546.655 32.4023 518 79 c 6
 411 253 l 6
 396.701 276.252 378 291 294 291 c 5
 294 122 l 6xbc
377 618 m 7
 306 618 294 583 294 554 c 6
 294 325 l 5
 342 325 l 6
 439 325 510 353 510 478 c 7
 510 596 438 618 377 618 c 7
EndSplineSet
Fore
SplineSet
362 654 m 3x36
 437.014 654 492.021 642.834 529 621 c 0
 591.106 584.329 606 524.115 606 484 c 3
 606 382 528 330 474 308 c 1
 610 98 l 2
 638 56 661 32 706 32 c 1xb6
 710 24 710.494 4.91602 707 -2 c 1x66
 697 -7 645.311 -10 605 -10 c 3xa6
 545 -10 504 34 473 79 c 2
 356 253 l 1
 341.99 275.782 333.354 282.721 254 282.992 c 1
 254 122 l 2
 254 39 282 35 337 32 c 1
 347 26 347 4 337 -2 c 1
 297 -1 225 0 185 0 c 0
 145 0 71 -1 31 -2 c 1
 21 4 21 26 31 32 c 1
 86 35 114 39 114 122 c 2
 114 523 l 2
 114 606 86 610 31 613 c 1
 21 619 21 641 31 647 c 1x6e
 71 647 322 654 362 654 c 3x36
455 467 m 3
 455 589 388 613 330 613 c 3
 277 613 254 592 254 524 c 2
 254 325 l 1
 297 325 l 2
 381 325 455 344.446 455 467 c 3
EndSplineSet
Substitution2: "LinLibertine-'c2sc' Versale nach Kapitaelchen 1" r.sc
AlternateSubs2: "LinLibertine-'aalt' Alle Alternativen zeigen 1" r.sc
Position2: "'cpsp' Versalabstaende 1" dx=2 dy=0 dh=5 dv=0
EndChar
StartChar: S
Encoding: 83 83 268
Width: 504
VWidth: 999
Flags: MW
HStem: -10 42<162.595 303.607> 617 41<194.051 315.582>
VStem: 41 125<470.704 560.454> 337 126<101.248 210.04>
AnchorPoint: "unten_punkt" 234 -110 basechar 0
AnchorPoint: "unten_anhang" 223.5 2 basechar 0
AnchorPoint: "mittelpunkt" 236.1 345 basechar 0
AnchorPoint: "top_akzent" 231.9 850 basechar 0
AnchorPoint: "top_rechts" 480.75 732 basechar 0
LayerCount: 2
Fore
SplineSet
421 631 m 5
 428 573 432 532 432 479 c 5
 421 470 396 470 382 474 c 5
 364 540 336 617 251 617 c 7
 199.844 617 166 583.009 166 527 c 3
 166 469.965 237.315 418.351 277 398 c 0
 316 378 371.975 347.119 411 304 c 0
 440.49 271.416 463 236.08 463 184 c 3
 463 122.42 430.49 76.2744 395 44.4727 c 0
 353.839 7.58984 305.217 -10 244 -10 c 3
 105.938 -10 103 10 46 10 c 1
 35 47 27 100 27 175 c 1
 43 179 60 184 77 178 c 1
 97 87 166 32 233 32 c 3
 294 32 337 65.8369 337 115 c 3
 337 171 292 211 246 243 c 0
 203.347 272.672 120.367 307.093 74 369 c 0
 51.4287 399.137 41 446.692 41 485 c 3
 41 533.621 68.7305 579.981 106 610 c 0
 147.698 643.585 206.589 658 252 658 c 7
 345 658 366 639 421 631 c 5
EndSplineSet
Validated: 3105
Substitution2: "LinLibertine-'c2sc' Versale nach Kapitaelchen 1" s.sc
Position2: "'cpsp' Versalabstaende 1" dx=2 dy=0 dh=5 dv=0
EndChar
StartChar: T
Encoding: 84 84 269
Width: 652
VWidth: 999
Flags: MW
HStem: -2 34<164.77 247.807 422.193 505.23> 604 41<92.255 252.482 417.34 557.54>
VStem: 3 39<501.917 547.732> 265 140<45.3649 595.442> 607 39<504.917 551.486>
AnchorPoint: "unten_punkt" 340 -110 basechar 0
AnchorPoint: "unten_anhang" 333 1 basechar 0
AnchorPoint: "mittelpunkt" 507 285 basechar 0
AnchorPoint: "top_akzent" 307 850 basechar 0
AnchorPoint: "top_rechts" 619 732 basechar 0
LayerCount: 2
Fore
SplineSet
405 123 m 2
 405 40 422 35 502 32 c 1
 508 26 508 4 502 -2 c 1
 452 -1 398.915 0 333 0 c 27
 268.646 0 217 -1 168 -2 c 1
 162 4 162 26 168 32 c 1
 248 35 265 40 265 123 c 2
 265 506 l 2
 265 567 255 604 218 604 c 2
 169 604 l 2
 103 604 62 579 42 499 c 1
 30 499 13 500 3 504 c 1
 14 552 24 605 28 650 c 1
 28 651 30 653 32 653 c 1
 70 650 188 645 265 645 c 2
 406 645 l 2
 485 645 596 650 630 653 c 1
 631 653 633 651 633 650 c 1
 634 605 639 553 646 507 c 1
 637 503 618 502 607 502 c 1
 590 579 548 604 473 604 c 2
 451 604 l 2
 415 604 405 567 405 503 c 2
 405 123 l 2
EndSplineSet
Substitution2: "LinLibertine-'c2sc' Versale nach Kapitaelchen 1" t.sc
Position2: "'cpsp' Versalabstaende 1" dx=2 dy=0 dh=5 dv=0
EndChar
StartChar: U
Encoding: 85 85 270
Width: 732
VWidth: 999
Flags: W
HStem: -10 42<317.802 491.729> 613 34<6.77002 72.0797 242.899 322.23 485.77 563.312 662.375 726.23>
VStem: 87 140<124.668 600.619> 581 65<145.386 598.444>
AnchorPoint: "unten_punkt" 328 -110 basechar 0
AnchorPoint: "unten_anhang" 388 -6 basechar 0
AnchorPoint: "mittelpunkt" 406 321 basechar 0
AnchorPoint: "top_akzent" 346 850 basechar 0
LayerCount: 2
Fore
SplineSet
227 522 m 2
 227 269 l 2
 227 204 229 129 278 82 c 0
 308.112 53.1172 349 32 397 32 c 3
 566 32 581 165 581 277 c 2
 581 522 l 2
 581 605 564.5 606.5 489 613 c 1
 483 619 483 641 489 647 c 1
 534.75 646 586.75 645 616 645 c 3
 643.75 645 684 646 723 647 c 1
 729 641 729 619 723 613 c 1
 664 607 646 605 646 522 c 2
 646 295 l 2
 646 117 581 -10 376 -10 c 3
 328.577 -10 236.89 -8.87832 174 32 c 0
 117.537 68.701 87 139 87 236 c 2
 87 522 l 2
 87 605 70 610 10 613 c 1
 4 619 4 641 10 647 c 1
 60 646 110.667 645 156 645 c 3
 203.667 645 270 646 319 647 c 1
 325 641 325 619 319 613 c 1
 242 610 227 605 227 522 c 2
EndSplineSet
Substitution2: "LinLibertine-'c2sc' Versale nach Kapitaelchen 1" u.sc
Position2: "'cpsp' Versalabstaende 1" dx=2 dy=0 dh=5 dv=0
EndChar
StartChar: V
Encoding: 86 86 271
Width: 700
VWidth: 999
Flags: W
HStem: -12 21G<340.167 354.167> 613 34<2.77002 67.2836 244.486 319.23 463.77 530.618 631.96 697.23>
AnchorPoint: "unten_punkt" 348 -110 basechar 0
AnchorPoint: "unten_anhang" 348 3 basechar 0
AnchorPoint: "mittelpunkt" 374 474 basechar 0
AnchorPoint: "top_akzent" 376 850 basechar 0
AnchorPoint: "top_rechts" 679 732 basechar 0
LayerCount: 2
Fore
SplineSet
594.001 543.005 m 2
 381 11 l 2
 373.638 -7.3882 361.333 -12 347 -12 c 0
 333.333 -12 320.704 -5.85252 314 11 c 2
 96.002 558.997 l 2
 78.1024 603.992 45 609 6 613 c 1
 0 619 0 641 6 647 c 1
 43 646 99 645 140 645 c 3
 179 645 279 646 316 647 c 1
 322 641 322 619 316 613 c 1
 268 610 230.695 605.547 242 573 c 2
 366 216 l 1
 381.5 171 l 1
 398 210 l 1
 535.998 565.998 l 2
 550.634 603.754 505 610 467 613 c 1
 461 619 461 641 467 647 c 1
 504 646 559 645 600 645 c 3
 631.75 645 664 646 694 647 c 1
 700 641 700 619 694 613 c 1
 650 610 618.087 603.164 594.001 543.005 c 2
EndSplineSet
Substitution2: "LinLibertine-'c2sc' Versale nach Kapitaelchen 1" v.sc
Position2: "'cpsp' Versalabstaende 1" dx=2 dy=0 dh=5 dv=0
EndChar
StartChar: W
Encoding: 87 87 272
Width: 1028
VWidth: 999
Flags: W
HStem: -12 21G<315.5 326 683.333 697.667> 613 34<6.77002 71.2047 249.033 323.23 787.77 840.94 967.491 1021.23>
DStem2: 246 573 100.002 558.997 0.324499 -0.945886<-24.4022 403.708> 364.5 184 288 11 0.324499 -0.945886<-376.26 0> 574.5 613 504.951 409.794 0.332932 -0.942951<168.458 421.128> 729.5 174 725 11 0.344982 0.938609<0 423.398>
AnchorPoint: "unten_punkt" 495 -110 basechar 0
AnchorPoint: "unten_anhang" 325 -10 basechar 0
AnchorPoint: "top_akzent" 540 850 basechar 0
AnchorPoint: "top_rechts" 979 732 basechar 0
LayerCount: 2
Back
SplineSet
-718 -12 m 0
 -751 -12 -765 5 -776 35 c 2
 -950 562 l 2
 -959 587 -977 613 -1005 613 c 2
 -1018 613 l 2
 -1025 613 -1030 616 -1030 621 c 2
 -1030 644 l 1
 -1028 646 l 1
 -1028 646 -955 645 -917 645 c 0
 -866 645 -776 646 -776 646 c 1
 -773 644 l 1
 -773 622 l 2
 -773 616 -777 613 -782 613 c 0
 -821 613 -839 609 -826 572 c 2
 -709 218 l 1
 -686 146 l 1
 -663 216 l 1
 -589 442 l 2
 -585 454 -582 467 -582 480 c 0
 -582 489 -583 498 -587 508 c 2
 -608 572 l 2
 -616 599 -634 613 -673 613 c 2
 -676 613 l 2
 -683 613 -688 616 -688 621 c 2
 -688 644 l 1
 -686 646 l 1
 -686 646 -630 645 -590 645 c 0
 -541 645 -420 646 -420 646 c 1
 -418 644 l 1
 -418 620 l 2
 -418 615 -423 613 -426 613 c 0
 -462 613 -496 611 -477 554 c 2
 -363 207 l 1
 -342 139 l 1
 -316 215 l 1
 -198 569 l 2
 -186 605 -208 613 -256 613 c 0
 -260 613 -264 617 -264 620 c 2
 -264 644 l 1
 -261 646 l 1
 -261 646 -180 645 -138 645 c 0
 -106 645 -54 646 -54 646 c 1
 -52 645 l 1
 -52 621 l 2
 -52 613 -63 613 -64 613 c 2
 -75 613 l 2
 -114 613 -125 601 -139 560 c 2
 -310 44 l 2
 -323 4 -339 -12 -367 -12 c 0
 -409 -12 -422 7 -432 39 c 2
 -541 367 l 2
 -544 376 -545 380 -547 380 c 0
 -548 380 -550 375 -551 370 c 2
 -662 33 l 2
 -671 4 -693 -12 -718 -12 c 0
EndSplineSet
Fore
SplineSet
574.5 613 m 1
 715 216 l 1
 729.5 174 l 1
 742 210 l 1
 854.997 545.493 l 2
 867.434 583.014 848 603.75 791 613 c 1
 785 619 785 641 791 647 c 1
 828 646 875 645 916 645 c 0
 950.75 645 985.25 646 1018 647 c 1
 1024 641 1024 619 1018 613 c 1
 974 610 934.443 581.608 913 522.5 c 2
 725 11 l 2
 718.309 -7.20605 704.333 -12 691 -12 c 0
 675.667 -12 665.126 -7.56787 658 11 c 2
 504.951 409.794 l 1
 355 11 l 2
 347.215 -9.70475 331 -12 321 -12 c 3
 310 -12 295.078 -9.63034 288 11 c 2
 100.002 558.997 l 2
 85.1177 602.383 49 609 10 613 c 1
 4 619 4 641 10 647 c 1
 47 646 103 645 144 645 c 3
 183 645 283 646 320 647 c 1
 326 641 326 619 320 613 c 1
 272 610 235.931 605.979 246 573 c 2
 355 216 l 1
 364.5 184 l 1
 372 210 l 1
 514.561 613 l 17
 527.5 608.75 556.25 608.75 574.5 613 c 1
EndSplineSet
Substitution2: "LinLibertine-'c2sc' Versale nach Kapitaelchen 1" w.sc
Position2: "'cpsp' Versalabstaende 1" dx=2 dy=0 dh=5 dv=0
EndChar
StartChar: X
Encoding: 88 88 273
Width: 718
VWidth: 999
Flags: W
HStem: -1 34<6.77002 80.0464 196.589 246.23 406.77 452.627 648.071 710.369> 613 34<31.631 88.656 288.414 339.23 459.77 509.12 614.004 684.23>
DStem2: 602.335 99.001 434.006 88.9912 0.521857 -0.853033<-285.847 -32.2384>
AnchorPoint: "unten_punkt" 307 -110 basechar 0
AnchorPoint: "unten_anhang" 102 0 basechar 0
AnchorPoint: "mittelpunkt" 596 345 basechar 0
AnchorPoint: "top_akzent" 372 850 basechar 0
AnchorPoint: "top_rechts" 689 732 basechar 0
LayerCount: 2
Fore
SplineSet
434.006 88.9912 m 2
 342 246 l 2
 328.464 269.1 321.667 271.333 312 258 c 0
 269.734 199.702 231 142.333 198.999 81.9971 c 0
 183.285 52.3685 198.657 35.9561 243 33 c 1
 249 27 249 5 243 -1 c 1
 203 0 144 1 121 1 c 3
 98 1 40.0195 0 10 -1 c 1
 4 5 4 27 10 33 c 1
 54.6689 37.2539 89.958 45.4365 117.779 81.0117 c 2
 282 291 l 2
 298.171 311.678 297.938 315.957 278 344 c 2
 133.665 547 l 2
 95.8955 600.121 76.9619 610 35 613 c 1
 29 619 28 641 34 647 c 1
 64 646 150 645 189 645 c 3
 229 645 296 646 336 647 c 1
 342 641 342 619 336 613 c 1
 280 610 278.735 594.27 301 557 c 2
 377.667 428.667 l 2
 389.011 409.583 395.667 402 406.667 414.667 c 0
 448.142 462.426 480 516 507 564 c 1
 522 594 507.343 610.044 463 613 c 1
 457 619 457 641 463 647 c 1
 503 646 556 645 579 645 c 3
 602 645 650.98 646 681 647 c 1
 687 641 687 619 681 613 c 1
 636.331 608.746 605.703 600.826 578.229 565 c 2
 443 388.667 l 2
 426.195 366.699 425.607 359.519 447.667 327 c 2
 602.335 99.001 l 2
 638.926 45.0615 665.038 36 707 33 c 1
 713 27 714 5 708 -1 c 1
 678 0 605 1 566 1 c 3
 526 1 450 0 410 -1 c 1
 404 5 404 27 410 33 c 1
 466 36 459.212 53.6582 434.006 88.9912 c 2
EndSplineSet
Substitution2: "LinLibertine-'c2sc' Versale nach Kapitaelchen 1" x.sc
Position2: "'cpsp' Versalabstaende 1" dx=2 dy=0 dh=5 dv=0
EndChar
StartChar: Y
Encoding: 89 89 274
Width: 624
VWidth: 999
Flags: W
HStem: -2 34<146.77 229.807 404.193 487.23> 613 34<2.63097 61.3279 223.748 274.23 411.77 465.597 559.169 622.23>
VStem: 247 140<44.9117 334.452>
AnchorPoint: "unten_punkt" 322 -110 basechar 0
AnchorPoint: "unten_anhang" 322 1 basechar 0
AnchorPoint: "top_akzent" 345 850 basechar 0
LayerCount: 2
Fore
SplineSet
387 122 m 2
 387 39 404 35 484 32 c 1
 490 26 490 4 484 -2 c 1
 434 -1 380.333 0 325 0 c 3
 256.745 0 199 -1 150 -2 c 1
 144 4 144 26 150 32 c 1
 230 35 247 39 247 122 c 2
 247 259 l 2
 247 296.047 244.518 302.527 227 332 c 2
 99.665 547 l 2
 66.4501 603.082 47.9619 610 6 613 c 1
 0 619 -1 641 5 647 c 1
 35 646 108 645 147 645 c 3
 187 645 231 646 271 647 c 1
 277 641 277 619 271 613 c 1
 215 610 214.576 594.759 236 557 c 2
 340.398 373 l 2
 349.26 357.381 355.993 356.996 362.59 370 c 2
 466 564 l 2
 482.196 594.385 459.343 610.044 415 613 c 1
 409 619 409 641 415 647 c 1
 455 646 503 645 526 645 c 3
 549 645 588.98 646 619 647 c 1
 625 641 625 619 619 613 c 1
 574.331 608.746 555.264 603.443 532.229 565 c 2
 404 351 l 2
 391.042 329.375 387 307.46 387 267.667 c 2
 387 122 l 2
EndSplineSet
Substitution2: "LinLibertine-'c2sc' Versale nach Kapitaelchen 1" y.sc
Position2: "'cpsp' Versalabstaende 1" dx=2 dy=0 dh=5 dv=0
EndChar
StartChar: Z
Encoding: 90 90 275
Width: 624
VWidth: 999
Flags: W
HStem: -8 21G<552 572> 0 44<208.684 493.191> 602 43<142.523 402.995> 633 20G<71 91>
VStem: 42 39<478.917 529.438> 563 39<126.175 174.083>
DStem2: 28 38 213 72 0.568656 0.822575<114.375 672.078>
AnchorPoint: "unten_punkt" 287 -110 basechar 0
AnchorPoint: "unten_anhang" 287 4 basechar 0
AnchorPoint: "mittelpunkt" 535 321 basechar 0
AnchorPoint: "top_akzent" 320 850 basechar 0
AnchorPoint: "top_rechts" 619 732 basechar 0
LayerCount: 2
Fore
SplineSet
429 44 m 2x6c
 495 44 543 97 563 177 c 1
 575 177 592 176 602 172 c 1
 596 111.5 583 24.5 575 -5 c 1
 575 -6 573 -8 571 -8 c 1x8c
 533 -5 415 0 338 0 c 2
 39 0 l 2
 25 0 20 5 20 15 c 0
 20 22 22.3135 29.7744 28 38 c 2
 402 579 l 2
 409 589 418 602 400 602 c 2
 209 602 l 2x6c
 143 602 101 556 81 476 c 1
 69 476 52 477 42 481 c 1
 53 529 64 605 68 650 c 1
 68 651 70 653 72 653 c 1x1c
 110 650 228 645 305 645 c 2
 506 645 l 18
 534.5 645 559 647 572 647 c 3
 585.5 647 589 642.75 589 637 c 3
 589 626.247 586.887 620.156 567 591 c 2
 213 72 l 2
 200 53 198 44 229 44 c 2
 429 44 l 2x6c
EndSplineSet
Substitution2: "LinLibertine-'c2sc' Versale nach Kapitaelchen 1" z.sc
Position2: "'cpsp' Versalabstaende 1" dx=2 dy=0 dh=5 dv=0
EndChar
StartChar: bracketleft
Encoding: 91 91 276
Width: 397
Flags: W
HStem: -193 30<244.088 345.511> 673 30<241.533 345.511>
VStem: 97 100<-135 645.875>
LayerCount: 2
Back
SplineSet
343 689 m 1
 343 638 l 1
 198 638 l 1
 198 -147 l 1
 343 -147 l 1
 343 -198 l 1
 88 -198 l 1
 88 689 l 1
 343 689 l 1
EndSplineSet
Fore
SplineSet
97 -193 m 5
 97 703 l 5
 342 703 l 1
 348 697 348 679 342 673 c 1
 205 663 197 648 197 561 c 2
 197 -50 l 2
 197 -137 204 -152 342 -163 c 1
 348 -169 348 -187 342 -193 c 1
 97 -193 l 5
EndSplineSet
Validated: 3073
Substitution2: "LinLibertine-'case' Versalformen 1" bracketleft.sc
Substitution2: "LinLibertine-'c2sc' Versale nach Kapitaelchen 1" bracketleft.sc
AlternateSubs2: "LinLibertine-'aalt' Alle Alternativen zeigen 1" bracketleft.sc
EndChar
StartChar: backslash
Encoding: 92 92 277
Width: 307
VWidth: 999
Flags: W
HStem: 678 20G<11 82.1662>
VStem: 11 295
DStem2: 76 698 11 698 0.294626 -0.955613<0 761.5>
LayerCount: 2
Fore
SplineSet
76 698 m 1
 306 -48 l 1
 241 -48 l 1
 11 698 l 1
 76 698 l 1
EndSplineSet
Validated: 3073
EndChar
StartChar: asciicircum
Encoding: 94 94 1707
Width: 518
VWidth: 999
Flags: W
HStem: 346 304
VStem: 112 295
DStem2: 112 346 169 346 0.385477 0.922717<21.9722 262.431> 281 650 259 569 0.382889 -0.923795<66.4038 307.253>
LayerCount: 2
Fore
SplineSet
259 569 m 1
 169 346 l 1
 112 346 l 1
 239 650 l 1
 281 650 l 1
 407 346 l 1
 350 346 l 1
 259 569 l 1
EndSplineSet
Validated: 3073
EndChar
StartChar: underscore
Encoding: 95 95 280
Width: 486
VWidth: 999
Flags: W
HStem: -154 51<5 482>
LayerCount: 2
Fore
SplineSet
482 -103 m 5
 482 -154 l 1
 5 -154 l 1
 5 -103 l 5
 482 -103 l 5
EndSplineSet
Validated: 3073
EndChar
StartChar: a
Encoding: 97 97 281
Width: 506
Flags: W
HStem: -10 70<351 458.925> -10 60<147.94 232.195> 402 42<171.423 262.805>
VStem: 44 120<61.088 156.955> 61.5498 113.9<297.459 383.465> 290 126<69.7837 218 257 374.933>
AnchorPoint: "unten_punkt" 196 -110 basechar 0
AnchorPoint: "unten_anhang" 167 -3 basechar 0
AnchorPoint: "ogonek" 410 16 basechar 0
AnchorPoint: "top_akzent" 209 645 basechar 0
LayerCount: 2
Fore
SplineSet
290 218 m 5x74
 238 201 l 6
 167.34 177.9 164 147.054 164 110 c 7
 164 76 182 50 222 50 c 7
 237.508 50 261 61.5 290 86 c 5
 290 218 l 5x74
295.203 48.5449 m 5
 289 48 l 5
 273.364 35.681 251.743 22.7057 231 11.0441 c 4
 207.549 -2.13985 180.5 -10 161 -10 c 7
 134.88 -10 107.579 -5.41406 88 7 c 4
 59.5176 25.0596 44 53.3299 44 95 c 7x74
 44 174 117.58 202.958 223 236 c 6
 290 257 l 5
 290 384 255 402 213 402 c 7
 179.5 402 172.363 390.365 170.85 379.25 c 4
 168.5 362 175.45 345.15 175.45 331.95 c 4
 175.45 307.75 148.604 285.75 113.25 285.75 c 7
 73.6504 285.75 61.5498 307.75 61.5498 336.35 c 7
 61.5498 402.35 174 444 247 444 c 7
 329 444 418 415 418 271 c 13
 416 127 l 21
 416 78 422 60 444 60 c 7
 463.026 60 473 64 486 74 c 5
 497.5 65.75 501.75 57.75 504 46 c 5
 467 11 428.326 -10 373 -10 c 7xac
 329 -10 302 8 295.203 48.5449 c 5
EndSplineSet
Substitution2: "LinLibertine-'sinf' Wissenschaftliche Indices 1" a.inferior
Substitution2: "LinLibertine-'sups' Hochgestellte 1" a.superior
Substitution2: "LinLibertine-'smcp' Gemeine nach Kapitaelchen 1" a.sc
AlternateSubs2: "LinLibertine-'aalt' Alle Alternativen zeigen 1" a.sc
EndChar
StartChar: b
Encoding: 98 98 282
Width: 558
Flags: W
HStem: -12 42<216.715 328.172> 371 71<270.438 382> 640 32<3.14355 63.8851> 678 20G<172.5 195.5>
VStem: 74 130<45.3411 357.076 386 633.241> 378 140<140.718 335.274>
AnchorPoint: "top_akzent" 302 646 basechar 0
AnchorPoint: "unten_anhang" 156 9 basechar 0
AnchorPoint: "unten_punkt" 274 -110 basechar 0
AnchorPoint: "mittelpunkt" 282 215 basechar 0
AnchorPoint: "top_rechts" 420 580 basechar 0
LayerCount: 2
Fore
SplineSet
204 348 m 5
 204 64 l 5
 222.667 41.333 257.333 32 282 32 c 7
 334.681 32 378 94.9512 378 220 c 7
 378 277.25 369.5 321 351.667 345.333 c 4
 338.667 363.071 315 373 292 373 c 7
 268.5 373 236.667 368 204 348 c 5
204 388 m 5
 222.5 400 253.535 415.944 283 427.667 c 4
 305.39 436.575 333 444 369 444 c 7
 395 444 436.5 436 469 400 c 4
 501.735 363.74 518 309.847 518 253 c 7
 518 89.9443 397 -10 276 -10 c 7
 230.374 -10 187.5 2.5 144 32 c 5
 130.667 14.3333 115 -2 102 -13 c 1
 91 -13 80 -10 68 -6 c 1
 72 32 74 44 74 127 c 2
 74 565 l 2
 74 633.588 69 635 6 640 c 1
 1 649 0 660 3 672 c 1
 74 675 154 686 191 698 c 1
 200 698 207 694 207 685 c 2
 207 685 204 648 204 583 c 2
 204 388 l 5
EndSplineSet
Substitution2: "LinLibertine-'sinf' Wissenschaftliche Indices 1" b.inferior
Substitution2: "LinLibertine-'sups' Hochgestellte 1" b.superior
Substitution2: "LinLibertine-'smcp' Gemeine nach Kapitaelchen 1" b.sc
AlternateSubs2: "LinLibertine-'aalt' Alle Alternativen zeigen 1" b.sc
EndChar
StartChar: c
Encoding: 99 99 283
Width: 456
Flags: W
HStem: -10 72<234.041 330.134> 402 42<205.102 288.383>
VStem: 37 135<130.634 307.849> 305 117<296.764 386.24>
AnchorPoint: "top_rechts" 490 580 basechar 0
AnchorPoint: "komb_OR" 500 466 basechar 0
AnchorPoint: "unten_punkt" 236 -110 basechar 0
AnchorPoint: "unten_anhang" 242 -2 basechar 0
AnchorPoint: "ogonek" 361 42 basechar 0
AnchorPoint: "mittelpunkt" 236 215 basechar 0
AnchorPoint: "top_akzent" 242 645 basechar 0
LayerCount: 2
Back
SplineSet
351 120 m 2xbe
 351 563 l 2
 351 632 346 633 283 638 c 1
 278 647 277 660 280 672 c 1
 351 675 431 686 468 698 c 1
 477 698 484 694 484 685 c 1
 484 685 481 648 481 583 c 2
 481 133 l 2
 481 76 491.519 60.0684 546 55 c 1
 548 49 550 29 548 23 c 1x7e
 479 14 419 0 382 -10 c 1
 368 -10 359.848 -4.97559 359 7 c 2
 359 7 351 71 351 120 c 2xbe
390 411 m 1
 356 359 l 1
 330 399 304 402 276 402 c 3
 245.674 402 218.525 386.109 202 359 c 0
 183.105 328.005 177 282.344 177 229 c 3
 177 112 216 56 266 56 c 3
 278 56 333 79 353 96 c 1
 357 48 l 1
 346 48 l 1
 325 34 251 -10 224 -10 c 3xbe
 168.167 -10 143 4 107 32 c 0
 58.3662 69.8262 37 138.5 37 198 c 3
 37 331 150 444 279 444 c 3
 333 444 370 428 390 411 c 1
EndSplineSet
Fore
SplineSet
422 87 m 1
 384 32 306 -10 246 -10 c 3
 185.294 -10 135.5 5 99 42 c 0
 61.6163 79.8958 37 136.415 37 201 c 3
 37 349 141 444 259 444 c 3
 368 444 422 385 422 340 c 3
 422 309 399 284 367 284 c 3
 335 284 308 304 305 331 c 0
 302 363 287 402 250 402 c 3
 197 402 172 347 172 236 c 3
 172 115.983 231 62 306 62 c 3
 335 62 360.5 74.5 400.5 111.5 c 1
 410 110.5 421 99 422 87 c 1
EndSplineSet
Substitution2: "LinLibertine-'sinf' Wissenschaftliche Indices 1" c.inferior
Substitution2: "LinLibertine-'sups' Hochgestellte 1" c.superior
Substitution2: "LinLibertine-'smcp' Gemeine nach Kapitaelchen 1" c.sc
AlternateSubs2: "LinLibertine-'aalt' Alle Alternativen zeigen 1" c.sc
EndChar
StartChar: d
Encoding: 100 100 284
Width: 561
Flags: W
HStem: -10 74<193 287.665> 23 32<498.156 547.438> 402 42<219.765 348.876> 638 34<280.144 340.885> 678 20G<449.5 472.5>
VStem: 37 140<106.213 306.711> 351 130<79.2183 391.711 434 631.337>
AnchorPoint: "unten_punkt" 271 -110 basechar 0
AnchorPoint: "ogonek" 312 23 basechar 0
AnchorPoint: "mittelpunkt" 266 215 basechar 0
AnchorPoint: "top_akzent" 218 645 basechar 0
AnchorPoint: "komb_OR" 500 466 basechar 0
AnchorPoint: "top_rechts" 490 580 basechar 0
LayerCount: 2
Fore
SplineSet
351 92 m 5xbe
 351 380 l 5
 329 396 298 402 273 402 c 7
 217 402 177 352 177 234 c 7
 177 133 194 64 278 64 c 7
 302 64 318 72 351 92 c 5xbe
354 54 m 5
 336 42 305 21 277 6 c 4
 262 -2 240 -10 214 -10 c 7xbe
 172 -10 123 13 90 50 c 4
 56 88 37 139 37 196 c 7
 37 273 61 329 102 372 c 4
 148 420 203 444 279 444 c 7
 304 444 328 442 351 434 c 5
 351 563 l 6
 351 632 346 633 283 638 c 5
 278 647 277 660 280 672 c 5
 351 675 431 686 468 698 c 5
 477 698 484 694 484 685 c 5
 484 685 481 648 481 583 c 6
 481 133 l 6
 481 76 492 60 546 55 c 5
 548 49 550 29 548 23 c 5x7e
 479 14 419 0 382 -10 c 5
 368 -10 360 -5 359 7 c 6
 359 7 356 27 354 54 c 5
EndSplineSet
Substitution2: "LinLibertine-'sinf' Wissenschaftliche Indices 1" d.inferior
Substitution2: "LinLibertine-'sups' Hochgestellte 1" d.superior
Substitution2: "LinLibertine-'smcp' Gemeine nach Kapitaelchen 1" d.sc
AlternateSubs2: "LinLibertine-'aalt' Alle Alternativen zeigen 1" d.sc
EndChar
StartChar: e
Encoding: 101 101 285
Width: 489
Flags: W
HStem: -10 86<221.672 346.806> 235 42<176 314.939> 402 42<211.038 294.351>
VStem: 37 135<127.941 235 277 300.984> 315 127<255 366.526>
AnchorPoint: "unten_punkt" 239.15 -110 basechar 0
AnchorPoint: "unten_anhang" 246 -3 basechar 0
AnchorPoint: "ogonek" 389.3 41 basechar 0
AnchorPoint: "mittelpunkt" 241 215 basechar 0
AnchorPoint: "top_akzent" 247.55 645 basechar 0
AnchorPoint: "komb_OR" 425 396 basechar 0
LayerCount: 2
Fore
SplineSet
426 124 m 5
 438 122 445 111 446 98 c 5
 396 25 322 -10 253 -10 c 7
 182 -10 143 6 105 40 c 4
 62 79 37 139 37 198 c 7
 37 351 157 444 262 444 c 7
 409 444 442 351 442 266 c 7
 442 244 439 235 423 235 c 6
 172 235 l 5
 172 230 172 226 172 219 c 7
 172 121 220 76 298 76 c 7
 336 76 385 82 426 124 c 5
176 277 m 5
 313 277 l 5
 315 279 315 301 315 307 c 7
 315 382 278 402 251 402 c 7
 197 402 177 324 176 277 c 5
EndSplineSet
Substitution2: "LinLibertine-'sinf' Wissenschaftliche Indices 1" e.inferior
Substitution2: "LinLibertine-'sups' Hochgestellte 1" e.superior
Substitution2: "LinLibertine-'smcp' Gemeine nach Kapitaelchen 1" e.sc
AlternateSubs2: "LinLibertine-'aalt' Alle Alternativen zeigen 1" e.sc
EndChar
StartChar: f
Encoding: 102 102 286
Width: 391
VWidth: 999
Flags: W
HStem: -2 34<19.77 83.2627 246.737 310.23> 384 50<28.2324 100 230 345.992> 656 42<250.189 365>
VStem: 100 130<44.1813 384 434 570.265> 323 123<580.925 649.988>
AnchorPoint: "unten_punkt" 164 -110 basechar 0
AnchorPoint: "mittelpunkt" 328 215 basechar 0
AnchorPoint: "top_rechts" 442 750 basechar 0
LayerCount: 2
Fore
SplineSet
230 384 m 1
 230 128 l 2
 230 44 246 35 307 32 c 1
 313 26 313 4 307 -2 c 1
 264 -1 220 0 165 0 c 27
 110 0 65 -1 23 -2 c 1
 17 4 17 26 23 32 c 1
 84 35 100 44 100 126 c 2
 100 384 l 1
 22 384 l 17
 19 386 17 389 17 394 c 1
 23 409 43 431 50 434 c 9
 100 434 l 1
 100 454 l 2
 100 557 138 613 178 650 c 0
 216 685 266 698 322 698 c 3
 408 698 446 653 446 626 c 3
 446 593 411 562 386 562 c 3
 346 562 332 584 323 617 c 0
 317 641 300 656 283 656 c 3
 261 656 230 640 230 515 c 2
 230 434 l 1
 351 434 l 1
 359 422 353 392 339 384 c 9
 230 384 l 1
EndSplineSet
Substitution2: "LinLibertine-'sinf' Wissenschaftliche Indices 1" f.inferior
Substitution2: "LinLibertine-'sups' Hochgestellte 1" f.superior
Substitution2: "LinLibertine-'smcp' Gemeine nach Kapitaelchen 1" f.sc
AlternateSubs2: "LinLibertine-'aalt' Alle Alternativen zeigen 1" f.sc
EndChar
StartChar: g
Encoding: 103 103 287
Width: 521
Flags: W
HStem: -238 42<167.292 334.748> -25 94<145.186 359.66> 141 42<190.161 274.543> 402 42<180.08 268.928> 440 48<368.438 467.5>
VStem: 11 109<-152.045 -70.0903> 46 121<211.634 362.856> 46 97<48 120.366> 289 123<220.06 373.081> 400 101<-121.748 -25.5>
AnchorPoint: "unten_punkt" 229 -319 basechar 0
AnchorPoint: "mittelpunkt" 227 285 basechar 0
AnchorPoint: "top_akzent" 231 645 basechar 0
AnchorPoint: "top_rechts" 492 580 basechar 0
LayerCount: 2
Back
SplineSet
390.137 281.738 m 4xbac0
 390.137 233.398 372.559 196.777 336.914 166.992 c 4
 305.664 141.113 270.02 126.953 225.098 126.953 c 4
 187.988 126.953 158.203 133.789 135.254 147.461 c 5
 123.535 130.371 117.676 111.816 117.676 91.7969 c 4
 117.676 69.8242 125.977 55.1758 141.113 46.3867 c 4
 152.832 40.0391 165.527 37.5977 179.199 37.5977 c 4xd9c0
 185.547 37.5977 190.918 38.0859 196.777 39.0625 c 4
 227.051 42.9688 252.441 44.4336 274.902 44.4336 c 4
 288.086 44.4336 299.805 43.9453 310.059 42.9688 c 4
 358.887 38.5742 393.066 26.3672 415.527 6.34766 c 4
 443.359 -18.5547 457.52 -41.5039 457.52 -74.2188 c 4
 457.52 -129.883 421.875 -171.875 368.652 -198.242 c 4
 297.852 -233.398 238.77 -238.281 187.012 -238.281 c 4
 147.949 -238.281 96.1914 -223.633 70.8008 -201.172 c 4
 48.8281 -181.641 34.1797 -159.668 34.1797 -125 c 4xbcc0
 34.1797 -98.6328 45.8984 -74.707 68.8477 -44.4336 c 4
 80.0781 -29.7852 94.7266 -16.6016 110.84 -6.83594 c 5
 97.6562 0 90.8203 6.34766 83.0078 17.5781 c 4
 72.7539 31.7383 68.3594 47.8516 68.3594 66.4062 c 4xb9c0
 68.3594 100.586 83.4961 141.602 110.352 166.016 c 5
 99.1211 176.758 92.2852 185.547 84.9609 196.777 c 4
 68.8477 222.168 59.082 249.023 59.082 286.133 c 4
 59.082 335.938 76.6602 371.582 112.305 402.832 c 4
 141.113 428.223 178.223 443.359 225.586 443.359 c 4
 282.715 443.359 312.5 426.758 327.148 415.527 c 6
 328.125 414.551 l 5
 335.449 424.316 335.938 425.293 347.656 434.082 c 4
 360.84 443.848 374.512 450.195 387.695 455.078 c 4
 401.367 459.473 413.086 461.914 423.828 461.914 c 4
 436.035 461.914 445.312 458.008 452.637 451.66 c 4
 460.449 443.848 463.379 436.035 463.379 427.246 c 4
 463.379 417.48 460.449 409.668 454.102 403.32 c 4
 448.242 397.461 440.918 394.531 432.617 394.531 c 4
 419.922 394.531 410.645 398.926 405.273 409.668 c 4
 400.879 418.457 395.508 421.387 389.648 421.387 c 4
 383.789 421.387 375.488 417.969 364.746 410.645 c 4
 351.562 401.855 351.074 400.391 348.145 396.484 c 5
 376.465 366.211 390.137 329.59 390.137 281.738 c 4xbac0
89.8438 -104.98 m 4xdcc0
 89.8438 -145.02 105.957 -170.898 142.09 -185.059 c 4
 164.551 -194.336 185.547 -201.172 215.332 -201.172 c 4
 270.02 -201.172 317.871 -188.965 352.051 -172.363 c 4
 389.648 -153.32 409.668 -131.836 409.668 -100.098 c 4
 409.668 -74.2188 390.137 -56.6406 346.191 -35.6445 c 4
 314.941 -20.0195 270.996 -15.1367 223.633 -15.1367 c 6xbcc0
 166.504 -17.5781 l 6
 151.855 -17.5781 143.066 -17.5781 129.395 -14.6484 c 5
 115.723 -26.3672 105.469 -40.0391 98.6328 -56.6406 c 4
 92.2852 -70.8008 89.8438 -84.9609 89.8438 -104.98 c 4xdcc0
217.285 416.992 m 4
 185.059 416.992 158.203 402.344 141.113 363.77 c 4
 135.254 350.098 128.906 334.473 128.906 295.41 c 4x9ac0
 128.906 257.324 137.207 225.586 155.762 194.824 c 4
 170.41 170.898 193.359 155.273 229.98 155.273 c 4
 260.254 155.273 284.668 168.457 301.758 199.219 c 4
 317.383 229.004 318.359 259.277 318.359 278.32 c 4
 318.359 312.012 312.5 338.867 299.805 363.77 c 4
 280.273 398.438 253.906 416.992 217.285 416.992 c 4
EndSplineSet
Fore
SplineSet
468 391 m 3xea
 443 391 428 407 422 425 c 0
 419 434 412 440 403 440 c 3
 393 440 370 429 352 412 c 1
 386 384 412 357 412 301 c 3
 412 197 330 141 228 141 c 3
 197 141 168 146 158 150 c 1
 150 139 143 126 143 106 c 3xe980
 143 76 157 69 188 69 c 3
 322 69 376 66 408 57 c 0
 463 42 501 4 501 -55 c 3
 501 -165 342 -238 203 -238 c 3
 140 -238 80 -228 50 -201 c 0
 26 -180 11 -148 11 -106 c 3xec40
 11 -89 61 -36 98 -10 c 1
 72 0 46 28 46 68 c 3xe9
 46 88 58 129 123 164 c 1
 88 176 46 223 46 286 c 3
 46 337 73 386 114 412 c 0
 147 433 189 444 232 444 c 3xf2
 277 444 301 440 319 430 c 1
 349 462 402 488 446 488 c 3
 489 488 514 459 514 440 c 3
 514 418 491 391 468 391 c 3xea
175 -25 m 3
 161 -25 140 -22 131 -19 c 1
 120 -39 120 -52 120 -86 c 3
 120 -147 164 -196 241 -196 c 3
 279 -196 320 -193 351 -175 c 0
 384 -157 400 -132 400 -91 c 3xe440
 400 -28 252 -25 175 -25 c 3
289 288 m 3xf280
 289 367 270 402 223 402 c 3
 184 402 167 385 167 306 c 3
 167 233 182 183 236 183 c 3
 262 183 289 192 289 288 c 3xf280
EndSplineSet
Substitution2: "LinLibertine-'sinf' Wissenschaftliche Indices 1" g.inferior
Substitution2: "LinLibertine-'sups' Hochgestellte 1" g.superior
Substitution2: "LinLibertine-'smcp' Gemeine nach Kapitaelchen 1" g.sc
AlternateSubs2: "LinLibertine-'aalt' Alle Alternativen zeigen 1" g.sc
EndChar
StartChar: h
Encoding: 104 104 288
Width: 619
Flags: W
HStem: -2 34<19.77 83.2627 243.609 290.23 337.77 384.004 544.737 608.23> 370 74<318.782 439> 640 32<29.1436 89.8851> 678 20G<198.5 221.5>
VStem: 100 130<44.1062 345.086 374 633.337> 398 130<44.1813 351.535>
AnchorPoint: "unten_punkt" 259 -110 basechar 0
AnchorPoint: "ogonek" 423 10 basechar 0
AnchorPoint: "mittelpunkt" 264 215 basechar 0
AnchorPoint: "top_akzent" 299 645 basechar 0
AnchorPoint: "top_rechts" 429 580 basechar 0
LayerCount: 2
Back
SplineSet
528 128 m 2xf6
 528 44 544 35 605 32 c 1
 611 26 611 4 605 -2 c 1
 562 -1 518.386 0 463 0 c 27
 415.414 0 383 -1 341 -2 c 1
 335 4 335 26 341 32 c 1
 382 35 398 44 398 128 c 2
 398 265 l 2
 398 352 368 370 328 370 c 3
 298.996 370 264 352.333 227 331 c 1
 227 372 l 17
 250.238 387.54 295.667 412.333 326.333 426.493 c 0
 349.966 437.405 373.333 444 396 444 c 3
 482 444 528 394 528 284 c 2
 528 128 l 2xf6
100 127 m 2xfa
 100 565 l 2
 100 633.588 95 635 32 640 c 1
 27 649 26 660 29 672 c 1
 100 675 180 686 217 698 c 1
 226 698 233 694 233 685 c 1
 233 685 230 648 230 583 c 2
 230 127 l 2
 230 44 245 35 287 32 c 1
 293 26 293 4 287 -2 c 1
 244 -1 212.586 0 165 0 c 27
 109.614 0 65 -1 23 -2 c 1
 17 4 17 26 23 32 c 1
 84 35 100 44 100 127 c 2xfa
EndSplineSet
Fore
SplineSet
100 127 m 2
 100 565 l 2
 100 634 95 635 32 640 c 1
 27 649 26 660 29 672 c 1
 100 675 180 686 217 698 c 1
 226 698 233 694 233 685 c 2
 233 685 230 648 230 583 c 2
 230 374 l 1
 254 390 297 412 326 426 c 0
 350 437 373 444 396 444 c 0
 482 444 528 394 528 284 c 2
 528 128 l 2
 528 44 544 35 605 32 c 1
 611 26 611 4 605 -2 c 1
 562 -1 518 0 463 0 c 0
 415 0 383 -1 341 -2 c 1
 335 4 335 26 341 32 c 1
 382 35 398 44 398 128 c 2
 398 265 l 2
 398 352 368 370 328 370 c 0
 300 370 266 354 230 333 c 1
 230 127 l 2
 230 44 245 35 287 32 c 1
 293 26 293 4 287 -2 c 1
 244 -1 213 0 165 0 c 0
 110 0 65 -1 23 -2 c 1
 17 4 17 26 23 32 c 1
 84 35 100 44 100 127 c 2
EndSplineSet
Substitution2: "LinLibertine-'salt' Stilistische Alternativformen 1" h.alt
Substitution2: "LinLibertine-'sinf' Wissenschaftliche Indices 1" h.inferior
Substitution2: "LinLibertine-'sups' Hochgestellte 1" h.superior
Substitution2: "LinLibertine-'smcp' Gemeine nach Kapitaelchen 1" h.sc
AlternateSubs2: "LinLibertine-'aalt' Alle Alternativen zeigen 1" h.sc h.alt
EndChar
StartChar: i
Encoding: 105 105 289
Width: 322
Flags: HW
HStem: -2 34<26.77 89.8255 244.175 307.23> 384 32<35.5625 87.8438> 424 20<198.5 220> 528 131<113.375 212.698>
VStem: 95 138<548.43 640.955> 102 130<41.4929 375.312>
AnchorPoint: "unten_punkt" 136 -110 basechar 0
AnchorPoint: "unten_anhang" 137 12 basechar 0
AnchorPoint: "ogonek" 209 10 basechar 0
AnchorPoint: "mittelpunkt" 142 215 basechar 0
AnchorPoint: "top_akzent" 137 795 basechar 0
LayerCount: 2
Back
SplineSet
-193 654 m 1
 438 654 l 1
 438 535 l 1
 -193 535 l 1
 -193 654 l 1
-193 649 m 1
 438 649 l 1
 438 540 l 1
 -193 540 l 1
 -193 649 l 1
EndSplineSet
Fore
Refer: 419 305 N 1 0 0 1 0 0 3
Refer: 664 729 N 1 0 0 1 5 0 2
Substitution2: "LinLibertine-'sinf' Wissenschaftliche Indices 1" i.inferior
Substitution2: "LinLibertine-'sups' Hochgestellte 1" i.superior
Substitution2: "'smcp' Gemeine nach Kapitaelchen i > idotaccent.sc" idotaccent.sc
Substitution2: "'smcp' Gemeine nach Kapitaelchen i > i.sc 1" i.sc
AlternateSubs2: "LinLibertine-'aalt' Alle Alternativen zeigen 1" i.sc
EndChar
StartChar: j
Encoding: 106 106 290
Width: 312
VWidth: 999
Flags: W
HStem: -232.15 57.2<-14.8999 92.3405> 382 34<35.6452 91.2285> 528 131<111.375 210.698>
VStem: 93 138<548.43 640.955> 102 130<-88.9215 373.871>
AnchorPoint: "unten_punkt" 109 -319 basechar 0
AnchorPoint: "mittelpunkt" 154 215 basechar 0
LayerCount: 2
Back
SplineSet
-101 -164 m 7
 -101 -125 -67 -93 -27 -93 c 7
 13 -93 45 -123 45 -162 c 7
 45 -200 11 -232 -29 -232 c 7
 -69 -232 -101 -202 -101 -164 c 7
EndSplineSet
Fore
Refer: 1723 567 N 1 0 0 1 0 0 3
Refer: 664 729 N 1 0 0 1 3 0 2
Substitution2: "LinLibertine-'sinf' Wissenschaftliche Indices 1" j.inferior
Substitution2: "LinLibertine-'sups' Hochgestellte 1" j.superior
Substitution2: "LinLibertine-'smcp' Gemeine nach Kapitaelchen 1" j.sc
AlternateSubs2: "LinLibertine-'aalt' Alle Alternativen zeigen 1" j.sc idotaccent.sc
EndChar
StartChar: k
Encoding: 107 107 291
Width: 592
Flags: W
HStem: -2 34<19.77 83.2627 243.011 280.23 524.016 581.23> 209 42<230 265.511> 402 34<317.77 376.243 489.569 556.23> 640 32<29.1436 89.8851> 678 20G<198.5 221.5>
VStem: 100 130<44.5293 209 251 633.337>
AnchorPoint: "unten_punkt" 290.088 -214.41 basechar 0
AnchorPoint: "unten_anhang" 107.928 -57.3291 basechar 0
AnchorPoint: "top_akzent" 305.928 783.511 basechar 0
AnchorPoint: "top_rechts" 535.607 696.391 basechar 0
LayerCount: 2
Back
SplineSet
100 127 m 2
 100 565 l 2
 100 633.588 95 635 32 640 c 1
 27 649 26 660 29 672 c 1
 100 675 180 686 217 698 c 1
 226 698 233 694 233 685 c 1
 233 685 230 648 230 583 c 2
 230 127 l 2
 230 44 246.5 35.5 277 32 c 1
 283 26 283 4 277 -2 c 1
 253 -1 208.687 0 165 0 c 27
 109.614 0 65 -1 23 -2 c 1
 17 4 17 26 23 32 c 1
 84 35 100 44 100 127 c 2
EndSplineSet
Fore
SplineSet
100 127 m 2
 100 565 l 2
 100 634 95 635 32 640 c 1
 27 649 26 660 29 672 c 1
 100 675 180 686 217 698 c 1
 226 698 233 694 233 685 c 2
 233 685 230 648 230 583 c 2
 230 251 l 5
 260 251 284 259 297 269 c 4
 319 286 343 319 365 349 c 4
 374 361 378 371 378 378 c 4
 378 394 358 399 321 402 c 5
 315 408 315 430 321 436 c 5
 358 435 405 434 442 434 c 4
 468 434 531 435 553 436 c 5
 559 430 559 408 553 402 c 5
 477 394 449 361 418 324 c 6
 368 265 l 6
 364 260 366 252 371 245 c 6
 497 78 l 6
 526 39 539 36 578 32 c 5
 584 26 584 4 578 -2 c 5
 541 -1 495 0 454 0 c 4
 419 0 374 -2 374 -2 c 5
 372 0 l 5
 369 26 361 48 344 78 c 4
 326 110 300 148 274 179 c 4
 262 193 248 209 230 209 c 5
 230 127 l 2
 230 44 247 36 277 32 c 1
 283 26 283 4 277 -2 c 1
 253 -1 209 0 165 0 c 0
 110 0 65 -1 23 -2 c 1
 17 4 17 26 23 32 c 1
 84 35 100 44 100 127 c 2
EndSplineSet
Substitution2: "LinLibertine-'sinf' Wissenschaftliche Indices 1" k.inferior
Substitution2: "LinLibertine-'sups' Hochgestellte 1" k.superior
Substitution2: "LinLibertine-'smcp' Gemeine nach Kapitaelchen 1" k.sc
AlternateSubs2: "LinLibertine-'aalt' Alle Alternativen zeigen 1" k.sc
EndChar
StartChar: l
Encoding: 108 108 1963
Width: 325
VWidth: 999
Flags: W
HStem: -2 34<19.77 83.2627 246.737 310.23> 640 32<29.1436 89.8851> 678 20G<198.5 221.5>
VStem: 100 130<44.1062 633.241>
AnchorPoint: "unten_punkt" 135 -110 basechar 0
AnchorPoint: "unten_anhang" 131 10 basechar 0
AnchorPoint: "mittelpunkt" 136 215 basechar 0
AnchorPoint: "top_akzent" 125 885 basechar 0
AnchorPoint: "top_rechts" 249 733 basechar 0
LayerCount: 2
Fore
SplineSet
100 127 m 2
 100 565 l 2
 100 633.588 95 635 32 640 c 1
 27 649 26 660 29 672 c 1
 100 675 180 686 217 698 c 1
 226 698 233 694 233 685 c 5
 233 685 230 648 230 583 c 2
 230 127 l 2
 230 44 246 35 307 32 c 1
 313 26 313 4 307 -2 c 1
 264 -1 220.386 0 165 0 c 27
 109.614 0 65 -1 23 -2 c 1
 17 4 17 26 23 32 c 1
 84 35 100 44 100 127 c 2
EndSplineSet
Validated: 3105
Substitution2: "LinLibertine-'sinf' Wissenschaftliche Indices 1" l.inferior
Substitution2: "LinLibertine-'sups' Hochgestellte 1" l.superior
Substitution2: "LinLibertine-'smcp' Gemeine nach Kapitaelchen 1" l.sc
AlternateSubs2: "LinLibertine-'aalt' Alle Alternativen zeigen 1" l.sc
EndChar
StartChar: m
Encoding: 109 109 293
Width: 905
Flags: W
HStem: -2 34<22.77 85.8255 237.539 283.23 328.77 375.004 533.382 579.23 619.77 666.004 826.737 890.23> 370 74<316.25 410.079 605.211 716.055> 379 32<31.5625 83.817>
VStem: 98 130<41.4929 346.489> 389 130<41.5449 338.524> 680 130<44.1813 351.585>
CounterMasks: 1 1c
AnchorPoint: "unten_punkt" 457 -110 basechar 0
AnchorPoint: "unten_anhang" 157 9 basechar 0
AnchorPoint: "top_akzent" 422 645 basechar 0
LayerCount: 2
Back
SplineSet
228 122 m 2xd6
 228 39 238 36 280 32 c 1
 286 26 286 4 280 -2 c 1
 237 -1 208.637 0 163 0 c 27
 109.564 0 68 -1 26 -2 c 1
 20 4 20 26 26 32 c 1
 87 37 98 39 98 122 c 2
 98 309 l 2
 98 366 87.4814 373.932 33 379 c 1
 31 385 29 405 31 411 c 1xb6
 100 420 160 434 197 444 c 1
 211 444 218.896 439.375 220 427 c 2
 220 427 228 387 228 337.333 c 2
 228 122 l 2xd6
221.489 371.846 m 1
 251.337 389.792 283.964 407.574 315.5 421.727 c 0
 344.753 434.855 370.333 444 392 444 c 3
 450.5 444 489.5 415 504.822 371.467 c 1
 536.652 390.494 573.471 409.604 609 424.068 c 0
 638.146 435.934 663.331 444 684 444 c 3
 770 444 810 394 810 284 c 2
 810 128 l 2
 810 44 826 35 887 32 c 1
 893 26 893 4 887 -2 c 1
 844 -1 800 0 745 0 c 0
 697 0 665 -1 623 -2 c 1
 617 4 617 26 623 32 c 1
 664 35 680 44 680 128 c 2
 680 270 l 2
 680 352 652 370 612 370 c 3
 595.914 370 553.062 358.403 515.431 338.792 c 1
 517.5 328.5 519 308.548 519 284 c 2
 519 128 l 2
 519 44 536 35 576 32 c 1
 582 26 582 4 576 -2 c 1
 533 -1 502 0 454 0 c 0
 406 0 374 -1 332 -2 c 1
 326 4 326 26 332 32 c 1
 373 35 389 44 389 128 c 2
 389 270 l 2
 389 352 359 370 319 370 c 3
 301.027 370 262.069 357.006 220.189 331.122 c 1xce
 220.069 324.51 221.489 378.38 221.489 371.846 c 1
228 122 m 6xd8
 228 39 238 36 280 32 c 5
 286 26 286 4 280 -2 c 5
 237 -1 208.637 0 163 0 c 7
 109.564 0 68 -1 26 -2 c 5
 20 4 20 26 26 32 c 5
 87 37 98 39 98 122 c 6
 98 309 l 6
 98 366 87.4814 373.932 33 379 c 5
 31 385 29 405 31 411 c 5xb8
 100 420 160 434 197 444 c 5
 211 444 218.896 439.375 220 427 c 6
 220 427 224.423 404.884 226.692 373.122 c 5
 250.386 388.711 294.395 412.669 324.333 426.493 c 4
 347.966 437.405 371.333 444 394 444 c 7
 480 444 526 394 526 284 c 6
 526 128 l 6
 526 44 542 35 603 32 c 5
 609 26 609 4 603 -2 c 5
 560 -1 516.386 0 461 0 c 7
 413.414 0 381 -1 339 -2 c 5
 333 4 333 26 339 32 c 5
 380 35 396 44 396 128 c 6
 396 265 l 6
 396 352 366 370 326 370 c 7
 297.781 370 263.89 353.277 228 332.724 c 5
 228 122 l 6xd8
EndSplineSet
Fore
SplineSet
228 122 m 2xdc
 228 39 238 36 280 32 c 1
 286 26 286 4 280 -2 c 1
 237 -1 229 0 183 0 c 0
 130 0 68 -1 26 -2 c 1
 20 4 20 26 26 32 c 1
 87 37 98 39 98 122 c 2
 98 309 l 2
 98 366 87 374 33 379 c 1
 31 385 29 405 31 411 c 1xbc
 100 420 160 434 197 444 c 1
 211 444 217.055679505 439.819164436 220 427 c 0
 223.028695871 413.813476839 225 405 227 375 c 1
 255 392 286 409 316 422 c 0
 345 435 370 444 392 444 c 0
 450 444 490 415 505 371 c 1
 537 390 573 410 609 424 c 0
 638 436 663 444 684 444 c 0
 770 444 810 394 810 284 c 2
 810 128 l 2
 810 44 826 35 887 32 c 1
 893 26 893 4 887 -2 c 1
 844 -1 800 0 745 0 c 0
 697 0 665 -1 623 -2 c 1
 617 4 617 26 623 32 c 1
 664 35 680 44 680 128 c 2
 680 270 l 2
 680 352 652 370 612 370 c 0
 596 370 553 359 515 339 c 1
 517 329 519 309 519 284 c 2
 519 128 l 2
 519 44 536 35 576 32 c 1
 582 26 582 4 576 -2 c 1
 533 -1 502 0 454 0 c 0
 406 0 374 -1 332 -2 c 1
 326 4 326 26 332 32 c 1
 373 35 389 44 389 128 c 2
 389 270 l 2
 389 352 359 370 319 370 c 0
 302 370 267 359 228 336 c 1
 228 122 l 2xdc
EndSplineSet
Substitution2: "LinLibertine-'sinf' Wissenschaftliche Indices 1" m.inferior
Substitution2: "LinLibertine-'sups' Hochgestellte 1" m.superior
Substitution2: "LinLibertine-'smcp' Gemeine nach Kapitaelchen 1" m.sc
AlternateSubs2: "LinLibertine-'aalt' Alle Alternativen zeigen 1" m.sc
EndChar
StartChar: n
Encoding: 110 110 294
Width: 616
Flags: W
HStem: -2 34<22.77 85.8255 237.539 283.23 335.77 382.004 542.737 606.23> 370 74<316.674 437> 379 32<31.5625 83.817>
VStem: 98 130<41.4929 344.912> 396 130<44.1813 351.535>
AnchorPoint: "unten_punkt" 315 -110 basechar 0
AnchorPoint: "unten_anhang" 158 9 basechar 0
AnchorPoint: "mittelpunkt" 305 215 basechar 0
AnchorPoint: "top_akzent" 304 646 basechar 0
LayerCount: 2
Back
SplineSet
526 128 m 2xcc
 526 44 542 35 603 32 c 1
 609 26 609 4 603 -2 c 1
 560 -1 516.386 0 461 0 c 27
 413.414 0 381 -1 339 -2 c 1
 333 4 333 26 339 32 c 1
 380 35 396 44 396 128 c 2
 396 265 l 2
 396 352 366 370 326 370 c 3
 296.996 370 262 352.333 225 331 c 1
 225 372 l 17
 248.238 387.54 293.667 412.333 324.333 426.493 c 0
 347.966 437.405 371.333 444 394 444 c 3
 480 444 526 394 526 284 c 2
 526 128 l 2xcc
228 122 m 2xd4
 228 39 238 36 280 32 c 1
 286 26 286 4 280 -2 c 1
 237 -1 208.637 0 163 0 c 27
 109.564 0 68 -1 26 -2 c 1
 20 4 20 26 26 32 c 1
 87 37 98 39 98 122 c 2
 98 309 l 2
 98 366 87.4814 373.932 33 379 c 1
 31 385 29 405 31 411 c 1xb4
 100 420 160 434 197 444 c 1
 211 444 218.896 439.375 220 427 c 2
 220 427 228 387 228 337.333 c 2
 228 122 l 2xd4
EndSplineSet
Fore
SplineSet
228 122 m 2xd8
 228 39 238 36 280 32 c 1
 286 26 286 4 280 -2 c 1
 237 -1 209 0 163 0 c 3
 110 0 68 -1 26 -2 c 1
 20 4 20 26 26 32 c 1
 87 37 98 39 98 122 c 2
 98 309 l 2
 98 366 87 374 33 379 c 1
 31 385 29 405 31 411 c 1xb8
 100 420 160 434 197 444 c 1
 211 444 217.45096862 438.895479773 220 427 c 4
 223 413 225 401 227 373 c 1
 251 389 294 412 324 426 c 0
 348 437 371 444 394 444 c 3
 480 444 526 394 526 284 c 2
 526 128 l 2
 526 44 542 35 603 32 c 1
 609 26 609 4 603 -2 c 1
 560 -1 516 0 461 0 c 3
 413 0 381 -1 339 -2 c 1
 333 4 333 26 339 32 c 1
 380 35 396 44 396 128 c 2
 396 265 l 2
 396 352 366 370 326 370 c 3
 298 370 264 354 228 333 c 1
 228 122 l 2xd8
EndSplineSet
Substitution2: "LinLibertine-'sinf' Wissenschaftliche Indices 1" n.inferior
Substitution2: "LinLibertine-'sups' Hochgestellte 1" n.superior
Substitution2: "LinLibertine-'smcp' Gemeine nach Kapitaelchen 1" n.sc
AlternateSubs2: "LinLibertine-'aalt' Alle Alternativen zeigen 1" n.sc
EndChar
StartChar: o
Encoding: 111 111 295
Width: 551
Flags: W
HStem: -10 42<236.991 334.727> 402 42<211.57 311.912>
VStem: 37 140<112.736 315.973> 374 140<115.701 321.741>
AnchorPoint: "unten_punkt" 283 -110 basechar 0
AnchorPoint: "unten_anhang" 281 -3 basechar 0
AnchorPoint: "ogonek" 372 44 basechar 0
AnchorPoint: "mittelpunkt" 277 215 basechar 0
AnchorPoint: "top_akzent" 268 645 basechar 0
AnchorPoint: "komb_OR" 418 396 basechar 0
LayerCount: 2
Back
SplineSet
488 128 m 2xcc
 488 44 504 35 565 32 c 1
 571 26 571 4 565 -2 c 1
 522 -1 478.386 0 423 0 c 27
 375.414 0 343 -1 301 -2 c 1
 295 4 295 26 301 32 c 1
 342 35 358 44 358 128 c 2
 358 295 l 2
 358 352 328 370 288 370 c 3
 270 370 227.667 349.333 187 321 c 1
 187 361 l 17
 242.333 399 314.333 444 355 444 c 3
 441 444 488 394 488 284 c 2
 488 128 l 2xcc
190 122 m 2xd4
 190 39 200 36 242 32 c 1
 248 26 248 4 242 -2 c 1
 199 -1 170.637 0 125 0 c 27
 71.5645 0 30 -1 -12 -2 c 1
 -18 4 -18 26 -12 32 c 1
 49 37 60 39 60 122 c 2
 60 309 l 2
 60 366 49.4814 373.932 -5 379 c 1
 -7 385 -9 405 -7 411 c 1xb4
 62 420 122 434 159 444 c 1
 173 444 181.079 439.157 182 427 c 2
 182 427 190 371 190 321.333 c 2
 190 122 l 2xd4
EndSplineSet
Fore
SplineSet
37 207 m 3
 37 266.052 54.2344 326.835 92.7012 370 c 0
 133.167 415.408 193.097 444 276 444 c 3
 424.484 444 514 346.827 514 229 c 3
 514 160.271 494.034 92.9229 445 47 c 0
 405.262 9.7832 345.456 -10 275 -10 c 3
 140.633 -10 37 78.5 37 207 c 3
260 402 m 3
 185.939 402 177 312.506 177 229 c 3
 177 138.994 209 32 291 32 c 3
 327 32 374 66.9336 374 197 c 3
 374 324 328 402 260 402 c 3
EndSplineSet
Substitution2: "LinLibertine-'sinf' Wissenschaftliche Indices 1" o.inferior
Substitution2: "LinLibertine-'sups' Hochgestellte 1" o.superior
Substitution2: "LinLibertine-'smcp' Gemeine nach Kapitaelchen 1" o.sc
AlternateSubs2: "LinLibertine-'aalt' Alle Alternativen zeigen 1" o.sc
EndChar
StartChar: p
Encoding: 112 112 296
Width: 581
Flags: W
HStem: -234 34<19.77 82.8255 237.175 300.23> -10 42<237.116 349.172> 369 75<300.704 403> 379 32<28.5625 80.817>
VStem: 95 130<-190.507 2.33301 46.534 352.264> 399 140<142.718 337.274>
AnchorPoint: "unten_punkt" 159 -319 basechar 0
AnchorPoint: "mittelpunkt" 306 215 basechar 0
AnchorPoint: "top_akzent" 304 646 basechar 0
AnchorPoint: "top_rechts" 462 580 basechar 0
LayerCount: 2
Fore
SplineSet
225 341 m 5xec
 225 64 l 5
 243.667 41.333 278.333 32 303 32 c 7
 355.681 32 399 94.9512 399 220 c 7
 399 277.25 390.5 321 372.667 345.333 c 4
 359.667 363.071 336 369 313 369 c 7
 289.5 369 257.667 361 225 341 c 5xec
225 2.33301 m 13
 225 -110 l 6
 225 -193 236 -196 297 -200 c 5
 303 -206 303 -228 297 -234 c 5
 254 -233 213.436 -232 160 -232 c 31
 106.564 -232 65 -233 23 -234 c 5
 17 -228 17 -206 23 -200 c 5
 84 -195 95 -193 95 -110 c 6
 95 309 l 6
 95 366 84.4814 373.932 30 379 c 5
 28 385 26 405 28 411 c 5xdc
 97 420 157 434 194 444 c 5
 208 444 215.681 439.12 217 427 c 6
 217 427 219.89 406.472 222.197 379.25 c 5
 240.697 391.25 274.535 411.944 304 423.667 c 4
 326.391 432.575 354 444 390 444 c 7
 416 444 457.5 436 490 400 c 4
 522.734 363.74 539 309.847 539 253 c 7
 539 89.9443 418 -10 297 -10 c 7
 272.201 -10 248.715 -5.77539 225 2.33301 c 13
EndSplineSet
Substitution2: "LinLibertine-'sinf' Wissenschaftliche Indices 1" p.inferior
Substitution2: "LinLibertine-'sups' Hochgestellte 1" p.superior
Substitution2: "LinLibertine-'smcp' Gemeine nach Kapitaelchen 1" p.sc
AlternateSubs2: "LinLibertine-'aalt' Alle Alternativen zeigen 1" p.sc
EndChar
StartChar: q
Encoding: 113 113 297
Width: 573
Flags: W
HStem: -234 34<275.77 338.825 493.175 556.23> -10 64<225.033 311.262> 402 42<229.327 336.597>
VStem: 37 140<111.757 303.188> 351 130<-190.507 34 65.905 387.082>
AnchorPoint: "unten_punkt" 348 -319 basechar 0
AnchorPoint: "mittelpunkt" 236 215 basechar 0
AnchorPoint: "top_akzent" 238 645 basechar 0
AnchorPoint: "top_rechts" 469 732 basechar 0
LayerCount: 2
Fore
SplineSet
481 -110 m 2
 481 -193 492 -196 553 -200 c 1
 559 -206 559 -228 553 -234 c 1
 510 -233 469 -232 416 -232 c 0
 363 -232 321 -233 279 -234 c 1
 273 -228 273 -206 279 -200 c 1
 340 -195 351 -193 351 -110 c 2
 351 34 l 1
 343 30 317 13 296 5 c 0
 270 -5 241 -10 227 -10 c 3
 182 -10 151 2 116 27 c 0
 56 70 37 138 37 198 c 3
 37 355 153 444 296 444 c 3
 320 444 351 439 374 427 c 0
 397 416 400 416 424 429 c 0
 440 438 459 444 466 444 c 0
 480 444 485 440 485 427 c 2
 485 427 481 371 481 321 c 2
 481 -110 l 2
351 77 m 1
 351 366 l 1
 329 393 307 402 283 402 c 3
 218 402 177 338 177 233 c 3
 177 86 236 54 286 54 c 3
 302 54 330 64 351 77 c 1
EndSplineSet
Substitution2: "LinLibertine-'sinf' Wissenschaftliche Indices 1" q.inferior
Substitution2: "LinLibertine-'sups' Hochgestellte 1" q.superior
Substitution2: "LinLibertine-'smcp' Gemeine nach Kapitaelchen 1" q.sc
AlternateSubs2: "LinLibertine-'aalt' Alle Alternativen zeigen 1" q.sc
EndChar
StartChar: r
Encoding: 114 114 298
Width: 428
Flags: HW
HStem: -2 34<22.77 85.8255 240.175 303.23> 351 93<276.334 374.877> 380 31<31.5625 83.673>
VStem: 98 130<41.4929 331.1 348 369.703>
AnchorPoint: "unten_punkt" 164 -110 basechar 0
AnchorPoint: "unten_anhang" 163 7 basechar 0
AnchorPoint: "mittelpunkt" 165 185 basechar 0
AnchorPoint: "top_akzent" 191 646 basechar 0
AnchorPoint: "top_rechts" 349 580 basechar 0
LayerCount: 2
Fore
SplineSet
228 268.333 m 2xd0
 228 122 l 2
 228 39 239 36 300 32 c 1
 306 26 306 4 300 -2 c 1
 257 -1 216.436 0 163 0 c 27
 109.564 0 68 -1 26 -2 c 1
 20 4 20 26 26 32 c 1
 87 37 98 39 98 122 c 2
 98 309 l 2
 98 366 87.4814 374.932 33 380 c 1
 31 386 29 405 31 411 c 1xb0
 97 417.5 149.5 432 197 444 c 1
 211 444 218.459472444 438.297202081 220 427 c 0
 223 405 225 378 227 348 c 1
 227 347 229 346 230.998 347.995 c 1
 277 414 315 444 350 444 c 3
 386 444 416 414 416 388 c 3
 416 346 387.5 315.5 354.5 315.5 c 3
 336.906934503 315.5 324.397321212 324.800230713 313 335.304186252 c 4
 303.653738675 343.91785183 294.292737414 351 283.668 351 c 3
 269 351 260.228 343.811 252 334 c 0
 239 318.5 228 304 228 268.333 c 2xd0
EndSplineSet
Substitution2: "LinLibertine-'sinf' Wissenschaftliche Indices 1" r.inferior
Substitution2: "LinLibertine-'sups' Hochgestellte 1" r.superior
Substitution2: "LinLibertine-'smcp' Gemeine nach Kapitaelchen 1" r.sc
AlternateSubs2: "LinLibertine-'aalt' Alle Alternativen zeigen 1" r.sc
EndChar
StartChar: s
Encoding: 115 115 1964
Width: 427
Flags: W
HStem: -10 39<151.116 249.005> 402 42<183.041 270.954>
VStem: 48 40<101.16 147.651> 63 113<304.373 377.234> 261 116<55.38 134.594> 318 39<310.247 346.382>
AnchorPoint: "unten_punkt" 196 -110 basechar 0
AnchorPoint: "unten_anhang" 194 1 basechar 0
AnchorPoint: "ogonek" 290 13 basechar 0
AnchorPoint: "top_akzent" 206 645 basechar 0
AnchorPoint: "top_rechts" 366 580 basechar 0
LayerCount: 2
Fore
SplineSet
48 146 m 5xe8
 64 150 72 151 88 148 c 5
 109 74.5 156.9 29 202 29 c 7
 229 29 261 45.9375 261 78 c 7xe8
 261 102.021 250 138 210 156 c 4
 179.523 169.715 125 205 94 239 c 4
 74.4531 260.439 63 284.312 63 314 c 7
 63 340.954 73.999 368.604 97 392 c 4
 128.638 424.183 179.308 444 232 444 c 7
 287 444 312 434 344 420 c 5
 353 388 357 350 357 314 c 5
 347 307 336 306 318 309 c 5
 293 370 259 402 224 402 c 7
 195 402 176 383.021 176 360 c 7xd4
 176 330.931 189.963 299.407 230 282 c 4
 276 262 317.529 237.334 346.42 205 c 4
 368.619 180.155 377 152.892 377 119 c 7
 377 31.9482 281 -10 204 -10 c 7
 147.799 -10 83.5 5.5 65 12 c 5
 56.5 49.5 52 96.5 48 146 c 5xe8
EndSplineSet
Validated: 3105
Substitution2: "LinLibertine-'sinf' Wissenschaftliche Indices 1" s.inferior
Substitution2: "LinLibertine-'sups' Hochgestellte 1" s.superior
Substitution2: "LinLibertine-'smcp' Gemeine nach Kapitaelchen 1" s.sc
AlternateSubs2: "LinLibertine-'aalt' Alle Alternativen zeigen 1" s.sc
EndChar
StartChar: t
Encoding: 116 116 300
Width: 358
VWidth: 999
Flags: W
HStem: -10 70<184.266 285.288> 384 50<28.2324 91 217 335.992>
VStem: 88 130<66.9602 384 434 549.542>
AnchorPoint: "unten_punkt" 192 -110 basechar 0
AnchorPoint: "unten_anhang" 194 -3 basechar 0
AnchorPoint: "ogonek" 266 15 basechar 0
AnchorPoint: "mittelpunkt" 156 215 basechar 0
AnchorPoint: "top_rechts" 308 580 basechar 0
LayerCount: 2
Back
SplineSet
63 434 m 2
 91 434.103 l 17
 91 513.5 95 540.5 101.957 550 c 0
 108.709 559.221 138 565 155 572.146 c 0
 170.706 578.749 208 589.834 215.301 589.834 c 0
 220.001 589.834 223 587.435 223 581 c 0
 223 581 219.959 534.619 218 468 c 2
 217 434 l 1
 334 434 l 2
 339 434 342 432 342 428 c 2
 342 397 l 2
 342 388 328 384 318 384 c 2
 217 384 l 1
 217 284 218 177 218 127 c 0
 218 77 240 60 262 60 c 3
 281.026 60 306 64 319 74 c 1
 331 64 337 58 337 46 c 1
 317 18 256.326 -10 201 -10 c 3
 177.393 -10 140.519 -1.34082 118 18 c 0
 96.6406 36.3457 88 70 88 105 c 3
 88 155 88.6667 283.333 91 384 c 1
 26 384 l 2
 22 384 21 385 21 390 c 2
 21 419 l 17
 33.667 430 49 433.949 63 434 c 2
EndSplineSet
Fore
SplineSet
91 434 m 5
 91 513.5 95 540.5 101.957 550 c 0
 108.709 559.221 132 565 155 572.146 c 0
 171.27 577.201 208 589.834 215.301 589.834 c 0
 220.001 589.834 223 587.435 223 581 c 0
 223 581 219.959 534.619 218 468 c 2
 217 434 l 1
 341 434 l 1
 349 422 343 392 329 384 c 9
 217 384 l 1
 217 284 218 177 218 127 c 0
 218 77 237.979 60 262 60 c 3
 281.026 60 306 65 319 74 c 1
 328.667 68.6667 336 58 337 46 c 1
 303 14.3333 247 -10 201 -10 c 3
 167.532 -10 141.519 -1.34082 119 18 c 0
 97.6406 36.3457 88 66.6667 88 105 c 3
 88 155 88.6667 283.333 91 384 c 5
 22 384 l 21
 19 386 17 389 17 394 c 5
 23 409 43 431 50 434 c 13
 91 434 l 5
EndSplineSet
Substitution2: "LinLibertine-'sinf' Wissenschaftliche Indices 1" t.inferior
Substitution2: "LinLibertine-'sups' Hochgestellte 1" t.superior
Substitution2: "LinLibertine-'smcp' Gemeine nach Kapitaelchen 1" t.sc
AlternateSubs2: "LinLibertine-'aalt' Alle Alternativen zeigen 1" t.sc
EndChar
StartChar: u
Encoding: 117 117 301
Width: 598
Flags: W
HStem: -10 74<172 304.754> 23 32<527.156 576.438> 402 34<18.77 71.7019 309.77 363.604>
VStem: 89 130<80.3544 390.242> 380 130<81.8398 389.887>
AnchorPoint: "unten_punkt" 239 -110 basechar 0
AnchorPoint: "unten_anhang" 213 0 basechar 0
AnchorPoint: "ogonek" 293 7 basechar 0
AnchorPoint: "mittelpunkt" 252 215 basechar 0
AnchorPoint: "top_akzent" 255 645 basechar 0
LayerCount: 2
Back
SplineSet
89 306 m 2xb8
 89 390 68 400 22 402 c 1
 16 408 16 430 22 436 c 1
 65 435 102.514 434 154 434 c 3
 172.333 434 193 435 211 436 c 1
 217 430 221 419 221 402 c 3
 221 378 219 390 219 306 c 2
 219 174 l 2
 219 73.5 249 64 289 64 c 3
 307 64 342.333 71.6667 384 93 c 1
 387 53 l 17
 360.365 37.8457 330.479 21.9409 302 10.6667 c 0
 268.464 -2.60986 235.009 -10 215 -10 c 3
 129 -10 89 35 89 150 c 2
 89 306 l 2xb8
510 133 m 2
 510 76 520.519 60.0684 575 55 c 1
 577 49 579 29 577 23 c 1x78
 508 14 448 0 411 -10 c 1
 397 -10 388.843 -4.97559 388 7 c 2
 388 7 380 71 380 120.667 c 2
 380 306 l 2
 380 390 364 397 313 402 c 1
 307 408 307 430 313 436 c 1
 352 435 417.333 434 445 434 c 3
 464.047 434 484 435.007 502 436 c 1
 508 430 512 419 512 402 c 3
 512 378 510 390 510 306 c 2
 510 133 l 2
EndSplineSet
Fore
SplineSet
510 133 m 2xb8
 510 76 520.519 60.0684 575 55 c 1
 577 49 579 29 577 23 c 1x78
 508 14 448 0 411 -10 c 1
 397 -10 389.559 -5.45116 388 7 c 2
 388 7 383.667 32 382.49 51.0098 c 1
 356.756 36.4648 329.234 21.4483 302 10.6667 c 0
 268.464 -2.60986 235.009 -10 215 -10 c 0
 129 -10 89 35 89 150 c 2
 89 306 l 2
 89 390 68 400 22 402 c 1
 16 408 16 430 22 436 c 1
 65 435 102.514 434 154 434 c 0
 172.333 434 193 435 211 436 c 1
 217 430 221 419 221 402 c 0
 221 378 219 390 219 306 c 2
 219 174 l 2
 219 73.5 249 64 289 64 c 0
 306.531 64 339.748 70.5791 380 90.667 c 9
 380 306 l 2
 380 390 364 397 313 402 c 1
 307 408 307 430 313 436 c 1
 352 435 417.333 434 445 434 c 0
 464.047 434 484 435.007 502 436 c 1
 508 430 512 419 512 402 c 0
 512 378 510 390 510 306 c 2
 510 133 l 2xb8
EndSplineSet
Substitution2: "LinLibertine-'sinf' Wissenschaftliche Indices 1" u.inferior
Substitution2: "LinLibertine-'sups' Hochgestellte 1" u.superior
Substitution2: "LinLibertine-'smcp' Gemeine nach Kapitaelchen 1" u.sc
AlternateSubs2: "LinLibertine-'aalt' Alle Alternativen zeigen 1" u.sc
EndChar
StartChar: v
Encoding: 118 118 302
Width: 519
VWidth: 999
Flags: W
HStem: 402 34<6.77002 58.6158 214.413 262.23 328.77 380.216 462.708 512.23>
AnchorPoint: "unten_punkt" 241 -110 basechar 0
AnchorPoint: "mittelpunkt" 247 267 basechar 0
AnchorPoint: "top_akzent" 256 646 basechar 0
AnchorPoint: "top_rechts" 460 580 basechar 0
LayerCount: 2
Fore
SplineSet
332 402 m 1
 326 408 326 430 332 436 c 1
 359 435 396 434 433 434 c 3
 455 434 487 435 509 436 c 1
 515 430 515 408 509 402 c 1
 456 397 444.016 369.11 423.416 324 c 2
 273.333 -4.66602 l 17
 263.333 -10 246.333 -13.6667 229.001 -3.99902 c 9
 90.4316 325 l 2
 69.1061 375.632 67.5205 395.233 10 402 c 1
 4 408 4 430 10 436 c 1
 47 435 98 434 133 434 c 11
 182.146 434 222 435 259 436 c 1
 265 430 265 408 259 402 c 1
 196.846 396.595 210.251 379.087 227.862 331 c 2
 290 161.333 l 2
 292.493 154.313 296.694 154.488 300.666 163.666 c 2
 370.653 331 l 2
 393.692 386.084 386 398 332 402 c 1
EndSplineSet
Substitution2: "LinLibertine-'sinf' Wissenschaftliche Indices 1" v.inferior
Substitution2: "LinLibertine-'sups' Hochgestellte 1" v.superior
Substitution2: "LinLibertine-'smcp' Gemeine nach Kapitaelchen 1" v.sc
AlternateSubs2: "LinLibertine-'aalt' Alle Alternativen zeigen 1" v.sc
EndChar
StartChar: w
Encoding: 119 119 303
Width: 777
VWidth: 999
Flags: HMW
HStem: 402 34<10.77 62.4992 221.401 271.23 576.77 624.273 716.076 766.23>
AnchorPoint: "unten_punkt" 352 -110 basechar 0
AnchorPoint: "top_akzent" 345 646 basechar 0
AnchorPoint: "top_rechts" 719 580 basechar 0
LayerCount: 2
Back
SplineSet
356 428 m 1
 350 434 350 456 356 462 c 1
 393 461 430 460 467 460 c 3
 493 460 511 461 533 462 c 1
 539 456 539 434 533 428 c 1
 480 423 467.351 395.407 447.416 350 c 2
 298 11 l 2
 288.786 -9.90527 269 -12 259 -12 c 3
 246 -12 229.177 -5.9209 223 9 c 2
 75.4316 351 l 2
 53.8193 401.088 45 420 -5 428 c 1
 -11 434 -11 456 -5 462 c 1
 32 461 89 460 124 460 c 11
 173.146 460 213 461 250 462 c 1
 256 456 256 434 250 428 c 1
 194.5 422 200.545 404.823 218.862 357 c 2
 295.083 158 l 2
 297.628 151.004 301.62 143.83 305.615 153 c 2
 394.653 357 l 2
 416.927 408.031 410 424 356 428 c 1
1321.86 331 m 2
 1392.08 153 l 2
 1398.07 137.817 1401.58 137.292 1405.62 148 c 2
 1474.65 331 l 2
 1493.5 380.945 1490 398 1436 402 c 1
 1430 408 1430 430 1436 436 c 1
 1473 435 1510 434 1547 434 c 3
 1573 434 1591 435 1613 436 c 1
 1619 430 1619 408 1613 402 c 1
 1557 397 1545.28 367.886 1527.42 324 c 2
 1400 11 l 2
 1391.67 -9.45898 1371 -12 1361 -12 c 3
 1348 -12 1322.98 -9.24414 1316 9 c 2
 1203.59 303 l 1
 1226 411 l 17
 1253.5 408.5 1297 411 1297 411 c 25
 1297 411 1303.07 378.643 1321.86 331 c 2
EndSplineSet
Fore
SplineSet
481.862 331 m 2
 547.81 168.833 l 2
 551.581 159.272 553.584 157.864 558.092 170.167 c 2
 619.737 322.5 l 2
 639.762 371.983 634 398 580 402 c 1
 574 408 574 430 580 436 c 1
 617 435 660 434 697 434 c 0
 723 434 741 435 763 436 c 1
 769 430 769 408 763 402 c 1
 707 397 690.699 359.247 672.5 315.5 c 2
 540 -3 l 17
 516.333 -11.333 510.333 -10 486 -5 c 1
 381 251 l 1
 379 252 l 1
 274.668 -7 l 17
 253.667 -11.3333 251 -11.667 226.665 -6.99707 c 13
 93.4316 325 l 2
 72.9717 375.983 71.5205 395.233 14 402 c 1
 8 408 8 430 14 436 c 1
 51 435 102 434 137 434 c 0
 188.096 434 231 435 268 436 c 1
 274 430 274 408 268 402 c 1
 205.846 396.595 214.661 378.55 231.862 331 c 2
 289.32 172.167 l 2
 292.684 162.227 295.847 161.772 298.334 168.666 c 2
 395 423.5 l 1
 415.667 431 428.667 430 447 423 c 1
 447 423 462.568 378.443 481.862 331 c 2
EndSplineSet
Substitution2: "LinLibertine-'sinf' Wissenschaftliche Indices 1" w.inferior
Substitution2: "LinLibertine-'sups' Hochgestellte 1" w.superior
Substitution2: "LinLibertine-'smcp' Gemeine nach Kapitaelchen 1" w.sc
AlternateSubs2: "LinLibertine-'aalt' Alle Alternativen zeigen 1" w.sc
EndChar
StartChar: x
Encoding: 120 120 1965
Width: 556
Flags: W
HStem: -2 34<10.77 73.327 173.179 210.23 268.77 308.483 490.808 545.23> 402 34<22.77 76.3087 252.477 295.23 345.77 383.648 478.128 536.23>
AnchorPoint: "unten_punkt" 224 -110 basechar 0
AnchorPoint: "unten_anhang" 94 8 basechar 0
AnchorPoint: "mittelpunkt" 237 215 basechar 0
AnchorPoint: "top_akzent" 256 646 basechar 0
AnchorPoint: "top_rechts" 469 580 basechar 0
LayerCount: 2
Fore
SplineSet
180 73 m 2
 157.719 41.4951 188.5 35.5 207 32 c 1
 213 26 213 4 207 -2 c 1
 187 -1 139.907 0 97 0 c 27
 64.6211 0 34 -1 14 -2 c 1
 8 4 8 26 14 32 c 1
 43.5 36 87.501 47.4033 113 79 c 2
 205 193 l 18
 210.74 200.113 210.997 203.723 208 208 c 10
 119 335 l 2
 91.3086 374.515 71 402 26 402 c 1
 20 408 20 430 26 436 c 1
 46 435 102.854 434 152 434 c 27
 206.605 434 272 435 292 436 c 1
 298 430 298 408 292 402 c 1
 254 398 240.983 395.575 262 360 c 2
 306.75 284.25 l 2
 310.895 277.233 315.819 277.351 319.25 282.25 c 2
 373 359 l 2
 393.064 387.65 385 399 349 402 c 1
 343 408 343 430 349 436 c 1
 369 435 409.992 434 449 434 c 27
 481.77 434 513 435 533 436 c 1
 539 430 539 408 533 402 c 1
 502 398.5 465.693 386.605 438 353 c 2
 349 245 l 2
 346 241 342.509 235.174 348 227 c 2
 439 99 l 2
 472.585 51.7588 505 37.5 542 32 c 1
 548 26 548 4 542 -2 c 1
 522 -1 460.266 0 408 0 c 27
 354.954 0 292 -1 272 -2 c 1
 266 4 266 26 272 32 c 1
 306.5 37 318.978 40.582 300 72 c 2
 247.75 158.5 l 2
 245.058 163.548 244.535 164.225 241 159.25 c 2
 180 73 l 2
EndSplineSet
Substitution2: "LinLibertine-'sinf' Wissenschaftliche Indices 1" x.inferior
Substitution2: "LinLibertine-'sups' Hochgestellte 1" x.superior
Substitution2: "LinLibertine-'smcp' Gemeine nach Kapitaelchen 1" x.sc
AlternateSubs2: "LinLibertine-'aalt' Alle Alternativen zeigen 1" x.sc
EndChar
StartChar: y
Encoding: 121 121 305
Width: 568
VWidth: 999
Flags: W
HStem: -232 98<105.266 201.239> 402 34<6.77002 59.52 218.453 267.23 377.77 430.434 515.585 561.23>
AnchorPoint: "unten_punkt" 242 -319 basechar 0
AnchorPoint: "top_akzent" 262 645 basechar 0
LayerCount: 2
Fore
SplineSet
125 -232 m 3
 101.607 -232 79 -215.289 79 -184 c 3
 79 -164 91 -126 129 -126 c 3
 143 -126 161 -134 179 -134 c 3
 205.002 -134 218.428 -114.985 232.288 -83 c 2
 253.667 -33.665 l 2
 261.667 -15.665 252.118 1.74251 236.666 34.667 c 10
 99 328 l 2
 69.9648 389.866 55.6667 393 10 402 c 1
 4 408 4 430 10 436 c 1
 30 435 97 434 131 434 c 3
 167 434 227 435 264 436 c 1
 270 430 270 408 264 402 c 1
 203 397 212.776 378.955 231 338 c 2
 324 129 l 2
 327 123 324 122 326 127 c 2
 429 358 l 2
 445 394 413 399 381 402 c 1
 375 408 375 430 381 436 c 1
 418 435 452 434 487 434 c 3
 515 434 533 435 558 436 c 1
 564 430 564 408 558 402 c 1
 521 399 491 368 477 339 c 0
 424 227 375 119 295 -74 c 1
 271.809 -131.979 245.527 -182.085 199.333 -211.667 c 0
 179.313 -224.486 153.097 -232 125 -232 c 3
EndSplineSet
Substitution2: "LinLibertine-'sinf' Wissenschaftliche Indices 1" y.inferior
Substitution2: "LinLibertine-'sups' Hochgestellte 1" y.superior
Substitution2: "LinLibertine-'smcp' Gemeine nach Kapitaelchen 1" y.sc
AlternateSubs2: "LinLibertine-'aalt' Alle Alternativen zeigen 1" y.sc
EndChar
StartChar: z
Encoding: 122 122 306
Width: 452
Flags: W
HStem: 0 39<176 336.009> 394 42<117.053 268> 426 20G<59.7808 69.749>
VStem: 40 37<298.845 343.682>
AnchorPoint: "unten_punkt" 207 -110 basechar 0
AnchorPoint: "unten_anhang" 208 4 basechar 0
AnchorPoint: "mittelpunkt" 207 215 basechar 0
AnchorPoint: "top_akzent" 220 646 basechar 0
AnchorPoint: "top_rechts" 399 580 basechar 0
LayerCount: 2
Back
SplineSet
446 128 m 6xcc
 446 44 462 35 523 32 c 5
 529 26 529 4 523 -2 c 5
 480 -1 436.386 0 381 0 c 31
 333.414 0 301 -1 259 -2 c 5
 253 4 253 26 259 32 c 5
 300 35 316 44 316 128 c 6
 316 295 l 6
 316 352 286 370 246 370 c 7
 228 370 185.667 349.333 145 321 c 5
 145 361 l 21
 200.333 399 272.333 444 313 444 c 7
 399 444 446 394 446 284 c 6
 446 128 l 6xcc
148 122 m 6xd4
 148 39 158 36 200 32 c 5
 206 26 206 4 200 -2 c 5
 157 -1 128.637 0 83 0 c 31
 29.5645 0 -12 -1 -54 -2 c 5
 -60 4 -60 26 -54 32 c 5
 7 37 18 39 18 122 c 6
 18 309 l 6
 18 366 7.48145 373.932 -47 379 c 5
 -49 385 -51 405 -49 411 c 5xb4
 20 420 80 434 117 444 c 5
 131 444 139.079 439.157 140 427 c 6
 140 427 148 371 148 321.333 c 6
 148 122 l 6xd4
EndSplineSet
Fore
SplineSet
60.999 446 m 1xb0
 78.499 442.562 87.8633 436 120 436 c 2
 315 436 l 18
 344 436 412 438 417 438 c 3
 424 438 429 435 429 431 c 3
 429 427 426.338 419.234 411 394 c 0
 350.727 294.841 248.762 136.705 175.253 42 c 1
 176 39 l 1
 272 42 l 2
 325.51 43.6722 350.511 57.2012 376 110 c 2
 390 139 l 1
 402 139 417.541 136.694 424 133 c 1
 417 83 404 31 392 -3 c 1
 40 0 l 2
 25 0 17 5 17 12 c 3
 17 17 17.3994 20.4229 26 32 c 0
 102.412 134.862 201.937 282.152 269.807 395 c 1
 268 396.833 l 1
 164 394 l 2xd0
 133.995 393.183 97 371 77 298 c 1
 65.4463 295.361 48.8369 297.276 40 301 c 1
 48 350 54 395 55 440 c 1
 55 442.375 58.5625 446 60.999 446 c 1xb0
EndSplineSet
Substitution2: "LinLibertine-'sinf' Wissenschaftliche Indices 1" z.inferior
Substitution2: "LinLibertine-'sups' Hochgestellte 1" z.superior
Substitution2: "LinLibertine-'smcp' Gemeine nach Kapitaelchen 1" z.sc
AlternateSubs2: "LinLibertine-'aalt' Alle Alternativen zeigen 1" z.sc
EndChar
StartChar: braceleft
Encoding: 123 123 307
Width: 307
VWidth: 999
Flags: W
HStem: -212 24<255.497 291.757> 231 32<9.56719 65.1507> 683 24<258.392 291.757>
VStem: 106 102<406.75 636.203> 112 104<300.375 531.25>
LayerCount: 2
Fore
SplineSet
208 552 m 2xf0
 216 386 l 2
 220.288 297.014 178.25 268.25 111 249 c 1
 111 245 l 1
 178.75 216.75 220.42 177.329 216 95 c 2xe8
 208 -54 l 2
 203.491 -137.973 244 -188 288 -188 c 1
 294 -194 294 -206 288 -212 c 1
 187 -212 101 -179 106 -49 c 2xf0
 112 121 l 2
 114 182 87.5 222 14 231 c 1
 6 239 5 254 14 263 c 1
 88 270 112 320 112 370 c 2xe8
 106 554 l 2
 102 667 198 707 288 707 c 1
 294 701 294 689 288 683 c 1
 250 672 203.041 654.906 208 552 c 2xf0
EndSplineSet
Validated: 3105
Substitution2: "LinLibertine-'case' Versalformen 1" braceleft.sc
Substitution2: "LinLibertine-'c2sc' Versale nach Kapitaelchen 1" braceleft.sc
AlternateSubs2: "LinLibertine-'aalt' Alle Alternativen zeigen 1" braceleft.sc
EndChar
StartChar: bar
Encoding: 124 124 308
Width: 220
VWidth: 999
Flags: W
HStem: -233 21G<80 140> 678 20G<80 140>
VStem: 80 60<-233 698>
LayerCount: 2
Fore
SplineSet
140 -233 m 1
 80 -233 l 1
 80 698 l 1
 140 698 l 1
 140 -233 l 1
EndSplineSet
Validated: 3073
EndChar
StartChar: asciitilde
Encoding: 126 126 310
Width: 473
Flags: W
HStem: 207 73<271.379 383.273> 268 73<86.7272 207.953>
VStem: 424 26<322.8 336.943>
LayerCount: 2
Fore
SplineSet
152 268 m 3x60
 124 268 70 261 46 204 c 1
 36 207 l 1xa0
 28 216 22 230 20 236 c 1
 49 323.5 128 341 167 341 c 3x60
 200 341 241.292 330.708 263 309 c 0
 282.5 289.5 307 280 318 280 c 3xa0
 346 280 400 287 424 344 c 1
 434 341 l 1x60
 442 332 448 318 450 312 c 1
 421 223.5 342 207 303 207 c 3xa0
 278 207 237 220 211 244 c 0
 190.113 263.28 175.021 268 152 268 c 3x60
EndSplineSet
Validated: 3073
EndChar
StartChar: cent
Encoding: 162 162 313
Width: 540
VWidth: 999
Flags: W
HStem: -12 21G<262 296> 61 71<242.273 358.126> 473 42<227.419 311.383>
VStem: 60 130<209.785 378.849> 262 34<-12 584> 328 117<367.764 457.24>
LayerCount: 2
Fore
SplineSet
445 158 m 1
 407 103 338 61 278 61 c 3
 206.547 61 161.272 76.0576 122 113 c 0
 83.2266 149.473 60 207.415 60 272 c 3
 60 420 164 515 282 515 c 3
 391 515 445 456 445 411 c 3
 445 380 422 355 390 355 c 3
 358 355 331 375 328 402 c 0
 325 434 310 473 273 473 c 3
 220 473 190 418 190 307 c 3
 190 199 254 132 329 132 c 3
 358 132 392 152 432 189 c 1
 443 189 445 170 445 158 c 1
262 584 m 1
 296 584 l 1
 296 -12 l 1
 262 -12 l 1
 262 584 l 1
EndSplineSet
Validated: 3077
EndChar
StartChar: sterling
Encoding: 163 163 314
Width: 540
VWidth: 438
Flags: W
HStem: -18 112<52.1974 105.066> -10 74<283.736 397.598> 292 47<54 383> 574 40<286.347 380.5>
VStem: 18 95<-8.44294 49.9023> 132 130<196.171 472.517>
LayerCount: 2
Back
SplineSet
358.887 340.332 m 5
 358.887 301.27 l 5
 254.883 301.27 l 1
 254.883 287.109 l 2
 254.883 165.82 201.539 112.391 162.109 84.9609 c 1
 213.77 84.9609 232.863 81.3711 291.26 51.6875 c 0
 312.256 41.0156 319.114 38.0859 343.75 38.0859 c 0
 375.026 38.0859 437.334 44.8672 464.355 78.125 c 1
 471.191 71.7773 l 1
 451.653 23.3984 402.954 -12.207 324.707 -12.207 c 0
 297.363 -12.207 262.695 -3.90625 225.586 17.0898 c 0
 185.547 39.5508 148.926 46.3867 137.207 46.3867 c 0
 100.734 46.3867 90.332 30.2734 90.332 19.5312 c 0
 90.332 -5.85938 65.4297 -17.0898 46.875 -17.0898 c 0
 32.2266 -17.0898 17.5781 -4.88281 17.5781 6.83594 c 0
 17.5781 33.3984 50.1084 56.416 100.586 73.2422 c 1
 149.414 121.582 182.617 200.195 182.617 266.113 c 2
 182.617 301.27 l 1
 90.332 301.27 l 5
 90.332 340.332 l 5
 182.617 340.332 l 1
 182.617 383.789 183.594 464.844 262.207 523.438 c 0
 299.948 551.567 341.797 574.707 397.949 574.707 c 0
 422.852 574.707 482.422 564.453 482.422 530.762 c 0
 482.422 506.836 463.867 493.164 438.477 493.164 c 0
 423.733 493.164 412.661 501.65 400.879 511.055 c 0
 387.207 521.973 372.164 533.203 348.633 533.203 c 0
 300.013 533.203 254.883 469.616 254.883 388.184 c 2
 254.883 340.332 l 1
 358.887 340.332 l 5
EndSplineSet
Fore
SplineSet
171 109 m 3xbc
 239.68 109 270.5 93 294.5 80.0205 c 0
 310.832 71.1885 324.458 64 345 64 c 3
 375 64 419 85 445 120 c 1
 454.15 118.236 463.5 112 468 105 c 1
 449 53 402 -10 327 -10 c 3x7c
 283.232 -10 243.5 11 215 29.3135 c 0
 192.33 43.8799 169.989 52 151 52 c 3
 116 52 113 38 113 25 c 3
 113 -4 81.5 -18 52 -18 c 3
 29.5 -18 18 -2 18 15 c 3
 18 44 53 78 84 94 c 0
 115 110 153 109 171 109 c 3xbc
82 292 m 2
 59 292 54 296 54 303 c 2
 54 319 l 2
 54 329 65 339 101 339 c 2
 352 339 l 2
 371 339 383 334 383 328 c 2
 383 312 l 2
 383 298 355 292 335 292 c 2
 82 292 l 2
165 104 m 0
 149 92 134 85 122 74 c 9
 68 77 l 17
 89 94 132 95 132 284 c 2
 132 363 l 2
 132 459 168 512 218 560 c 0
 259 597 315 614 369 614 c 0
 392 614 463 609 463 562 c 0
 463 528 440 505 406 505 c 0
 388 505 372 517 358 531 c 0
 342 548 343 574 321 574 c 0
 274 574 262 502 262 414 c 2
 262 306 l 2
 262 181 204 134 165 104 c 0
EndSplineSet
Validated: 3109
EndChar
StartChar: currency
Encoding: 164 164 315
Width: 463
Flags: W
HStem: 122 55<163.571 296.835> 422 55<165.63 295.945>
VStem: 33 81<227.556 371.058> 346 81<227.797 370.03>
LayerCount: 2
Fore
SplineSet
230 122 m 3
 192 122 159 131 130 147 c 1
 116 129 95 103 84 89 c 1
 23 148 l 1
 76 191 l 1
 48 226 33 261 33 299 c 3
 33 338 48 374 77 409 c 1
 61 421 40 437 25 450 c 1
 80 507 l 1
 130 452 l 1
 160 468 193 477 232 477 c 3
 272 477 302 467 331 451 c 1
 347 470 371 498 382 512 c 1
 440 451 l 1
 385 406 l 1
 413 372 427 337 427 299 c 3
 427 263 412 228 386 193 c 1
 402 180 423 162 438 149 c 1
 384 91 l 1
 333 149 l 1
 303 132 269 122 230 122 c 3
114 300 m 3
 114 230 163.97 177 230 177 c 3
 297.03 177 346 231 346 299 c 3
 346 371 290.078 422 232 422 c 3
 166.969 422 114 369 114 300 c 3
EndSplineSet
Validated: 3073
EndChar
StartChar: yen
Encoding: 165 165 316
Width: 540
VWidth: 999
Flags: W
HStem: -2 34<118.77 201.807 366.193 449.23> 135 42<98 478> 245 42<98 478> 568 34<10.631 62.545 217.431 272.23 344.77 400.806 477.393 535.23>
VStem: 219 130<44.9117 327.659>
LayerCount: 2
Back
SplineSet
46.875 610.125 m 1049,0,-1
0 0 m 1,5,-1
 0 600.012 l 1025,2,-1
EndSplineSet
Fore
SplineSet
349 122 m 2
 349 39 366 35 446 32 c 1
 452 26 452 4 446 -2 c 1
 396 -1 352.065 0 292 0 c 27
 225.695 0 171 -1 122 -2 c 1
 116 4 116 26 122 32 c 1
 202 35 219 39 219 122 c 2
 219 259 l 2
 219 285.333 217.658 290.489 195 332 c 2
 107.665 492 l 2
 81.5986 542.739 55.9619 565 14 568 c 1
 8 574 7 596 13 602 c 1
 43 601 111 600 150 600 c 3
 190 600 229 601 269 602 c 1
 275 596 275 574 269 568 c 1
 213 565 211.428 555.25 223 531 c 2
 298.398 373 l 2
 310.082 348.517 318.811 347.316 328.59 370 c 2
 398 531 l 2
 409.732 559.905 392.343 565.044 348 568 c 1
 342 574 342 596 348 602 c 1
 388 601 426 600 449 600 c 3
 472 600 501.98 601 532 602 c 1
 538 596 538 574 532 568 c 1
 487.331 563.746 463.407 549.274 445.228 510 c 2
 367 351 l 2
 349.815 316.072 349 307.46 349 267.667 c 2
 349 122 l 2
478 287 m 1
 478 245 l 1
 98 245 l 1
 98 287 l 1
 478 287 l 1
478 177 m 1
 478 135 l 1
 98 135 l 1
 98 177 l 1
 478 177 l 1
EndSplineSet
Validated: 3109
Substitution2: "LinLibertine-'pnum' Proportionalziffern 1" Yen.fitted
EndChar
StartChar: brokenbar
Encoding: 166 166 317
Width: 220
VWidth: 999
Flags: W
VStem: 80 60<-201 161 312 674>
LayerCount: 2
Fore
SplineSet
140 161 m 1
 140 -201 l 1
 80 -201 l 1
 80 161 l 1
 140 161 l 1
140 674 m 1
 140 312 l 1
 80 312 l 1
 80 674 l 1
 140 674 l 1
EndSplineSet
Validated: 3073
EndChar
StartChar: section
Encoding: 167 167 318
Width: 466
VWidth: 999
Flags: W
HStem: -169 35<169.195 266.67> 623 35<199.45 301.398>
VStem: 30 77<261.034 347.36> 52 101<-101.39 -18.6533> 64 104<471.549 574.088> 299 110<-99.3816 14.6586 492.198 576.261> 313 102<509.427 598.479> 360 77<147.315 240.938>
LayerCount: 2
Back
SplineSet
351.562 82.0312 m 4
 336.914 96.6797 l 5
 358.887 115.723 373.535 141.113 373.535 170.898 c 4
 373.535 264.701 276.123 330.811 116.943 402.832 c 4
 110.821 405.602 83.0078 421.833 83.0078 504.395 c 4
 83.0078 569.751 149.018 657.715 244.141 657.715 c 4xe4
 317.483 657.715 386.719 604.688 386.719 532.715 c 4
 386.719 511.919 368.472 494.629 350.098 494.629 c 4
 313.665 494.629 308.594 525.566 308.594 534.18 c 4
 308.594 547.949 312.175 555.503 315.729 561.035 c 4
 318.446 565.264 320.312 569.092 320.312 574.219 c 4xe5
 320.312 578.853 305.193 627.441 248.047 627.441 c 4
 190.854 627.441 149.902 576.401 149.902 523.926 c 4
 149.902 476.776 178.762 458.334 225.098 436.902 c 4
 303.551 400.616 417.969 341.686 417.969 219.238 c 4xe480
 417.969 160.645 397.461 115.234 356.934 83.4961 c 5
 351.562 82.0312 l 4
349.609 88.8672 m 4
 380.371 63.9648 390.625 19.5312 390.625 -13.1836 c 4
 390.625 -78.1133 314.858 -168.945 222.656 -168.945 c 4
 150.167 -168.945 80.5664 -115.84 80.5664 -43.457 c 4
 80.5664 -20.6055 99.7354 -5.37109 117.188 -5.37109 c 4
 152.507 -5.37109 158.691 -35.7812 158.691 -44.9219 c 4
 158.691 -66.9434 146.484 -72.9492 146.484 -84.9609 c 4xea
 146.484 -90.9609 163.112 -138.689 221.02 -138.689 c 4
 266.216 -138.689 317.383 -102.227 317.383 -34.668 c 4
 317.383 0.976562 295.898 34.1797 263.184 50.293 c 4
 103.428 127.213 48.8281 183.691 48.8281 275.879 c 4xf2
 48.8281 332.586 71.4092 378.721 109.714 410.352 c 13
 115.675 406.562 125 400.635 125 400.635 c 4
 104.299 381.977 93.2617 352.812 93.2617 324.219 c 4xf080
 93.2617 256.641 159.32 184.265 225.586 155.273 c 4
 303.711 121.094 322.846 110.533 349.609 88.8672 c 4
EndSplineSet
Fore
SplineSet
352 82 m 0xc9
 330 97 l 1
 352 116 360 141 360 171 c 3xc9
 360 255 294 291 161 352 c 0
 116 373 64 424 64 504 c 3
 64 537 83 583 116 613 c 0
 149 643 196 658 244 658 c 3
 342 658 415 613 415 528 c 3xca
 415 500 382 478 359 478 c 3
 316 478 299 518 299 529 c 3xc4
 299 560 313 561 313 577 c 3xc2
 313 599 300 623 248 623 c 3
 191 623 168 576 168 524 c 3
 168 477 198 459 244 437 c 0
 356 382 437 342 437 219 c 3
 437 161 397 115 357 83 c 1
 352 82 l 0xc9
409 -26 m 3xe4
 409 -95 360 -169 223 -169 c 3
 150 -169 52 -125 52 -37 c 3
 52 -11 83 12 105 12 c 3
 147 12 169 -28 169 -39 c 3
 169 -65 153 -73 153 -87 c 3xd4
 153 -94 163 -134 221 -134 c 3
 266 -134 299 -100 299 -33 c 3
 299 18 232 55 181 83 c 0
 70 145 30 197 30 276 c 3
 30 333 71 380 110 412 c 9
 119 407 132 399 132 399 c 0
 112 380 107 353 107 324 c 3
 107 275 137 229 247 176 c 0
 343 131 409 53 409 -26 c 3xe4
EndSplineSet
Validated: 3077
EndChar
StartChar: dieresis
Encoding: 168 168 319
Width: 410
VWidth: 999
Flags: W
HStem: 519 109<68.037 156.257 253.743 341.963>
VStem: 57 110<530.463 616.462> 243 110<530.463 616.462>
LayerCount: 2
Back
SplineSet
-260 628 m 5
 649 628 l 5
 649 519 l 5
 -260 519 l 5
 -260 628 l 5
EndSplineSet
Fore
SplineSet
57 573 m 7
 57 604 82 628 112 628 c 7
 143 628 167 604 167 573 c 7
 167 543 143 519 112 519 c 7
 82 519 57 543 57 573 c 7
243 573 m 3
 243 604 267 628 298 628 c 3
 328 628 353 604 353 573 c 3
 353 543 328 519 298 519 c 3
 267 519 243 543 243 573 c 3
EndSplineSet
Validated: 3073
EndChar
StartChar: copyright
Encoding: 169 169 320
Width: 641
VWidth: 999
Flags: HMW
LayerCount: 2
Fore
SplineSet
439 218 m 1
 421 188 383 158 334 158 c 3
 296 158 252 173 227 200 c 0
 200 229 187 267 187 306 c 3
 187 387 249 450 328 450 c 3
 391 450 407 436 425 430 c 1
 430 400 433 382 434 360 c 1
 430 357 423 357 416 357 c 1
 393 402 381 417 338 417 c 3
 308 417 274 392 274 305 c 3
 274 235 296 198 347 198 c 3
 393 198 412 218 422 233 c 1
 431 230 435 224 439 218 c 1
EndSplineSet
Refer: 2183 57600 S 1 0 0 1 0 0 3
EndChar
StartChar: ordfeminine
Encoding: 170 170 321
Width: 297
VWidth: 999
Flags: W
HStem: 348 37<81.2085 150.956 201.5 269.366> 615 30<91.9692 157.69>
VStem: 15 74<386.436 461.777 541.162 604.121> 169 76<391.7 492 519 611.878>
LayerCount: 2
Back
SplineSet
0 647 m 29
 368 647 l 1053
0 641 m 29
 368 641 l 1053
0 708 m 29
 368 708 l 29
 368 348 l 29
 0 348 l 29
 0 708 l 29
0 702 m 29
 368 702 l 29
 368 354 l 29
 0 354 l 29
 0 702 l 29
0 748.77 m 29
 307.129 748.77 l 1053
EndSplineSet
Fore
SplineSet
167 408 m 1
 169 492 l 1
 104 471 89 440 89 421 c 3
 89 400 96 385 122 385 c 3
 140 385 149 391 167 408 c 1
169 519 m 1
 170 591.5 158 615 135 615 c 3
 105 615 88 603 88 590 c 0
 88 578 93 578 93 565 c 3
 93 550 73 537 54 537 c 3
 39 537 20 546 20 569 c 3
 20 609 85.5 645 137 645 c 3
 161 645 192.045 641.808 213 626 c 0
 241.5 604.5 246.619 577.772 245 513 c 2
 243 433 l 2
 241.924 389.939 248 386 257 386 c 3
 261 386 270 390 273 392 c 1
 283 376 l 1
 266 361 234 348 215 348 c 3
 188 348 173 357 170 381 c 1
 146 357 111 348 92 348 c 3
 71 348 53 351 37 363 c 0
 20 375 15 398 15 418 c 3
 15 458 63.4102 493.246 128 509 c 2
 169 519 l 1
EndSplineSet
EndChar
StartChar: guillemotleft
Encoding: 171 171 322
Width: 555
VWidth: 999
Flags: W
LayerCount: 2
Back
SplineSet
336 215 m 5
 373.5 257.5 411 306 463 385 c 5
 460.5 395 449.5 402.75 439 404 c 5
 359.5 318.5 309.5 270 254 221 c 5
 254 209 l 5
 309.5 160 359.5 111.5 439 26 c 5
 449.5 27.25 460.5 35 463 45 c 5
 411 124 373.5 172.5 336 215 c 5
156 215 m 5
 193.5 257.5 231 306 283 385 c 5
 280.5 395 269.5 402.75 259 404 c 5
 179.5 318.5 129.5 270 74 221 c 5
 74 209 l 5
 129.5 160 179.5 111.5 259 26 c 5
 269.5 27.25 280.5 35 283 45 c 5
 231 124 193.5 172.5 156 215 c 5
EndSplineSet
Fore
SplineSet
262 207 m 1
 262 223 l 1
 329.877 284.089 375.066 323.321 446 407 c 1
 455.5 404 470 395 475 385 c 1
 435.5 309.5 402 254 371 215 c 1
 402 176 435.5 120.5 475 45 c 1
 470 35 455.5 26 446 23 c 1
 375.066 106.679 329.877 145.911 262 207 c 1
74 207 m 1
 74 223 l 1
 141.877 284.089 187.066 323.321 258 407 c 1
 267.5 404 282 395 287 385 c 1
 247.5 309.5 214 254 183 215 c 1
 214 176 247.5 120.5 287 45 c 1
 282 35 267.5 26 258 23 c 1
 187.066 106.679 141.877 145.911 74 207 c 1
EndSplineSet
Validated: 3073
Substitution2: "LinLibertine-'case' Versalformen 1" guillemotleft.sc
Substitution2: "LinLibertine-'c2sc' Versale nach Kapitaelchen 1" guillemotleft.sc
AlternateSubs2: "LinLibertine-'aalt' Alle Alternativen zeigen 1" guillemotleft.sc
EndChar
StartChar: logicalnot
Encoding: 172 172 323
Width: 560
VWidth: 487
Flags: W
HStem: 347 54<24 463>
VStem: 463 74<133 347>
LayerCount: 2
Fore
SplineSet
463 133 m 5
 463 347 l 5
 24 347 l 1
 24 401 l 1
 537 401 l 1
 537 133 l 1
 463 133 l 5
EndSplineSet
Validated: 3073
EndChar
StartChar: registered
Encoding: 174 174 325
Width: 641
VWidth: 999
Flags: HMW
LayerCount: 2
Fore
SplineSet
290 417 m 1x3c
 290 316 l 1
 335 316 368 318 368 364 c 3
 368 399 354 419 324 419 c 3
 316 419 299 419 290 417 c 1x3c
290 249 m 2
 290 203 300 199 323 197 c 1
 326 194 326 181 323 178 c 1
 305 179 285 179 256 179 c 3
 226 179 201 179 178 178 c 1
 175 181 175 194 178 197 c 1
 212 199 220 203 220 249 c 2
 220 367 l 2
 220 413 212 417 178 419 c 1
 175 422 175 435 178 438 c 1
 202 437 226 437 256 437 c 3
 271 437 326 441 346 441 c 3
 424 441 445 403 445 374 c 3
 445 346 427 318 385 305 c 1
 399 280 414.933782957 252.150528627 431 229 c 0
 442.544525306 212.364978646 458 199 473 196 c 1
 475 192 476 181 474 178 c 1x7c
 469 175 453 174 433 174 c 3xbc
 402 174 375 196 359 219 c 2
 324 280 l 2
 320 287 316 292 313 293 c 0
 303 298 296 298 290 298 c 1
 290 249 l 2
EndSplineSet
Refer: 2183 57600 N 1 0 0 1 0 0 3
EndChar
StartChar: macron
Encoding: 175 175 326
Width: 397
VWidth: 999
Flags: W
HStem: 519 54<61.4347 336.052>
VStem: 59 280<519.261 573>
LayerCount: 2
Fore
SplineSet
315 519 m 6
 71 519 l 6
 62 519 59 532 59 539 c 0
 59 551 69 573 81 573 c 2
 325 573 l 2
 335 573 339 560 339 554 c 0
 339 542 328 519 315 519 c 6
EndSplineSet
Validated: 3073
EndChar
StartChar: degree
Encoding: 176 176 327
Width: 267
VWidth: 999
Flags: W
HStem: 426 28<94.106 172.786> 597 28<94.5381 173.014>
VStem: 34 33<478.027 571.781> 200 33<478.225 572.941>
LayerCount: 2
Back
SplineSet
219.727 374.512 m 0
 219.727 406.738 198.242 447.266 153.32 447.266 c 0
 110.352 447.266 86.9141 409.668 86.9141 374.512 c 0
 86.9141 339.355 111.328 303.711 153.32 303.711 c 0
 194.824 303.711 219.727 339.844 219.727 374.512 c 0
47.8516 373.535 m 0
 47.8516 431.152 91.3086 469.727 154.297 469.727 c 0
 224.121 469.727 259.766 430.664 259.766 373.535 c 0
 259.766 313.477 213.379 277.832 153.32 277.832 c 0
 87.8906 277.832 47.8516 317.871 47.8516 373.535 c 0
54.1992 592.773 m 4
 54.1992 647.759 98.8242 692.383 153.809 692.383 c 4
 208.793 692.383 253.418 647.759 253.418 592.773 c 4
 253.418 537.788 208.793 493.164 153.809 493.164 c 4
 98.8242 493.164 54.1992 537.788 54.1992 592.773 c 4
EndSplineSet
Fore
SplineSet
28 525 m 0
 28 584 76 631 134 631 c 0
 192 631 239 584 239 525 c 0
 239 467 192 420 134 420 c 0
 76 420 28 467 28 525 c 0
196 524 m 4
 196 555 176 593 134 593 c 4
 94 593 71 558 71 524 c 4
 71 491 95 458 134 458 c 4
 173 458 196 492 196 524 c 4
EndSplineSet
Validated: 3073
EndChar
StartChar: plusminus
Encoding: 177 177 328
Width: 527
VWidth: 999
Flags: HW
HStem: 17 60<74 463> 280 74<61 232 306 477> 498 20<232 306>
VStem: 232 74<117 280 354 518>
LayerCount: 2
Back
SplineSet
-58.1055 256.836 m 29
 565.43 256.836 l 1053
0 572.012 m 5
 527.344 572.012 l 5
 527.344 0 l 5
 0 0 l 5
 0 572.012 l 5
EndSplineSet
Fore
Refer: 8 43 S 1 0 0 1 0 85 2
Refer: 1205 8722 N 1 0 0 1 0 -189 2
EndChar
StartChar: two.superior
Encoding: 178 178 329
Width: 340
VWidth: 487
Flags: MW
HStem: 364 57<124 248.58> 679 30<114.931 177.423>
VStem: 33 77.6885<587.846 660.824> 190 89<564.863 668.344>
DStem2: 94.2493 478.5 151.297 465.5 0.737072 0.675814<-15.6788 148.435>
LayerCount: 2
Back
SplineSet
0 709 m 25
 340 709 l 25
 340 358 l 25
 0 358 l 25
 0 709 l 25
0 703 m 25
 340 703 l 25
 340 364 l 25
 0 364 l 25
 0 703 l 25
EndSplineSet
Fore
SplineSet
33 626 m 7
 33 654 85 709 164 709 c 7
 191 709 225.5 707.5 249.5 688.5 c 4
 270.5 672.5 279 654 279 622 c 7
 279 597.68 272.433 579.98 250 556 c 4
 235.5 540.5 211.978 518.773 194 502.99 c 6
 151.297 465.5 l 6
 132.748 450.773 125.478 434.306 124 421 c 5
 206 421 l 6
 237 421 261 453 272 483 c 5
 283 483 295 481 300 477 c 5
 296 438 280 393 271 364 c 5
 35 364 l 5
 35 405.844 59.6414 444.867 94.2493 478.5 c 6
 152.876 532.5 l 6
 179.311 556.848 190 586.067 190 608 c 7
 190 631.838 185.807 651.019 178 664 c 4
 171.923 674.104 158.316 679 150 679 c 7
 128 679 117 674 112 661 c 4
 110.797 657.392 110.537 644.35 110.537 637.834 c 4
 110.537 632.875 110.688 627.642 110.688 622.998 c 4
 110.688 618.528 110.548 614.604 110 612 c 4
 106.555 595.635 88.2715 582.979 67.291 582.979 c 4
 40.4258 582.979 33 600.557 33 626 c 7
EndSplineSet
Validated: 3073
EndChar
StartChar: three.superior
Encoding: 179 179 330
Width: 340
Flags: MW
HStem: 359 30<110.784 183.197> 526 30<105 138.576> 679 30<120.601 187.273>
VStem: 197 86<592.583 673.658> 214 95<419.827 517.995>
LayerCount: 2
Back
SplineSet
0 709 m 29
 340 709 l 29
 340 358 l 29
 0 358 l 29
 0 709 l 29
0 703 m 29
 340 703 l 29
 340 364 l 29
 0 364 l 29
 0 703 l 29
EndSplineSet
Fore
SplineSet
197 635 m 7xf0
 197 664 177 679 155 679 c 7
 133 679 110 663 108 640 c 4
 108 626 97 600 68 600 c 7
 36 600 35 624 35 628 c 7
 35 647 69 709 172 709 c 7
 237 709 283 682 283 640 c 7xf0
 283 615 265 590 236 571 c 4
 235 570 234 568 236 567 c 4
 273 556 309 536 309 482 c 7
 309 406 228 359 138 359 c 7
 92 359 36 368 26 400 c 4
 19 422 35 445 61 445 c 7
 89 445 99 417 106 408 c 4
 114 399 127 389 148 389 c 7
 168 389 214 412 214 474 c 7xe8
 214 518 180 530 139 530 c 7
 130 530 118 529 105 526 c 5
 105 556 l 5
 149 562 197 592 197 635 c 7xf0
EndSplineSet
Validated: 3105
EndChar
StartChar: uni00B5
Encoding: 181 181 332
Width: 559
Flags: W
HStem: -232 21G<110 136> -10 70<399 509.55> -10 63<188.835 286.741> 427 20G<36 174.577 334 464>
VStem: 47 136<-207.146 -5.68021 57.6932 433.938> 64 102<-162.013 -3> 334 130<78.3125 434>
LayerCount: 2
Back
SplineSet
424.805 38.0859 m 4
 436.279 38.0859 444.58 48.0957 459.473 81.543 c 5
 483.562 70.9648 l 5
 460.205 8.05664 432.129 -10.2539 386.23 -10.2539 c 1028
109.375 -234.375 m 0xd9
 101.074 -234.375 62.5 -225.098 62.5 -176.758 c 0xd9
 62.5 -125.977 90.332 -59.5703 90.332 3.90625 c 0xd3
 90.332 36.6211 82.5195 82.5195 82.5195 134.277 c 2
 82.5195 334.473 l 2
 82.5195 362.479 79.5898 429.688 79.5898 429.688 c 1
 154.297 438.477 l 1
 154.297 438.477 157.227 375 157.227 342.773 c 2
 157.227 147.461 l 2
 157.227 81.543 168.457 33.2031 221.191 33.2031 c 0xd5
 275.879 33.2031 330.566 65.918 352.539 98.6328 c 1
 352.539 429.688 l 1
 427.246 438.477 l 1
 427.246 124.023 l 2
 427.246 61.0352 427.734 39.5508 453.613 39.5508 c 0
 469.238 39.5508 483.398 57.1289 492.676 83.4961 c 1
 508.789 77.1484 l 1
 493.164 27.3438 470.215 -5.85938 415.039 -5.85938 c 0xb5
 377.93 -5.85938 352.539 21.4844 352.539 60.0586 c 1
 312.5 15.625 263.184 -12.207 202.148 -12.207 c 0
 180.664 -12.207 156.25 0 145.02 12.6953 c 1
 139.16 12.6953 133.789 8.78906 133.789 4.39453 c 0xd3
 133.789 -60.5469 156.738 -130.859 156.738 -174.316 c 0
 156.738 -215.332 128.418 -234.375 109.375 -234.375 c 0xd9
427.246 124.023 m 2
 427.246 71.2891 428.223 54.1992 435.547 46.3867 c 0
 439.941 42.4805 445.801 39.5508 453.613 39.5508 c 0
 471.191 39.5508 481.934 57.6172 492.676 83.4961 c 1
 508.789 76.6602 l 1
 493.164 30.7617 471.191 -5.85938 415.039 -5.85938 c 1024
EndSplineSet
Fore
SplineSet
343.203 48.5449 m 1xda
 335 48 l 1
 294 15 267 -10 212 -10 c 3
 196 -10 180 -9 166 -3 c 1xb6
 168 -35 165 -67 171 -96 c 0
 177 -122 183 -151 183 -168 c 3
 183 -211 152 -232 120 -232 c 3
 100 -232 47 -206 47 -163 c 3xba
 47 -142 50 -118 54 -92 c 0
 58 -66 64 -40 64 -4 c 3xb6
 64 10 62 26 61 46 c 0
 58 72 47 111.5 47 137 c 2
 47 323 l 2
 47 348 36 434 36 434 c 1
 174 447 l 1
 174 447 177 375 177 343 c 2
 177 160 l 2
 177 97 185 53 220 53 c 3xba
 261 53 312 68 334 98 c 1
 334 434 l 1
 464 448 l 1
 464 127 l 2
 464 78 474 60 496 60 c 3
 515.026 60 525 64 538 74 c 1
 550 64 556 58 556 46 c 1
 519 11 476.326 -10 421 -10 c 3
 377 -10 350 8 343.203 48.5449 c 1xda
EndSplineSet
Validated: 3073
EndChar
StartChar: pilcrow
Encoding: 182 182 333
Width: 602
VWidth: 999
Flags: W
HStem: -238 21G<221 288.5 393 446.5> 256 391<126.483 290.165> 586 59<390.413 443.918> 613 34<532.829 596.383>
VStem: 27 345<351.449 547.122> 298 74<36.2319 275> 444 74<2.41026 585.496>
LayerCount: 2
Fore
SplineSet
372 275 m 2xa6
 372 -75.4423767574 353 -162.396484375 224 -238 c 1
 218 -237 212 -231 211 -224 c 1
 297.365234375 -136 297.959960938 -68 298 275 c 1xa6
 292 277 l 1
 252.68359375 259 224 256 192 256 c 3
 146 256 27 303 27 446 c 0
 27 569 97.939453125 647 230 647 c 3xca
 305.026367188 647 343 645 425 645 c 3xaa
 484 645 551 646 591 647 c 1
 601 641 601 619 591 613 c 1x9a
 536 610 518 606 518 523 c 2
 518 236 l 2
 518 -63 497 -131.606445312 397 -208 c 5
 389 -207 385 -204 383 -197 c 1
 434.548828125 -115 444 -61 444 217 c 2
 444 554 l 18
 444 583 443 586 433 586 c 3
 412.439090349 586 396.1328125 577.817382812 388.458007812 560 c 0
 375.104492188 529 372 463 372 294 c 2
 372 275 l 2xa6
EndSplineSet
EndChar
StartChar: periodcentered
Encoding: 183 183 334
Width: 250
VWidth: 1184
Flags: W
HStem: 186 134<75.9785 174.09>
VStem: 57 136<204.865 300.75>
LayerCount: 2
Back
SplineSet
125 199 m 3
 97 199 71 225 71 253 c 3
 71 281 97 307 125 307 c 3
 153 307 179 281 179 253 c 3
 179 225 153 199 125 199 c 3
-103.882 256.408 m 25
 675.537 256.408 l 1049
-31.25 650.376 m 1
 627.93 650.376 l 1
 627.93 -64.6367 l 1
 -31.25 -64.6367 l 1
 -31.25 650.376 l 1
EndSplineSet
Fore
SplineSet
125 186 m 3
 84 186 57 218 57 253 c 3
 57 288 88 320 125 320 c 3
 159 320 193 291 193 253 c 3
 193 217 163 186 125 186 c 3
EndSplineSet
Validated: 3073
EndChar
StartChar: one.superior
Encoding: 185 185 336
Width: 340
Flags: W
HStem: 363 30<75.5037 135.126 246.861 294.153>
VStem: 149 88<401.951 639.993>
LayerCount: 2
Back
SplineSet
0 709 m 29
 340 709 l 29
 340 358 l 29
 0 358 l 29
 0 709 l 29
0 703 m 29
 340 703 l 29
 340 364 l 29
 0 364 l 29
 0 703 l 29
EndSplineSet
Fore
SplineSet
135 640 m 3
 122 640 103 634 78 625 c 1
 70.0869 631.126 68 646 68 658 c 1
 115 675 160 691 205 714 c 1
 210.333 716.881 231.667 718.986 237 714 c 1
 237 449 l 2
 237 398 258 395 292 393 c 1
 296 385 296 370 292 363 c 1
 262 364 231.612 364 193 364 c 19
 157.683 364 108 364 78 363 c 1
 74 369 73 385 78 393 c 1
 118 395 149 398 149 449 c 2
 149 599 l 2
 149 631 147 640 135 640 c 3
EndSplineSet
Validated: 3105
EndChar
StartChar: ordmasculine
Encoding: 186 186 337
Width: 368
VWidth: 914
Flags: W
HStem: 303 33<149.283 228.274> 537 29<143.391 219.617>
VStem: 39 88<357.347 502.213> 243 87<363.02 504.326>
LayerCount: 2
Back
SplineSet
0.488281 687.988 m 29
 307.617 687.988 l 29
 307.617 358.398 l 29
 0.488281 358.398 l 29
 0.488281 687.988 l 29
0.488281 682.129 m 29
 307.617 682.129 l 29
 307.617 364.258 l 29
 0.488281 364.258 l 29
 0.488281 682.129 l 29
EndSplineSet
Fore
SplineSet
180 537 m 3
 130 537 127 493 127 439 c 3
 127 390 132 336 192 336 c 3
 219 336 243 347 243 419 c 3
 243 499 230 537 180 537 c 3
39 429 m 3
 39 514 108 566 186 566 c 19
 214.656 566 237.785 562.931 262 549 c 4
 304.542 524.526 330 477.697 330 435 c 3
 330 367 281.006 303 181 303 c 3
 92.9932 303 39 357 39 429 c 3
EndSplineSet
Validated: 3073
EndChar
StartChar: onequarter
Encoding: 188 188 339
Width: 700
VWidth: 999
Flags: W
HStem: -136 30<449.504 509.126 614.056 658.153> -29 42<428 523 606 663> 314 30<72.5037 132.126 243.861 291.153> 581 20G<558.015 614>
VStem: 146 88<352.951 590.993> 523 83<-97.0486 -29 13 187>
DStem2: 114 -54 155 -62 0.573882 0.818938<16.9776 799.242>
LayerCount: 2
Back
SplineSet
352.539 239.258 m 29
 660.156 239.258 l 29
 660.156 -78.6133 l 29
 352.539 -78.6133 l 29
 352.539 239.258 l 29
0.488281 633.789 m 29
 308.105 633.789 l 29
 308.105 315.918 l 29
 0.488281 315.918 l 29
 0.488281 633.789 l 29
532.412 600.586 m 5
 573.916 600.586 l 5
 115.418 -54.1992 l 5
 73.9141 -53.7109 l 5
 532.412 600.586 l 5
EndSplineSet
Fore
SplineSet
572 601 m 5
 614 593 l 5
 155 -62 l 5
 114 -54 l 5
 572 601 l 5
EndSplineSet
Refer: 1089 8324 N 1 0 0 1 348 30 2
Refer: 336 185 N 1 0 0 1 -3 -49 2
Validated: 35845
Ligature2: "LinLibertine-'frac' Brueche 1" one slash four
LCarets2: 2 0 0
EndChar
StartChar: onehalf
Encoding: 189 189 340
Width: 700
VWidth: 999
Flags: W
HStem: -79 57<482 606.58> 236 30<472.931 535.423> 314 30<74.5037 134.126 245.861 293.153> 581 20G<538.015 594>
VStem: 148 88<352.951 590.993> 391 77.6885<144.846 217.824> 548 89<121.863 225.344>
DStem2: 94 -54 135 -62 0.573882 0.818938<16.9776 799.242> 452.249 35.5 509.297 22.5 0.737072 0.675814<-15.6788 148.435>
LayerCount: 2
Back
SplineSet
352.539 239.258 m 29
 660.156 239.258 l 29
 660.156 -78.6133 l 29
 352.539 -78.6133 l 29
 352.539 239.258 l 29
0.488281 633.789 m 29
 308.105 633.789 l 29
 308.105 315.918 l 29
 0.488281 315.918 l 29
 0.488281 633.789 l 29
532.412 600.586 m 5
 573.916 600.586 l 5
 115.418 -54.1992 l 5
 73.9141 -53.7109 l 5
 532.412 600.586 l 5
EndSplineSet
Fore
SplineSet
552 601 m 1
 594 593 l 1
 135 -62 l 1
 94 -54 l 1
 552 601 l 1
EndSplineSet
Refer: 329 178 N 1 0 0 1 358 -443 2
Refer: 336 185 N 1 0 0 1 -1 -49 2
Validated: 35841
Ligature2: "LinLibertine-'frac' Brueche 1" one slash two
LCarets2: 2 0 0
EndChar
StartChar: threequarters
Encoding: 190 190 341
Width: 700
VWidth: 999
Flags: W
HStem: -134 30<453.504 513.126 618.056 662.153> -27 42<432 527 610 667> 308 30<108.784 181.197> 475 30<103 136.576> 581 20G<568.015 624> 628 30<118.601 185.273>
VStem: 195 86<541.583 622.658> 212 95<368.827 466.995> 527 83<-95.0486 -27 15 189>
DStem2: 124 -54 165 -62 0.573882 0.818938<16.9776 799.242>
LayerCount: 2
Back
SplineSet
352.539 239.258 m 29
 660.156 239.258 l 29
 660.156 -78.6133 l 29
 352.539 -78.6133 l 29
 352.539 239.258 l 29
0.488281 633.789 m 29
 308.105 633.789 l 29
 308.105 315.918 l 29
 0.488281 315.918 l 29
 0.488281 633.789 l 29
532.412 600.586 m 5
 573.916 600.586 l 5
 115.418 -54.1992 l 5
 73.9141 -53.7109 l 5
 532.412 600.586 l 5
EndSplineSet
Fore
SplineSet
582 601 m 5xfc80
 624 593 l 5
 165 -62 l 5
 124 -54 l 5
 582 601 l 5xfc80
EndSplineSet
Refer: 330 179 N 1 0 0 1 -2 -51 2
Refer: 1089 8324 N 1 0 0 1 352 32 2
Validated: 35845
Ligature2: "LinLibertine-'frac' Brueche 1" three slash four
LCarets2: 2 0 0
EndChar
StartChar: Adieresis
Encoding: 196 196 347
Width: 740
VWidth: 999
Flags: W
HStem: -2 34<3.77002 69.5762 167.992 237.23 421.77 500.035 664.842 733.23> 235 48<250.587 425> 638 20<426.5 441.203> 641 113<178.613 267.387 495.997 584.771>
VStem: 167 112<652.613 742.003> 484 112<652.613 742.003>
DStem2: 106.983 102 165 79 0.390001 0.920814<-25.5008 179.412 231.412 451.365> 323.835 614 336.175 520 0.390001 0.920814<-540.408 -382.79 -329.399 -81.7439> 434 658 343.096 520 0.338836 -0.940845<99.0351 349.768 401.027 600.306>
AnchorPoint: "top_akzent" 362 894 basechar 0
LayerCount: 2
Fore
SplineSet
484 697 m 4xdc
 484 729 509 754 541 754 c 4
 573 754 596 729 596 697 c 4
 596 665 573 641 541 641 c 4
 509 641 484 665 484 697 c 4xdc
167 697 m 4
 167 729 191 754 223 754 c 4
 255 754 279 729 279 697 c 4
 279 665 255 641 223 641 c 4
 191 641 167 665 167 697 c 4
EndSplineSet
Refer: 24 65 N 1 0 0 1 0 0 3
Validated: 35841
Substitution2: "LinLibertine-'ss01' Stilgruppe 1 1" Adieresis.alt
Substitution2: "LinLibertine-'c2sc' Versale nach Kapitaelchen 1" adieresis.sc
AlternateSubs2: "LinLibertine-'aalt' Alle Alternativen zeigen 1" adieresis.sc
Position2: "'cpsp' Versalabstaende 1" dx=2 dy=0 dh=5 dv=0
EndChar
StartChar: AE
Encoding: 198 198 349
Width: 956
VWidth: 999
Flags: W
HStem: -2 34<8.77002 69.2913 171.658 242.23 358.77 432.943> 0 42<596.172 801.205> 266 50<297 449> 317 50<589 748.134> 496 149<825.745 866.173> 603 42<596.747 785.219> 613 34<306 366.614>
VStem: 449 140<48.1312 266 316 317 367 558.22> 761 43<252.086 302.875 377.375 431.914> 833 43<498.655 549.073> 872 45<116.761 167.943>
DStem2: 111.983 102 170 79 0.471959 0.88162<-17.4171 219.635 275.987 558.177>
AnchorPoint: "unten_punkt" 549 -107 basechar 0
AnchorPoint: "unten_anhang" 549 4 basechar 0
AnchorPoint: "top_akzent" 553 805 basechar 0
LayerCount: 2
Fore
SplineSet
297 316 m 1x3180
 449 316 l 1
 449 545 l 2
 449 571 437 578 420 546 c 2
 297 316 l 1x3180
111.983 102 m 2
 364 562 l 2
 383.787 598.117 358 613 312 613 c 0xb3a0
 306 613 304 616 304 620 c 2
 304 645 l 1x35a0
 306 647 l 1x33a0
 513 645 l 2
 811 645 l 2x35a0
 835 645 843 646 860 649 c 0
 863 649 864 648 864 646 c 0
 866 638 871 542 876 501 c 1
 866.245 496.332 845.419 494.244 833 496 c 1x39c0
 811 565 790 603 715 603 c 2
 630 603 l 2
 606 603 589 578 589 554 c 2
 589 367 l 1
 670 367 l 2
 737 367 758 374 761 429 c 1
 767 435 798 435 804 429 c 1
 803 399 802 377 802 343 c 0
 802 309 803 290 804 255 c 1
 798 249 767 249 761 255 c 1
 758 300 739 317 670 317 c 2
 589 317 l 1
 589 90 l 2
 589 63 608 42 630 42 c 2
 731 42 l 2x75c0
 807 42 852 98 872 170 c 1
 885.099 173.181 906.599 170.95 917 165 c 1
 909 114 904 48 890 -2 c 1xb1a0
 890 -2 800 0 752 0 c 2
 516 0 l 2x71a0
 516 0 411 -1 362 -2 c 1
 356 4 356 26 362 32 c 1
 432 35 449 39 449 122 c 2
 449 266 l 1
 271 266 l 1
 170 79 l 2
 148.917 39.9647 201.361 34.5957 239 32 c 1
 245 26 245 4 239 -2 c 1xb1a0
 202 -1 147 0 106 0 c 0x71a0
 67 0 49 -1 12 -2 c 1
 6 4 6 26 12 32 c 1xb1a0
 55.5 35 80.2 43.9865 111.983 102 c 2
EndSplineSet
Validated: 3105
Substitution2: "LinLibertine-'c2sc' Versale nach Kapitaelchen 1" ae.sc
AlternateSubs2: "LinLibertine-'aalt' Alle Alternativen zeigen 1" ae.sc
Position2: "'cpsp' Versalabstaende 1" dx=2 dy=0 dh=5 dv=0
EndChar
StartChar: Eth
Encoding: 208 208 359
Width: 734
VWidth: 999
Flags: W
HStem: -2 34<25.6167 94.4056> -2 42<269.225 426.596> 284 42<27 348> 604 42<268.527 415.668> 613 34<25.6167 94.4056>
VStem: 114 140<54.7283 590.272> 535 151<175.935 431.978>
AnchorPoint: "top_akzent" 341 850 basechar 0
LayerCount: 2
Fore
SplineSet
27 330 m 5x26
 76.9316 327.383 134 326 192 326 c 7
 250 326 308.068 327.383 358 330 c 5
 348 280 l 5
 298.068 282.617 240 284 182 284 c 7
 124 284 66.9316 282.617 17 280 c 5
 27 330 l 5x26
EndSplineSet
Refer: 27 68 N 1 0 0 1 0 0 3
Validated: 35845
Substitution2: "LinLibertine-'c2sc' Versale nach Kapitaelchen 1" eth.sc
AlternateSubs2: "LinLibertine-'aalt' Alle Alternativen zeigen 1" eth.sc
Position2: "'cpsp' Versalabstaende 1" dx=2 dy=0 dh=5 dv=0
EndChar
StartChar: Odieresis
Encoding: 214 214 365
Width: 730
VWidth: 999
Flags: W
HStem: -10 42<308.051 450.939> 616 42<281.837 425.946> 661 113<91.6131 180.387 550.997 639.771>
VStem: 37 151<185.902 436.475> 80 112<672.613 762.003> 539 112<672.613 762.003> 543 151<200.545 457.609>
AnchorPoint: "top_akzent" 344 894 basechar 0
LayerCount: 2
Fore
SplineSet
539 717 m 0xe4
 539 749 564 774 596 774 c 0
 628 774 651 749 651 717 c 0
 651 685 628 661 596 661 c 0
 564 661 539 685 539 717 c 0xe4
80 717 m 0xe8
 80 749 104 774 136 774 c 0
 168 774 192 749 192 717 c 0
 192 685 168 661 136 661 c 0
 104 661 80 685 80 717 c 0xe8
EndSplineSet
Refer: 264 79 N 1 0 0 1 0 0 3
Substitution2: "LinLibertine-'ss01' Stilgruppe 1 1" Odieresis.alt
Substitution2: "LinLibertine-'c2sc' Versale nach Kapitaelchen 1" odieresis.sc
AlternateSubs2: "LinLibertine-'aalt' Alle Alternativen zeigen 1" odieresis.sc
Position2: "'cpsp' Versalabstaende 1" dx=2 dy=0 dh=5 dv=0
EndChar
StartChar: multiply
Encoding: 215 215 366
Width: 527
VWidth: 999
Flags: W
HStem: 69 324
VStem: 103 323
DStem2: 147 393 103 346 0.703315 -0.710878<2.46539 169 227.322 396.307> 103 111 144 69 0.707107 0.707107<0 165.463 229.81 396.687>
LayerCount: 2
Fore
SplineSet
306 232 m 1
 426 111 l 1
 383 69 l 1
 262 187 l 1
 144 69 l 1
 103 111 l 1
 221 227 l 1
 103 346 l 1
 147 393 l 1
 266 273 l 1
 382 393 l 1
 426 351 l 1
 306 232 l 1
EndSplineSet
Validated: 3073
EndChar
StartChar: Oslash
Encoding: 216 216 367
Width: 730
VWidth: 999
Flags: W
HStem: -10 42<308.051 450.939> 616 42<281.837 425.946>
VStem: 37 151<185.902 436.475> 543 151<200.545 457.609>
AnchorPoint: "top_akzent" 351 850 basechar 0
LayerCount: 2
Fore
SplineSet
88 -45 m 5
 52 -14 l 1
 608 670 l 1
 645 641 l 5
 88 -45 l 5
EndSplineSet
Refer: 264 79 N 1 0 0 1 0 0 3
Substitution2: "LinLibertine-'c2sc' Versale nach Kapitaelchen 1" oslash.sc
AlternateSubs2: "LinLibertine-'aalt' Alle Alternativen zeigen 1" oslash.sc
Position2: "'cpsp' Versalabstaende 1" dx=2 dy=0 dh=5 dv=0
EndChar
StartChar: Udieresis
Encoding: 220 220 371
Width: 732
VWidth: 999
Flags: W
HStem: -10 42<317.802 491.729> 613 34<6.77002 72.0797 231.315 252.23 555.77 575.625 662 726.23> 641 113<274.613 363.387 441.997 530.771>
VStem: 87 140<124.668 601.55> 263 112<652.613 742.003> 430 112<652.613 742.003> 581 65<145.386 599.889>
AnchorPoint: "top_akzent" 344 894 basechar 0
LayerCount: 2
Fore
SplineSet
227 522 m 2xde
 227 269 l 2
 227 204 229 129 278 82 c 0
 308.112 53.1172 349 32 397 32 c 3
 566 32 581 165 581 277 c 2
 581 522 l 2
 581 605 574 606 559 613 c 1
 553 619 553 641 559 647 c 1
 578 646 594 645 616 645 c 27
 658 645 674 646 723 647 c 1
 729 641 729 619 723 613 c 1
 663 606 646 605 646 522 c 2
 646 295 l 2
 646 117 581 -10 376 -10 c 3
 328.577 -10 236.89 -8.87832 174 32 c 0
 117.537 68.701 87 139 87 236 c 2
 87 522 l 2
 87 605 70 610 10 613 c 1
 4 619 4 641 10 647 c 1
 60 646 99 645 156 645 c 27
 192 645 230 646 249 647 c 1
 255 641 255 619 249 613 c 1
 232 610 227 605 227 522 c 2xde
430 697 m 0
 430 729 455 754 487 754 c 0
 519 754 542 729 542 697 c 0
 542 665 519 641 487 641 c 0xbe
 455 641 430 665 430 697 c 0
263 697 m 0
 263 729 287 754 319 754 c 0
 351 754 375 729 375 697 c 0
 375 665 351 641 319 641 c 0
 287 641 263 665 263 697 c 0
EndSplineSet
Validated: 3105
Substitution2: "LinLibertine-'ss01' Stilgruppe 1 1" Udieresis.alt
Substitution2: "LinLibertine-'c2sc' Versale nach Kapitaelchen 1" udieresis.sc
AlternateSubs2: "LinLibertine-'aalt' Alle Alternativen zeigen 1" udieresis.sc
Position2: "'cpsp' Versalabstaende 1" dx=2 dy=0 dh=5 dv=0
EndChar
StartChar: Thorn
Encoding: 222 222 373
Width: 616
VWidth: 999
Flags: W
HStem: -2 34<25.6167 94.4056 273.594 342.383> 150 41<251.599 387.01> 482 41<251 392.841> 613 34<25.6167 94.4056 273.594 342.383>
VStem: 114 140<47 598> 431 151<263.886 426.482>
AnchorPoint: "top_akzent" 281 850 basechar 0
LayerCount: 2
Fore
SplineSet
251 195 m 17
 260 193 284 191 322 191 c 3
 394 191 431 233.995 431 343 c 3
 431 430.693 400 482 340 482 c 3
 321 482 273 482 251 477 c 9
 251 521 l 1
 288 523 334 523 352 523 c 3
 537 523 582 414 582 343 c 3
 582 268 516 150 339 150 c 3
 303 150 267 151 251 157 c 1
 251 195 l 17
EndSplineSet
Refer: 258 73 N 1 0 0 1 0 0 2
Substitution2: "LinLibertine-'c2sc' Versale nach Kapitaelchen 1" thorn.sc
AlternateSubs2: "LinLibertine-'aalt' Alle Alternativen zeigen 1" thorn.sc
Position2: "'cpsp' Versalabstaende 1" dx=2 dy=0 dh=5 dv=0
EndChar
StartChar: germandbls
Encoding: 223 223 374
Width: 615
VWidth: 999
Flags: W
HStem: -10 42<364.242 421.421> -2 34<19.77 83.2627 238.491 267.647> 384 50<37.2324 100> 656 42<278.56 369.607>
VStem: 100 130<44.1816 384 434 572.892> 286 78<35.3457 121.781> 386 135<493.992 641.41> 432 142<84.207 263.644>
LayerCount: 2
Fore
SplineSet
100 482 m 2x7e
 100 646 267 698 345 698 c 3
 390 698 431 690 460 675 c 0
 508 651 521 607 521 577 c 3x7e
 521 478 460 449 380 411 c 9
 380 409 l 17
 477 376 574 289 574 173 c 3
 574 68 495 -10 403 -10 c 3
 320 -10 286 45 286 98 c 3
 286 116 302 146 330 146 c 3
 354 146 379 130 379 106 c 3
 379 86 364 75 364 53 c 3
 364 41 385 32 403 32 c 3
 431 32 432 105 432 156 c 3xbd
 432 249 403 322 319 386 c 9
 319 409 l 1
 386 461 386 491 386 564 c 3
 386 604 379 656 326 656 c 3
 254 656 230 555 230 447 c 2
 230 128 l 2
 230 44 236 41 267 32 c 1
 273 26 270 4 264 -2 c 1
 241 0 204 0 165 0 c 27
 110 0 65 -1 23 -2 c 1
 17 4 17 26 23 32 c 1
 84 35 100 44 100 126 c 2
 100 384 l 17
 31 384 l 17
 28 386 26 389 26 394 c 1
 32 409 52 431 59 434 c 9
 100 434 l 1
 100 482 l 2x7e
EndSplineSet
Substitution2: "LinLibertine-'ss03' Stilgruppe 3 1" germandbls.ss03
Substitution2: "LinLibertine-'smcp' Gemeine nach Kapitaelchen 1" germandbls.sc
AlternateSubs2: "LinLibertine-'aalt' Alle Alternativen zeigen 1" germandbls.sc germandbls.alt germandbls.scalt germandbls.ss03
EndChar
StartChar: ae
Encoding: 230 230 381
Width: 722
Flags: W
HStem: -10 84<470.249 594.681> -10 60<169.12 271.119> 402 42<165.598 266.723 461.737 542.813>
VStem: 44 114<61.1492 158.934> 60 102<312.214 386.33> 298 125<127.369 206 258 354> 570 122.858<271.825 366.064>
AnchorPoint: "unten_punkt" 327 -109 basechar 0
AnchorPoint: "ogonek" 604 30 basechar 0
AnchorPoint: "top_akzent" 332 644 basechar 0
LayerCount: 2
Fore
SplineSet
537 74 m 3xae
 575 74 635 87 676 129 c 1
 686 129 691 111 691 98 c 1
 641 25 573 -10 504 -10 c 3xae
 470.124 -10 435.677 -6.8291 403.5 10.5 c 0
 383.22 21.4219 362.5 38 344 63 c 1
 300 8 222.144 -10 189 -10 c 3
 148.536 -10 117 -6 91 11.707 c 0
 64.5586 29.7148 44 62.6221 44 99 c 3x76
 44 182.054 131 234 298 248 c 1
 298 353 272 402 225 402 c 3
 188 402 162 393 162 371 c 3
 162 351 169 340 169 328 c 3
 169 314 157 287 112 287 c 3
 77 287 60 313 60 339 c 3
 60 399 155 444 227 444 c 3
 280 444 349 428 375 374 c 1
 415 431 462.965 444 520 444 c 3
 669.271 444 692.858 337 692.858 274.903 c 3
 692.858 241.234 688 234.5 677.5 233 c 1
 628.5 225.5 529.465 219.302 423 217 c 1
 424 116 476 74 537 74 c 3xae
291 93 m 0
 298.773 106.769 297 159 298 206 c 1
 203 194 158 156 158 111 c 3
 158 72.2918 181.086 50 214 50 c 3x76
 232 50 273.5 62 291 93 c 0
502 402 m 3
 450 402 427 322 425 258 c 1
 461.5 260.5 531.5 267.5 570 275 c 1
 570 336 558 402 502 402 c 3
EndSplineSet
Substitution2: "LinLibertine-'smcp' Gemeine nach Kapitaelchen 1" ae.sc
AlternateSubs2: "LinLibertine-'aalt' Alle Alternativen zeigen 1" ae.sc
EndChar
StartChar: eth
Encoding: 240 240 391
Width: 559
Flags: W
HStem: -10 42<228.943 326.839> 402 42<226.995 332.24> 678 20G<163.311 191>
VStem: 35 140<107.368 309.334> 376 140<131.888 362.896>
LayerCount: 2
Fore
SplineSet
280 32 m 3
 318 32 376 68.9692 376 215 c 3
 376 261 374 321 361 361 c 1
 339 385 313 402 284 402 c 3
 201 402 175 307 175 234 c 3
 175 123 207.826 32 280 32 c 3
35 206 m 3
 35 286.464 69.2148 349.763 115 387.039 c 0
 168.224 430.372 237.081 444 286 444 c 3
 302 444 316 442 333 439 c 1
 313 485 289 526 258 557 c 1
 224 533 179 503 148 483 c 1
 132.722 493.444 126.917 505.908 124 519 c 1
 229 589 l 1
 201.796 616.204 172.02 645.203 145 664 c 1
 148.418 680.618 156.622 691.964 170 698 c 1
 212 678 257 650 286 627 c 1
 320 651 367 681 398 702 c 1
 416.396 693.115 421.261 680.182 422 666 c 1
 323 600 l 1
 365 562 418.644 515.803 454 463 c 0
 495.411 401.155 516 323.927 516 239 c 3
 516 155.989 483.271 92.8945 439 52 c 0
 392.074 8.65234 323.776 -10 261 -10 c 3
 123 -10 35 78.9961 35 206 c 3
EndSplineSet
Substitution2: "LinLibertine-'smcp' Gemeine nach Kapitaelchen 1" eth.sc
AlternateSubs2: "LinLibertine-'aalt' Alle Alternativen zeigen 1" eth.sc
EndChar
StartChar: oslash
Encoding: 248 248 393
Width: 567
VWidth: 999
Flags: W
HStem: -10 42<241.991 339.727> 402 42<216.57 316.912> 453 20G<434.564 458.643>
VStem: 42 140<112.736 315.973> 379 140<115.701 321.741>
LayerCount: 2
Fore
SplineSet
451 473 m 5
 466.287 469.997 475.971 466.561 485 449 c 1
 92 -31 l 1
 77.334 -25.334 68.334 -18.666 59 -4 c 5
 451 473 l 5
EndSplineSet
Refer: 295 111 N 1 0 0 1 5 0 2
Substitution2: "LinLibertine-'smcp' Gemeine nach Kapitaelchen 1" oslash.sc
AlternateSubs2: "LinLibertine-'aalt' Alle Alternativen zeigen 1" oslash.sc
EndChar
StartChar: thorn
Encoding: 254 254 396
Width: 588
Flags: W
HStem: -234 34<26.77 89.8255 244.175 307.23> -10 42<244.116 356.172> 369 75<307.708 410> 636 34<35.6452 91.2285> 678 20G<198.75 220>
VStem: 102 130<-190.507 3 46.534 352.444 381 627.871> 406 140<142.718 337.274>
AnchorPoint: "top_akzent" 278 646 basechar 0
LayerCount: 2
Fore
SplineSet
232 341 m 1
 232 64 l 1
 250.667 41.333 285.333 32 310 32 c 3
 362.681 32 406 94.9512 406 220 c 3
 406 277.25 397.5 321 379.667 345.333 c 0
 366.667 363.071 343 369 320 369 c 3
 296.5 369 264.667 361 232 341 c 1
232 3 m 1
 232 -110 l 2
 232 -193 243 -196 304 -200 c 1
 310 -206 310 -228 304 -234 c 1
 261 -233 220.436 -232 167 -232 c 27
 113.564 -232 72 -233 30 -234 c 1
 24 -228 24 -206 30 -200 c 1
 91 -195 102 -193 102 -110 c 2
 102 568 l 2
 102 625 91.4814 630.932 37 636 c 1
 35 642 33 664 35 670 c 1
 104 679 184.5 687 213 698 c 1
 227 698 236 692 236 681 c 1
 236 681 232 625 232 575.333 c 2
 232 381 l 1
 250.5 393 281.535 411.944 311 423.667 c 0
 333.391 432.575 361 444 397 444 c 3
 423 444 464.5 436 497 400 c 0
 529.734 363.74 546 309.847 546 253 c 3
 546 89.9443 425 -10 304 -10 c 3
 279.201 -10 255.715 -5.1084 232 3 c 1
EndSplineSet
Substitution2: "LinLibertine-'smcp' Gemeine nach Kapitaelchen 1" thorn.sc
AlternateSubs2: "LinLibertine-'aalt' Alle Alternativen zeigen 1" thorn.sc
EndChar
StartChar: Aogonek
Encoding: 260 260 402
Width: 740
VWidth: 999
Flags: W
HStem: -232 60<558.359 641.312> -2 34<3.77002 69.5762 167.992 237.23 421.77 500.035 664.842 733.23> 1 21<633.742 647> 235 48<250.587 425> 638 20<426.5 441.203>
VStem: 479 92<-169.449 -74.1839>
DStem2: 106.983 102 165 79 0.390001 0.920814<-25.5008 179.412 231.412 451.365> 323.835 614 336.175 520 0.390001 0.920814<-540.408 -382.79 -329.399 -81.7439> 434 658 343.096 520 0.338836 -0.940845<99.0351 349.768 401.027 600.306>
AnchorPoint: "top_akzent" 365 850 basechar 0
LayerCount: 2
Fore
SplineSet
677 -177 m 5xbc
 651 -213 607 -232 568 -232 c 7
 548.718 -232 532.404 -225.391 518 -216 c 4
 495.052 -201.039 479 -175.939 479 -136 c 7
 479 -66 578 22 647 22 c 5
 668 1 l 5
 616 0 571 -64 571 -130 c 7
 571 -162 588.536 -172 606 -172 c 7
 623 -172 647 -169 662 -154 c 5
 677 -177 l 5xbc
EndSplineSet
Refer: 24 65 N 1 0 0 1 0 0 3
Validated: 35845
Substitution2: "LinLibertine-'c2sc' Versale nach Kapitaelchen 1" aogonek.sc
Position2: "'cpsp' Versalabstaende 1" dx=2 dy=0 dh=5 dv=0
EndChar
StartChar: dcroat
Encoding: 273 273 415
Width: 561
VWidth: 999
Flags: W
HStem: -10 74<193 287.665> 23 32<498.156 547.438> 402 42<219.765 348.876> 524 42<257 546> 638 34<280.144 340.885> 678 20<449.5 472.5>
VStem: 37 140<106.213 306.711> 351 130<79.2183 391.711 434 631.337>
LayerCount: 2
Fore
SplineSet
257 570 m 5x3f
 302 567 354 566 406 566 c 7
 458 566 510 567 555 570 c 5
 546 520 l 5
 501 523 449 524 397 524 c 7
 345 524 293 523 248 520 c 5
 257 570 l 5x3f
EndSplineSet
Refer: 284 100 N 1 0 0 1 0 0 3
Substitution2: "LinLibertine-'smcp' Gemeine nach Kapitaelchen 1" dcroat.sc
AlternateSubs2: "LinLibertine-'aalt' Alle Alternativen zeigen 1" dcroat.sc
EndChar
StartChar: Eogonek
Encoding: 280 280 44
Width: 609
VWidth: 999
Flags: W
HStem: -232 60<378.359 461.312> -2 34<11.77 85.9433> 0 42<249.172 454.205> 1 21<453.742 467> 319 46<242 399.554> 603 42<249.747 438.219> 613 34<12.2578 85.9433>
VStem: 102 140<48.1312 319 365 596.345> 299 92<-169.449 -74.1839> 414 43<252.086 303.875 376.375 431.914> 525 45<116.761 167.944>
AnchorPoint: "unten_punkt" 279 -110 basechar 0
AnchorPoint: "unten_anhang" 279 4 basechar 0
AnchorPoint: "top_akzent" 273 850 basechar 0
AnchorPoint: "top_rechts" 519 732 basechar 0
LayerCount: 2
Fore
SplineSet
497 -177 m 5x99e0
 471 -213 427 -232 388 -232 c 7
 368.719 -232 352.404 -225.392 338 -216 c 4
 315.053 -201.039 299 -175.939 299 -136 c 7
 299 -66 398 22 467 22 c 5
 488 1 l 5
 436 0 391 -64 391 -130 c 7
 391 -162 408.536 -172 426 -172 c 7
 443 -172 467 -169 482 -154 c 5
 497 -177 l 5x99e0
EndSplineSet
Refer: 28 69 N 1 0 0 1 0 0 3
Validated: 35845
Substitution2: "LinLibertine-'c2sc' Versale nach Kapitaelchen 1" eogonek.sc
Position2: "'cpsp' Versalabstaende 1" dx=2 dy=0 dh=5 dv=0
EndChar
StartChar: Hbar
Encoding: 294 294 58
Width: 817
VWidth: 999
Flags: W
HStem: -2 34<25.6167 94.4056 273.594 342.383 475.617 544.406 723.594 792.383> 319 48<254 564> 494 42<27 740> 613 34<25.6167 94.4056 273.594 342.383 475.617 544.406 723.594 792.383>
VStem: 114 140<47 319 367 598> 564 140<47 319 367 598>
LayerCount: 2
Fore
SplineSet
27 540 m 1
 72 537 344 536 396 536 c 3
 448 536 704 537 749 540 c 1
 740 490 l 1
 695 493 439 494 387 494 c 3
 335 494 63 493 18 490 c 1
 27 540 l 1
EndSplineSet
Refer: 2178 72 N 1 0 0 1 0 0 3
Validated: 35845
Position2: "'cpsp' Versalabstaende 1" dx=2 dy=0 dh=5 dv=0
EndChar
StartChar: hbar
Encoding: 295 295 59
Width: 619
VWidth: 999
Flags: W
HStem: -2 34<19.77 83.2627 243.609 290.23 337.77 384.004 544.737 608.23> 370 74<318.782 439> 524 42<24 313> 640 32<29.1436 89.8851> 678 20<198.5 221.5>
VStem: 100 130<44.1062 345.086 374 633.337> 398 130<44.1813 351.535>
LayerCount: 2
Fore
SplineSet
24 570 m 5
 69 567 121 566 173 566 c 7
 225 566 277 567 322 570 c 5
 313 520 l 5
 268 523 216 524 164 524 c 7
 112 524 60 523 15 520 c 5
 24 570 l 5
EndSplineSet
Refer: 288 104 N 1 0 0 1 0 0 3
EndChar
StartChar: Iogonek
Encoding: 302 302 66
Width: 367
VWidth: 999
Flags: W
HStem: -232 60<158.359 241.312> -2 34<25.6167 94.4056 273.594 342.383> 1 21<233.742 247> 613 34<25.6167 94.4056 273.594 342.383>
VStem: 79 92<-169.449 -74.1839> 114 140<47 598>
AnchorPoint: "top_akzent" 146 850 basechar 0
LayerCount: 2
Fore
SplineSet
277 -177 m 5xb8
 251 -213 207 -232 168 -232 c 7
 148.719 -232 132.404 -225.392 118 -216 c 4
 95.0527 -201.039 79 -175.939 79 -136 c 7
 79 -66 178 22 247 22 c 5
 268 1 l 5
 216 0 171 -64 171 -130 c 7
 171 -162 188.536 -172 206 -172 c 7
 223 -172 247 -169 262 -154 c 5
 277 -177 l 5xb8
EndSplineSet
Refer: 258 73 N 1 0 0 1 0 0 3
Position2: "'cpsp' Versalabstaende 1" dx=2 dy=0 dh=5 dv=0
EndChar
StartChar: iogonek
Encoding: 303 303 67
Width: 322
VWidth: 999
Flags: HW
HStem: -232 60<158.359 241.312> -2 34<26.77 89.8255 244.175 307.23> 1 21<233.742 247> 384 32<35.5625 87.8438> 424 20<198.5 220> 528 131<113.375 212.698>
VStem: 79 92<-169.449 -74.1839> 95 138<548.43 640.955> 102 130<41.4929 375.312>
AnchorPoint: "top_akzent" 132 825 basechar 0
LayerCount: 2
Fore
SplineSet
277 -177 m 5xbe
 251 -213 207 -232 168 -232 c 7
 148.719 -232 132.404 -225.392 118 -216 c 4
 95.0527 -201.039 79 -175.939 79 -136 c 7
 79 -66 178 22 247 22 c 5
 268 1 l 5
 216 0 171 -64 171 -130 c 7
 171 -162 188.536 -172 206 -172 c 7
 223 -172 247 -169 262 -154 c 5
 277 -177 l 5xbe
EndSplineSet
Refer: 289 105 N 1 0 0 1 0 0 3
EndChar
StartChar: dotlessi
Encoding: 305 305 419
Width: 322
Flags: HW
HStem: -2 34<26.77 89.8255 244.175 307.23> 384 32<35.5625 87.8438> 424 20G<198.5 220>
VStem: 102 130<41.4929 375.312>
AnchorPoint: "unten_punkt" 139 -108 basechar 0
AnchorPoint: "top_akzent" 132 645 basechar 0
LayerCount: 2
Fore
SplineSet
232 122 m 2
 232 39 243 36 304 32 c 1
 310 26 310 4 304 -2 c 1
 261 -1 220 0 167 0 c 27
 114 0 72 -1 30 -2 c 1
 24 4 24 26 30 32 c 1
 91 37 102 39 102 122 c 2
 102 314 l 2
 102 371 91 379 37 384 c 1
 35 390 33 410 35 416 c 5
 104 423 184 435 213 444 c 5
 227 444 236 438 236 427 c 1
 236 427 232 371 232 321 c 2
 232 122 l 2
EndSplineSet
Substitution2: "LinLibertine-'smcp' Gemeine nach Kapitaelchen 1" i.sc
AlternateSubs2: "LinLibertine-'aalt' Alle Alternativen zeigen 1" i.sc idotaccent.sc
EndChar
StartChar: kgreenlandic
Encoding: 312 312 426
Width: 603
Flags: HW
HStem: -2 34<26.77 89.8255 244.175 307.23 554 588> 209 40<230 288.752> 384 32<35.5625 87.8438> 402 34<333 362 533 570> 424 20<198.5 220>
VStem: 102 130<41.4929 375.312>
AnchorPoint: "unten_punkt" 282 -108 basechar 0
AnchorPoint: "unten_anhang" 160 9 basechar 0
AnchorPoint: "top_akzent" 300 644 basechar 0
LayerCount: 2
Fore
SplineSet
231 251 m 1
 261 251 286 259 299 269 c 0
 321 286 345 319 367 349 c 0
 376 361 380 371 380 378 c 0
 380 394 360 399 323 402 c 1
 317 408 317 430 323 436 c 1
 360 435 407 434 444 434 c 0
 470 434 533 435 555 436 c 1
 561 430 561 408 555 402 c 1
 479 394 451 361 420 324 c 2
 370 265 l 2
 366 260 368 252 373 245 c 2
 499 78 l 2
 528 39 541 36 580 32 c 1
 586 26 586 4 580 -2 c 1
 543 -1 497 0 456 0 c 0
 421 0 376 -2 376 -2 c 1
 374 0 l 1
 371 26 363 48 346 78 c 0
 328 110 302 148 276 179 c 0
 264 193 249 209 231 209 c 1
 231 251 l 1
EndSplineSet
Refer: 419 305 N 1 0 0 1 0 0 2
Substitution2: "LinLibertine-'smcp' Gemeine nach Kapitaelchen 1" k.sc
Comment: "Ist das so richtig?"
EndChar
StartChar: Lslash
Encoding: 321 321 435
Width: 577
VWidth: 999
Flags: W
HStem: -2 34<25.6167 94.4056> 0 42<261.972 438.224> 613 34<25.6167 94.4056 273.594 342.383>
VStem: 114 140<47 598> 511 43<116.761 167.354>
DStem2: 24.8633 274.521 191.71 320.547 0.86948 0.493968<0 344.498>
LayerCount: 2
Fore
SplineSet
344.096 410.019 m 5x38
 300.266 385.954 241.021 351.084 191.71 320.547 c 4
 142.4 290.01 83.7598 255.261 42.6875 226.747 c 5
 24.8633 274.521 l 5
 68.6924 298.585 128.789 330.981 178.1 361.519 c 4
 227.409 392.056 285.199 429.278 326.271 457.792 c 5
 344.096 410.019 l 5x38
EndSplineSet
Refer: 261 76 N 1 0 0 1 0 0 3
Validated: 35845
Substitution2: "LinLibertine-'c2sc' Versale nach Kapitaelchen 1" lslash.sc
Position2: "'cpsp' Versalabstaende 1" dx=2 dy=0 dh=5 dv=0
EndChar
StartChar: lslash
Encoding: 322 322 436
Width: 325
VWidth: 999
Flags: W
HStem: -2 34<19.77 83.2627 246.737 310.23> 451.792 20G<275.735 303.733> 640 32<29.1436 89.8851> 678 20<198.5 221.5>
VStem: 14.8633 299.233 100 130<44.1062 633.241>
DStem2: 14.8633 297.521 171.71 340.547 0.870242 0.492624<0 322.721>
LayerCount: 2
Fore
SplineSet
314.096 424.019 m 5xf8
 270.266 399.954 221.021 371.084 171.71 340.547 c 4
 122.4 310.01 73.7598 278.261 32.6875 249.747 c 5
 14.8633 297.521 l 5
 58.6924 321.585 108.789 350.981 158.1 381.519 c 4
 207.409 412.056 255.199 443.278 296.271 471.792 c 5
 314.096 424.019 l 5xf8
EndSplineSet
Refer: 1963 108 N 1 0 0 1 0 0 3
Validated: 35845
Substitution2: "LinLibertine-'smcp' Gemeine nach Kapitaelchen 1" lslash.sc
AlternateSubs2: "LinLibertine-'aalt' Alle Alternativen zeigen 1" lslash.sc
EndChar
StartChar: Eng
Encoding: 330 330 444
Width: 805
VWidth: 999
Flags: W
HStem: -187 59<435.5 544.588> -2 34<15.77 89.9433 262.057 336.23> 592 66<391.345 494.803> 613 34<15.77 89.9433>
VStem: 106 140<43.951 476.947 513.523 601.049> 563 140<-22.2492 496.116>
AnchorPoint: "unten_punkt" 353 -109 basechar 0
AnchorPoint: "unten_anhang" 124 -3 basechar 0
AnchorPoint: "top_akzent" 346 804 basechar 0
LayerCount: 2
Fore
SplineSet
703 103 m 2xec
 703 -39 645 -92 601 -129 c 0
 560 -164 509 -187 450 -187 c 3
 421 -187 352 -163 352 -116 c 3
 352 -87 392 -60 410 -60 c 3
 450 -60 455 -88 468 -105 c 0
 478 -118 496 -128 514 -128 c 3
 557 -128 562 -99 563 81 c 2
 563 339 l 2
 563 440 546.771 500.773 521 538 c 0
 494 577 477 592 431 592 c 0xec
 381 592 317 537 264 474 c 0
 256.987 465.663 248.734 453.245 246 436.476 c 1
 246 122 l 2
 246 39 263 35 333 32 c 1
 339 26 339 4 333 -2 c 1
 283 -1 239 0 189 0 c 0
 138 0 68 -1 19 -2 c 1
 13 4 13 26 19 32 c 1
 89 35 106 39 106 122 c 2
 106 523 l 2
 106 606 89 610 19 613 c 1
 13 619 13 641 19 647 c 1
 69 646 138 645 188 645 c 0
 201 645 228 646 237 647 c 0xdc
 246 647 250 644 250 637 c 2
 250 637 246 597 246 532 c 2
 246 513.523 l 1
 249 513.523 255 521 255 521 c 1
 311 600 400 658 477 658 c 0
 539 658 604 633 639 592 c 0
 680.573 543.3 703 462 703 329 c 2
 703 103 l 2xec
EndSplineSet
Validated: 3105
Substitution2: "LinLibertine-'c2sc' Versale nach Kapitaelchen 1" eng.sc
Position2: "'cpsp' Versalabstaende 1" dx=2 dy=0 dh=5 dv=0
Comment: "Sieht in Times anders aus"
EndChar
StartChar: eng
Encoding: 331 331 445
Width: 615
Flags: W
HStem: -232.15 57.2<274.1 381.341> -2 34<22.77 85.8255 237.539 283.23> 370 74<304.378 426> 379 32<31.5625 83.817>
VStem: 98 130<41.4929 370.067> 222 6<341 371> 391 130<-88.9407 350.415>
AnchorPoint: "unten_punkt" 265 -111 basechar 0
AnchorPoint: "unten_anhang" 128 9 basechar 0
AnchorPoint: "mittelpunkt" 264 215 basechar 0
AnchorPoint: "top_akzent" 264 646 basechar 0
LayerCount: 2
Fore
SplineSet
228 122 m 2xea
 228 39 238 36 280 32 c 1
 286 26 286 4 280 -2 c 1
 237 -1 208.637 0 163 0 c 27
 109.564 0 68 -1 26 -2 c 1
 20 4 20 26 26 32 c 1
 87 37 98 39 98 122 c 2
 98 309 l 2
 98 366 87.4814 373.932 33 379 c 1
 31 385 29 405 31 411 c 1xda
 100 420 160 434 197 444 c 1
 211 444 219.08 439.157 220 427 c 2
 220 427 228 371 228 321.333 c 2
 228 122 l 2xea
521 283 m 2
 521 110 l 2
 521 -79 497 -138 450 -176 c 0
 413 -207 369 -232.15 286.45 -232.15 c 3
 261.75 -232.15 214.95 -213.95 214.95 -176.25 c 3
 214.95 -152.85 242.25 -126.85 256.55 -126.85 c 3
 285.15 -126.85 300.75 -147.65 313.75 -160.65 c 0
 322.85 -169.75 339.75 -174.95 354.05 -174.95 c 3
 379.047 -174.95 398 -128.61 398 -92 c 27
 398 -26.4229 391 19 391 76 c 2
 391 295 l 2
 391 352 351 370 311 370 c 3
 293 370 264 368 222 341 c 1
 222 381 l 17
 280 414 346 444 383 444 c 3xe6
 469 444 521 394 521 283 c 2
EndSplineSet
Validated: 3109
Substitution2: "LinLibertine-'smcp' Gemeine nach Kapitaelchen 1" eng.sc
AlternateSubs2: "LinLibertine-'aalt' Alle Alternativen zeigen 1" eng.sc
EndChar
StartChar: OE
Encoding: 338 338 452
Width: 925
Flags: MW
HStem: 0 40<306.854 410.144 567.57 765.012> 317 50<558 717.134> 496 149<794.745 835.173> 603 42<288.202 411.344 565.747 754.219>
VStem: 43 151<202.165 438.41> 418 140<48.1138 317 367 596.68> 730 43<252.086 302.875 377.375 431.914>
AnchorPoint: "top_akzent" 546 698 basechar 0
LayerCount: 2
Fore
SplineSet
377 40 m 2xce
 389 40 l 2
 411.512 40 418 76.875 418 122 c 2
 418 522 l 2
 418 566.794 412.184 604 389 604 c 2
 355 604 l 2
 270 604 194 536 194 328 c 0
 194 125 286 40 377 40 c 2xce
639 367 m 2
 706 367 727 374 730 429 c 1
 736 435 767 435 773 429 c 1
 772 399 771 377 771 343 c 0
 771 309 772 290 773 255 c 1
 767 249 736 249 730 255 c 1
 727 300 708 317 639 317 c 2
 558 317 l 1
 558 90 l 2
 558 63 577 42 599 42 c 2
 700 42 l 2
 776 42 821 98 841 170 c 1
 854.099 173.181 875.599 170.95 886 165 c 1
 878 114 873 48 859 -2 c 1
 859 -2 769 0 721 0 c 2
 379 0 l 2
 178 0 43 138 43 319 c 0
 43 499 170 647 367 647 c 0
 417 646 485 645 485 645 c 2
 780 645 l 2xde
 804 645 812 646 829 649 c 0
 832 649 833 648 833 646 c 0
 835 638 840 542 845 501 c 1
 835.245 496.332 814.419 494.244 802 496 c 1xee
 780 565 759 603 684 603 c 2
 599 603 l 2xde
 575 603 558 578 558 554 c 2
 558 367 l 1
 639 367 l 2
EndSplineSet
Validated: 3105
Position2: "'cpsp' Versalabstaende 1" dx=2 dy=0 dh=5 dv=0
EndChar
StartChar: Tbar
Encoding: 358 358 472
Width: 652
VWidth: 999
Flags: W
HStem: -2 34<164.77 247.807 422.193 505.23> 319 42<174 495> 604 41<92.255 252.482 417.34 557.54>
VStem: 3 39<501.917 547.732> 265 140<45.3649 595.442> 607 39<504.917 551.486>
LayerCount: 2
Fore
SplineSet
174 365 m 5
 223.932 362.383 281 361 339 361 c 3
 397 361 455.068 362.383 505 365 c 1
 495 315 l 1
 445.068 317.617 387 319 329 319 c 3
 271 319 213.932 317.617 164 315 c 5
 174 365 l 5
EndSplineSet
Refer: 269 84 N 1 0 0 1 0 0 3
Substitution2: "LinLibertine-'c2sc' Versale nach Kapitaelchen 1" tbar.sc
Position2: "'cpsp' Versalabstaende 1" dx=2 dy=0 dh=5 dv=0
EndChar
StartChar: tbar
Encoding: 359 359 473
Width: 358
VWidth: 999
Flags: W
HStem: -10 70<184.266 285.288> 224 42<35 326> 384 50<28.2324 91 217 335.992>
VStem: 88 130<66.9602 384 434 549.542>
LayerCount: 2
Fore
SplineSet
35 270 m 5
 84.9316 267.383 122 266 180 266 c 7
 238 266 286.068 267.383 336 270 c 5
 326 220 l 5
 276.068 222.617 228 224 170 224 c 7
 112 224 74.9316 222.617 25 220 c 5
 35 270 l 5
EndSplineSet
Refer: 300 116 N 1 0 0 1 0 0 3
Substitution2: "LinLibertine-'smcp' Gemeine nach Kapitaelchen 1" tbar.sc
AlternateSubs2: "LinLibertine-'aalt' Alle Alternativen zeigen 1" tbar.sc
EndChar
StartChar: uogonek
Encoding: 371 371 485
Width: 598
VWidth: 999
Flags: W
HStem: -232 60<378.359 461.312> -10 74<172 304.754> 11 21<457.112 467> 23 32<527.156 576.438> 402 34<18.77 71.7019 309.77 363.604>
VStem: 89 130<80.3544 390.242> 299 92<-169.449 -72.1595> 380 130<81.8398 389.887>
LayerCount: 2
Fore
SplineSet
497 -177 m 1xae
 471 -213 427 -232 388 -232 c 3
 368.719 -232 352.404 -225.392 338 -216 c 0
 315.053 -201.039 299 -175.939 299 -136 c 3
 299 -66 398 32 467 32 c 1
 488 11 l 1
 436 10 391 -64 391 -130 c 3
 391 -162 408.536 -172 426 -172 c 3
 443 -172 467 -169 482 -154 c 1
 497 -177 l 1xae
EndSplineSet
Refer: 301 117 N 1 0 0 1 0 0 3
EndChar
StartChar: longs
Encoding: 383 383 497
Width: 334
VWidth: 999
Flags: W
HStem: -2 34<12.77 76.2627 239.737 303.23> 392 42<28 92.5168> 656 42<234.552 282.748>
VStem: 93 130<44.1062 391.997 435.483 582.917>
LayerCount: 2
Fore
SplineSet
223 127 m 6
 223 44 239 35 300 32 c 5
 306 26 306 4 300 -2 c 5
 257 -1 213.386 0 158 0 c 31
 102.614 0 58 -1 16 -2 c 5
 10 4 10 26 16 32 c 5
 77 35 93 44 93 126 c 6
 93 376 l 6
 93 388 92 392 78 392 c 6
 34 392 l 6
 29 392 28 393 28 397 c 6
 28 414 l 6
 28 422 34 434 51 434 c 7
 80 434 94 438 94 470 c 7
 94 550.1 114.984 602.955 148 635 c 4
 182 668 218 698 277 698 c 7
 382 698 430 656.734 430 623 c 7
 430 584.947 411 558 374 558 c 7
 335 558 315 577 298 609 c 4
 275 653 274 656 257 656 c 7
 235 656 223 634 223 485 c 6
 223 127 l 6
EndSplineSet
Validated: 3105
Substitution2: "LinLibertine-'smcp' Gemeine nach Kapitaelchen 1" s.sc
EndChar
StartChar: uni0180
Encoding: 384 384 1279
Width: 558
VWidth: 999
Flags: W
TeX: 57 0
HStem: -12 42<216.715 328.172> 371 71<270.438 382> 507 42<-3 286> 640 32<3.14355 63.8851> 678 20<172.5 195.5>
VStem: 74 130<45.3411 357.076 386 633.241> 378 140<140.718 335.274>
LayerCount: 2
Fore
SplineSet
-3 553 m 5
 42 550 94 549 146 549 c 7
 198 549 250 550 295 553 c 5
 286 503 l 5
 241 506 189 507 137 507 c 7
 85 507 33 506 -12 503 c 5
 -3 553 l 5
EndSplineSet
Refer: 282 98 N 1 0 0 1 0 0 2
EndChar
StartChar: uni0181
Encoding: 385 385 1280
Width: 769
Flags: W
TeX: 57 0
HStem: -2 42<365.223 518.568> -2 34<133.617 202.406> 334 42<362 492.404> 605 42<108.311 162 162.082 211.086 365.143 495.483>
VStem: 7.08203 85<495.822 570.274> 222 140<47 334 376 598.559> 534 140<424.816 568.13> 581 147<100.315 274.622>
AnchorPoint: "unten_punkt" 328 -108 basechar 0
AnchorPoint: "unten_anhang" 310 0 basechar 0
AnchorPoint: "top_akzent" 327 805 basechar 0
LayerCount: 2
Fore
SplineSet
362 562 m 2x3e
 362 376 l 1
 418 376 l 2
 489 376 534 409 534 489 c 0
 534 587 478 605 432 605 c 0
 367 605 362 591 362 562 c 2x3e
362 334 m 1
 362 84 l 2
 362 55 368 40 428 40 c 0
 560 40 581 127 581 187 c 0xbd
 581 273 536 334 433 334 c 2
 362 334 l 1
293 645 m 0
 324.667 645 385 647 435 647 c 0
 636.83 647 674 560 674 491 c 0x7e
 674 440 632 385 578 361 c 1
 578 359 l 1
 684 331 728 274 728 186 c 0
 728 84 662 -2 457 -2 c 0xbd
 397 -2 333 0 293 0 c 0
 253 0 139 -2 139 -2 c 1
 129 4 129 26 139 32 c 1x7d
 194 35 222 39 222 122 c 2
 222 523 l 2
 222 592.042 198 611.03 164.452 611.03 c 3
 133 611.03 92.082 584.82 92.082 555.082 c 0
 92.082 542 108.897 531 108.897 513.853 c 0
 108.897 487 83.2188 468.082 56.082 468.082 c 0
 38 468.082 7.08203 481.928 7.08203 521.082 c 0
 7.08203 563.899 84 647 162 647 c 24
 162 647 162 647 162.082 647.082 c 24
 191.721 646.462 255.369 645 293 645 c 0
EndSplineSet
Validated: 3105
EndChar
StartChar: uni0182
Encoding: 386 386 1281
Width: 649
Flags: W
TeX: 57 0
HStem: -2 42<244.917 388.144> -2 34<13.6167 82.4056> 334 42<242 388.64> 603 42<245.189 442.494> 613 34<14.4297 82.4056>
VStem: 102 140<47 334 376 598> 449 147<98.3056 274.622> 496 43<483.655 537.255>
AnchorPoint: "top_rechts" 509 732 basechar 0
AnchorPoint: "top_akzent" 267 850 basechar 0
AnchorPoint: "mittelpunkt" 146 185 basechar 0
AnchorPoint: "unten_anhang" 250 0 basechar 0
AnchorPoint: "unten_punkt" 268 -110 basechar 0
LayerCount: 2
Fore
SplineSet
242 334 m 1xa6
 242 84 l 2
 242 55 248 40 298 40 c 3
 430 40 449 127 449 187 c 3
 449 273 406 334 303 334 c 2
 242 334 l 1xa6
446 359 m 0
 552 331 596 274 596 186 c 3
 596 84 532 -2 327 -2 c 3xb6
 267 -2 213 0 173 0 c 3
 133 0 19 -2 19 -2 c 1
 9 4 9 26 19 32 c 1
 74 35 102 39 102 122 c 2
 102 523 l 6
 102 606 74 610 19 613 c 5
 9 619 9 641 19 647 c 5x6e
 19 647 124 645 164 645 c 6
 474 645 l 6
 498 645 506 646 523 649 c 5
 526 649 527 648 527 646 c 4
 529 638 534 527 539 486 c 5
 529.245 481.332 508.419 479.244 496 481 c 5
 474 550 453 603 378 603 c 6
 278 603 l 7x35
 256 603 242 591 242 562 c 6
 242 376 l 1
 288 376 l 2
 359 376 394 373 446 359 c 0
EndSplineSet
EndChar
StartChar: uni0183
Encoding: 387 387 1282
Width: 542
Flags: W
TeX: 57 0
HStem: -10 42<218.581 322.263> 373 71<257.309 332.07> 640 32<3.14355 62.5469> 656 42<207.189 363.494>
VStem: 68 66<-3.04144 30> 74 130<47.2213 360.338 388 632.953> 368 140<141.39 333.221> 417 43<536.51 590.255>
AnchorPoint: "top_rechts" 420 580 basechar 0
AnchorPoint: "mittelpunkt" 236 215 basechar 0
AnchorPoint: "unten_punkt" 234 -110 basechar 0
LayerCount: 2
Fore
SplineSet
74 127 m 2xd4
 74 565 l 2
 74 633.588 69 635 6 640 c 1
 1 649 0 660 3 672 c 1xe4
 78 684.333 172.667 698 262 698 c 2
 395 698 l 2
 419 698 427 699 444 702 c 0
 447 702 448 701 448 699 c 0
 450 691 455 580 460 539 c 1
 450 534 429 532 417 534 c 1
 395 603 374 656 299 656 c 2
 240 656 l 2
 220.157 656 206.822 646.252 204.398 623.048 c 0
 204.156 611.231 204 597.846 204 583 c 2
 204 567 l 1
 204 388 l 1xd5
 233 409 286 444 317 444 c 0
 369.708 444 418 434 454 393 c 0
 486.231 356.292 508 299.847 508 243 c 0
 508 99.9443 391 -10 280 -10 c 0
 234.374 -10 173 0 134 30 c 1
 125 11.6667 115 -2 102 -13 c 1
 91 -13 80 -10 68 -6 c 1xda
 72 32 74 44 74 127 c 2xd4
204 348 m 1
 204 67 l 1
 223 44 245.725 32 275 32 c 0
 354 32 368 148.416 368 230 c 0xc6
 368 328 331 373 282 373 c 0
 258.5 373 237 369.5 204 348 c 1
EndSplineSet
EndChar
